<svg id="Layer_1" data-name="Layer 1" xmlns="http://www.w3.org/2000/svg" viewBox="0 0 110 70"><defs><style>.cls-1{fill:#a09ea4}.cls-2{fill:#254081}.cls-3{fill:#a5a4a9}.cls-4{fill:#c4d94b}.cls-5{fill:#6cbe55}.cls-6{fill:#22bcbd}.cls-7{fill:#56ba6c}.cls-8{fill:#2e89c9}.cls-9{fill:#1c4176}</style></defs><path class="cls-1" d="M75.86 38.4v.07c0 4.68-3.41 8.12-9 8.12a12.08 12.08 0 01-9.7-4.29L61 38.72a7.59 7.59 0 006 3c2.06 0 3.52-1.17 3.52-3v-.11c0-2-1.81-3.16-4.87-3.16h-2.3L62.49 32l8-8-3.21 2h-8.62v-4.67h16.81v4.11l-6.29 6c3.38.57 6.68 2.34 6.68 7M60.26 10a3.89 3.89 0 013.88-4.06h2.55l-.69.32v6.14a5.83 5.83 0 00.1 1.15 2.61 2.61 0 00.17.54h-2.1A3.94 3.94 0 0160.26 10zm3.88 5.15h2.26v-.84l.07.11a1.59 1.59 0 00.65.55 2.3 2.3 0 001 .19H88V4.89h-1.09v9.19H68.15a1.26 1.26 0 01-.51-.08.69.69 0 01-.31-.29 1.46 1.46 0 01-.16-.52 5.39 5.39 0 010-.78V4.89h-3A5 5 0 0059.09 10a5 5 0 005 5.09M96 3.8h-2.34v-.89a1.42 1.42 0 01.33-1 1.33 1.33 0 011-.33h.77v.72H95a.44.44 0 00-.34.09.5.5 0 00-.09.32V3H96v.8zm2.76 11.48a3.33 3.33 0 01-.89-.12l.29-1 .3.07h.26a1.27 1.27 0 00.51-.09.69.69 0 00.31-.29 1.46 1.46 0 00.16-.52 5.42 5.42 0 000-.78V4.89h1.09v7.62a5.92 5.92 0 01-.1 1.15 2.37 2.37 0 01-.35.87 1.6 1.6 0 01-.65.55 2.3 2.3 0 01-1 .19M67.11 3.8H66V2.71h1.09V3.8zm24 3.76a2.66 2.66 0 01.67-.84 3.1 3.1 0 01.95-.54A3.27 3.27 0 0193.81 6h1.76l-.57.3v4.89h-1.15A3.79 3.79 0 0192.7 11a2.89 2.89 0 01-.95-.5 2.29 2.29 0 01-.64-.8 2.45 2.45 0 01-.23-1.09 2.31 2.31 0 01.25-1.08m0 3.86a4.31 4.31 0 001.44.65 6.91 6.91 0 001.73.21h.29l.41-.74v1.09a1.43 1.43 0 01-.49 1.23 2.26 2.26 0 01-1.38.37 3.93 3.93 0 01-.91-.1 5.3 5.3 0 01-.92-.33l-.34 1a9.91 9.91 0 001.11.35 4.17 4.17 0 001 .12 3.09 3.09 0 002.32-.76 2.83 2.83 0 00.72-2V4.89H94.3a5.63 5.63 0 00-1.84.29A4.46 4.46 0 0091 6a3.5 3.5 0 00-.92 1.18 3.42 3.42 0 00-.33 1.49 3.51 3.51 0 00.36 1.65 3.17 3.17 0 001 1.13M64.93 3.8h-1.09V2.71h1.09V3.8zM53.64 4.88h1.13v10.23h-.93l-7.26-9.2.64 1.49v7.71H46.1V4.88h1.08l6.93 8.8-.47-1.25V4.88zm-42.56 10.3L6.67 4.88H8l.59 1.52 3 7.29.29.7-.11-1.12 3.48-8.38h1.24L12.1 15.18h-1zM30.6 4.88h1.16V15.1H30.6V4.88zM43 10a4 4 0 01-4 4.19A4.07 4.07 0 0135 10a4 4 0 014-4.19A4.07 4.07 0 0143 10zm-4-5.3a5.19 5.19 0 00-5.25 5.3 5.23 5.23 0 1010.45 0A5.14 5.14 0 0039 4.7m-10.3 7.63c0 1.75-1.46 2.89-3.5 2.89a6 6 0 01-4.2-1.61l.72-.85a4.88 4.88 0 003.51 1.45c1.38 0 2.28-.73 2.28-1.74 0-.95-.51-1.49-2.66-1.94-2.36-.51-3.44-1.27-3.44-3 0-1.61 1.42-2.79 3.37-2.79A5.35 5.35 0 0128.39 6l-.67.89a4.51 4.51 0 00-3-1.11c-1.33 0-2.18.73-2.18 1.65 0 1 .53 1.5 2.78 2s3.34 1.33 3.34 2.89M19.2 15.1h-1.12V4.88h1.16v10.23zm67.3 1.15h1.09v1.09h-1.06v-1.09zm-2.18 0h1.09v1.09h-1.06v-1.09zm-68.5 25.2h9.49v4.72H6.9v-4.33l8.28-6.77c3.09-2.55 4.3-3.9 4.3-6a3 3 0 00-3.34-3.23c-1.92 0-3.23 1.06-5.08 3.33l-3.84-3.05C9.67 22.79 12.05 21 16.5 21c5.15 0 8.57 3 8.57 7.66v.07c0 4.15-2.13 6.21-6.54 9.61l-5.44 4.19-1.09.8zM98 33.82a7.43 7.43 0 01-7.46 7.73 7.55 7.55 0 01-7.54-7.8v-.07a7.43 7.43 0 017.46-7.73 7.55 7.55 0 017.54 7.8v.07zm-7.47-12.91a12.85 12.85 0 00-13.26 12.84v.07c0 7.06 5.51 12.77 13.19 12.77a12.85 12.85 0 0013.26-12.84v-.07c0-7.06-5.51-12.77-13.19-12.77"/><path class="cls-2" d="M40.18 19.28l1.26 1.2-1.21 1.26-1.26-1.21 1.21-1.25z"/><path class="cls-3" d="M43.07 20.53l1.26 1.21 1.2-1.26-1.26-1.2-1.2 1.25z"/><path class="cls-4" d="M41.29 22.12l.98.94.94-.98-.98-.94-.94.98z"/><path class="cls-5" d="M44.89 22.66l.98.93.94-.97-.98-.94-.94.98z"/><path class="cls-4" transform="rotate(-46.23 40.641 23.593)" d="M39.97 22.92h1.36v1.36h-1.36z"/><path class="cls-6" d="M42.98 23.73l.98.94.94-.98-.98-.94-.94.98z"/><path class="cls-5" d="M41.69 24.86l.69.66.66-.69-.69-.66-.66.69z"/><path class="cls-7" d="M44.3 25.37l.68.67.67-.69-.69-.67-.66.69z"/><path class="cls-8" transform="rotate(-10.38 51.26 21.029)" d="M50.16 19.92h2.18v2.17h-2.18z"/><path class="cls-9" transform="rotate(-10.39 48.204 21.738)" d="M47.33 20.86h1.75v1.74h-1.75z"/><path class="cls-6" transform="rotate(-10.39 51.484 24.088)" d="M50.65 23.25h1.75v1.74h-1.75z"/><path class="cls-4" transform="rotate(-10.38 48.918 24.202)" d="M48.25 23.54h1.36v1.36h-1.36z"/><path class="cls-3" transform="rotate(-10.38 51.516 26.769)" d="M50.85 26.07h1.36v1.36h-1.36z"/><path class="cls-6" transform="rotate(-10.38 46.927 24.742)" d="M46.25 24.08h1.36v1.36h-1.36z"/><path class="cls-5" transform="rotate(-10.38 49.374 26.519)" d="M48.67 25.83h1.36v1.36h-1.36z"/><path class="cls-3" transform="rotate(-10.4 47.442 26.531)" d="M46.94 26.03h.96v.95h-.96z"/><path class="cls-7" transform="rotate(-10.38 49.199 28.445)" d="M48.74 27.97h.96v.95h-.96z"/><path class="cls-2" d="M56.35 27.13l-.94 1.97 1.97.93.93-1.96-1.96-.94z"/><path class="cls-6" d="M53.56 26.23l-.75 1.57 1.57.75.75-1.57-1.57-.75z"/><path class="cls-5" d="M54.85 30.11l-.75 1.57 1.57.75.75-1.58-1.57-.74z"/><path class="cls-4" d="M52.78 28.93l-.58 1.22 1.22.58.59-1.22-1.23-.58zM53.41 32.5l-.59 1.23 1.23.58.58-1.23-1.22-.58z"/><path class="cls-8" d="M50.84 28.2l-.59 1.22 1.23.58.59-1.22-1.23-.58z"/><path class="cls-3" d="M51.78 31.03l-.58 1.23 1.22.58.59-1.23-1.23-.58z"/><path class="cls-5" d="M50.3 30.17l-.41.86.87.41.41-.86-.87-.41z"/><path class="cls-6" d="M50.63 32.8l-.41.86.87.41.41-.86-.87-.41z"/><path class="cls-8" d="M57.41 36.53l-1.91 1.04 1.05 1.91 1.9-1.05-1.04-1.9z"/><path class="cls-6" d="M55.67 34.16l-1.52.84.83 1.53 1.54-.84-.85-1.53zM54.45 38.06l-1.53.84.84 1.53 1.53-.84-.84-1.53z"/><path class="cls-2" d="M53.47 35.9l-1.2.65.66 1.19 1.19-.65-.65-1.19z"/><path class="cls-7" d="M51.88 39.16l-1.2.65.66 1.19 1.19-.65-.65-1.19z"/><path class="cls-9" d="M52.32 34.17l-1.19.65.65 1.19 1.19-.65-.65-1.19z"/><path class="cls-4" d="M51.42 37.02l-1.19.65.65 1.19 1.19-.65-.65-1.19z"/><path class="cls-3" d="M50.73 35.46l-.84.46.46.84.84-.46-.46-.84z"/><path class="cls-6" transform="rotate(-28.72 49.261 38.437)" d="M48.79 37.95h.96v.95h-.96z"/><path class="cls-5" transform="rotate(-82.95 51.55 45.71)" d="M50.46 44.62h2.17v2.18h-2.17z"/><path class="cls-9" transform="rotate(-82.94 51.763 42.594)" d="M50.9 41.72h1.74v1.75H50.9z"/><path class="cls-6" transform="rotate(-82.94 48.491 45.043)" d="M47.62 44.17h1.74v1.75h-1.74z"/><path class="cls-5" transform="rotate(-82.96 49.181 42.544)" d="M48.5 41.86h1.36v1.36H48.5z"/><path class="cls-3" transform="rotate(-82.97 45.963 44.26)" d="M45.29 43.58h1.36v1.36h-1.36z"/><path class="cls-3" transform="rotate(-82.94 49.257 40.47)" d="M48.58 39.79h1.36v1.36h-1.36z"/><path class="cls-5" transform="rotate(-82.94 46.86 42.26)" d="M46.18 41.58h1.36v1.36h-1.36z"/><path class="cls-3" transform="rotate(-82.93 47.438 40.417)" d="M46.96 39.94h.95v.96h-.95z"/><path class="cls-3" transform="rotate(-82.95 45.037 41.554)" d="M44.56 41.07h.95v.96h-.95z"/><path class="cls-4" d="M44.16 48.73l-1.6-1.48-1.48 1.59 1.6 1.48 1.48-1.59z"/><path class="cls-5" d="M43.87 18.3l-1.6-1.48-1.48 1.59 1.6 1.48 1.48-1.59z"/><path class="cls-6" d="M45.86 46.35l-1.28-1.19-1.18 1.28 1.27 1.18 1.19-1.27z"/><path class="cls-5" d="M41.77 46.41l-1.28-1.18-1.19 1.28 1.28 1.18 1.19-1.28z"/><path class="cls-8" d="M43.52 44.8l-1-.92-.92.99.99.92.93-.99z"/><path class="cls-4" d="M39.91 44.32l-.99-.92-.93.99 1 .93.92-1zM44.8 43.17l-1-.93-.92 1 .99.92.93-.99z"/><path class="cls-3" d="M41.8 43.22l-.99-.93-.93 1 1 .92.92-.99z"/><path class="cls-9" d="M43.07 42.07l-.7-.65-.65.7.7.65.65-.7z"/><path class="cls-3" d="M40.46 41.59l-.7-.65-.65.7.7.65.65-.7z"/><path class="cls-8" transform="rotate(-11.33 33.604 46.09)" d="M32.49 44.99h2.18v2.17h-2.18z"/><path class="cls-6" transform="rotate(-11.33 36.632 45.322)" d="M35.74 44.43h1.75v1.74h-1.75z"/><path class="cls-5" transform="rotate(-11.5 32.629 42.213)" d="M32.38 42.1h1.75v1.74h-1.75z"/><path class="cls-4" transform="rotate(-11.33 35.814 42.797)" d="M35.17 42.15h1.36v1.36h-1.36z"/><path class="cls-2" transform="rotate(-11.32 37.841 42.265)" d="M37.16 41.57h1.36v1.36h-1.36z"/><path class="cls-8" transform="rotate(-11.5 34.718 39.822)" d="M34.7 39.87h1.36v1.36H34.7z"/><path class="cls-5" transform="rotate(-11.31 37.341 40.512)" d="M36.84 40.04h.96v.95h-.96z"/><path class="cls-3" transform="rotate(-11.31 35.491 38.595)" d="M35.01 38.13h.96v.95h-.96z"/><path class="cls-6" d="M28.38 40.03l.9-1.97-1.98-.9-.9 1.97 1.98.9z"/><path class="cls-4" d="M31.19 40.89l.72-1.58-1.59-.73-.72 1.59 1.59.72z"/><path class="cls-8" transform="rotate(-65.45 29.392 35.884)" d="M28.53 35.01h1.74v1.75h-1.74z"/><path class="cls-6" transform="rotate(-65.5 31.582 37.282)" d="M30.9 36.61h1.36v1.36H30.9z"/><path class="cls-3" d="M33.57 41.27l.57-1.23-1.24-.57-.56 1.24 1.23.56z"/><path class="cls-2" transform="rotate(-65.47 30.896 33.723)" d="M30.22 33.04h1.36v1.36h-1.36z"/><path class="cls-7" transform="rotate(-65.49 33.535 37.986)" d="M32.86 37.3h1.36v1.36h-1.36z"/><path class="cls-4" transform="rotate(-65.47 32.541 35.165)" d="M31.87 34.48h1.36v1.36h-1.36z"/><path class="cls-9" d="M34.37 36.9l.4-.87-.87-.39-.4.87.87.39z"/><path class="cls-5" d="M34 34.28l.4-.87-.87-.4-.4.87.87.4z"/><path class="cls-6" d="M27.17 30.66l1.89-1.08-1.08-1.89-1.89 1.08 1.08 1.89z"/><path class="cls-5" d="M28.94 32.99l1.51-.86-.86-1.52-1.52.87.87 1.51z"/><path class="cls-9" d="M30.1 29.07l1.51-.86-.86-1.51-1.52.86.87 1.51z"/><path class="cls-8" d="M31.12 31.22l1.18-.67-.68-1.18-1.18.67.68 1.18z"/><path class="cls-5" d="M32.65 27.93l1.18-.67-.67-1.18-1.18.67.67 1.18z"/><path class="cls-6" d="M32.29 32.93l1.19-.67-.68-1.18-1.18.67.67 1.18z"/><path class="cls-4" d="M33.14 30.07l1.18-.68-.67-1.18-1.18.68.67 1.18z"/><path class="cls-3" d="M33.86 31.62l.83-.48-.47-.83-.83.48.47.83z"/><path class="cls-5" d="M35.1 29.27l.83-.47-.48-.83-.83.47.48.83z"/><path class="cls-5" transform="rotate(-83.9 32.875 21.383)" d="M31.79 20.29h2.17v2.18h-2.17z"/><path class="cls-3" transform="rotate(-83.89 32.703 24.501)" d="M31.83 23.63h1.74v1.75h-1.74z"/><path class="cls-6" transform="rotate(-83.89 35.943 22.003)" d="M35.07 21.13h1.74v1.75h-1.74z"/><path class="cls-4" transform="rotate(-83.88 35.299 24.505)" d="M34.62 23.83h1.36v1.36h-1.36z"/><path class="cls-8" transform="rotate(-83.91 38.471 22.738)" d="M37.79 22.06h1.36v1.36h-1.36z"/><path class="cls-6" transform="rotate(-83.89 35.25 26.58)" d="M34.57 25.9h1.36v1.36h-1.36z"/><path class="cls-5" transform="rotate(-83.88 37.622 24.752)" d="M36.94 24.07h1.36v1.36h-1.36z"/><path class="cls-9" transform="rotate(-83.89 37.074 26.609)" d="M36.59 26.13h.95v.96h-.95z"/><path class="cls-3" transform="rotate(-83.92 39.45 25.425)" d="M38.97 24.95h.95v.96h-.95z"/><path d="M49.19 34.91a4.44 4.44 0 00-.86-.37 5.14 5.14 0 00-2.33-.18 5.78 5.78 0 00-1 .27h-.1a5.76 5.76 0 00-.54.24l-.46.26a11.15 11.15 0 00-1 .71 22.19 22.19 0 01-.11-5.52c.82.52.59 2 .42 2.37a2.54 2.54 0 00.31-2.88 2.36 2.36 0 01.37.38 2.25 2.25 0 01.46 1.22 3.76 3.76 0 010 .55v.12a2.36 2.36 0 000-2.16 2.71 2.71 0 00-.46-.63l-.18-.18.18.05a1.74 1.74 0 01.46.24 1.93 1.93 0 01.65.87 2.2 2.2 0 01.15.8 2 2 0 00-.17-1.63 1.92 1.92 0 00-.65-.63 2.07 2.07 0 00-.46-.21h-.22.22a2.26 2.26 0 01.46 0 1.69 1.69 0 01.65.26 1.36 1.36 0 01.43.46 1.3 1.3 0 00-.45-.87 1.66 1.66 0 00-.65-.34 1.86 1.86 0 00-.49-.11 1.46 1.46 0 00-.58.1 1.09 1.09 0 01.59-.42 1.34 1.34 0 01.46-.06 1 1 0 01.38.09 1.45 1.45 0 00-.39-.32 1.25 1.25 0 00-.46-.15 1.16 1.16 0 00-1.12.55c-.05-.1-.11-.2-.15-.31a3.71 3.71 0 01-.25-.84 3.74 3.74 0 01-.25.85 3.39 3.39 0 01-.15.31 1.2 1.2 0 00-2-.09 1.22 1.22 0 011.43.38 1.71 1.71 0 00-1.84.46 1.3 1.3 0 00-.3.72 1.27 1.27 0 01.28-.27 1.88 1.88 0 011.48-.4 2 2 0 00-1.48 1.19 2.13 2.13 0 000 1.32 2 2 0 011.44-1.93 2.4 2.4 0 00-.65 3 2.44 2.44 0 01.82-2.28 2.54 2.54 0 00.31 2.88c-.17-.41-.4-1.85.42-2.37a22.11 22.11 0 01-.11 5.52 8.42 8.42 0 00-2-1.21l-.25-.09a5.41 5.41 0 00-1.93-.27 5 5 0 00-2 .5l-.19.1.18-.05a5.51 5.51 0 012-.2 6 6 0 011.93.52 10.19 10.19 0 012.3 1.5 25.13 25.13 0 01-2.3 2h-.07a.54.54 0 00-1 .19.52.52 0 00.1.46.77.77 0 00.93.14 12.83 12.83 0 002.6-2.14l.26-.24.26.24 1.29 1.2.47.42a4.08 4.08 0 00.65.45.84.84 0 001 0 .6.6 0 00.11-.46.54.54 0 00-.4-.4.54.54 0 00-.56.21l-.22-.14a7.59 7.59 0 01-.65-.52l-.46-.42c-.32-.29-.67-.61-1-.93a12.76 12.76 0 011-.78l.46-.3c.21-.12.43-.24.65-.35a6.56 6.56 0 011-.39 5.42 5.42 0 012.37-.15 6 6 0 01.85.2" fill="#69757d"/><path class="cls-1" d="M41.53 57.83h.62v-5.59h-.62v5.59zm-16.36-.62l-1-2.39a2.48 2.48 0 01.74-.44 2.26 2.26 0 01.79-.14 2.2 2.2 0 01.83.17 2.49 2.49 0 01.7.42l-1 2.39h-1.07zm-3.44 0h-.64a2.19 2.19 0 01-.66-.1 1.67 1.67 0 01-.54-.28 1.31 1.31 0 01-.37-.46 1.4 1.4 0 01-.13-.62 1.33 1.33 0 01.14-.62 1.52 1.52 0 01.38-.48 1.77 1.77 0 01.54-.31 1.86 1.86 0 01.63-.11h.63v3zm17.36 0h-1a2 2 0 01-.86-.16 1.15 1.15 0 01-.49-.47 2.67 2.67 0 00.02-.58v-2h-.62v2.1a1.24 1.24 0 01-.29.86 1.11 1.11 0 01-.87.32 1.39 1.39 0 01-.5-.09 1.23 1.23 0 01-.39-.19 1.1 1.1 0 01-.26-.35 1.06 1.06 0 01-.1-.43V54h-.63v2.16a1.22 1.22 0 01-.09.49.9.9 0 01-.23.33.93.93 0 01-.34.19 1.33 1.33 0 01-.4.06h-1.2V54h-.63v3.22h-3.28L28 54.6a5.41 5.41 0 00-.53-.41 4.52 4.52 0 00-.58-.33 3.38 3.38 0 00-.6-.23 2.32 2.32 0 00-.6-.08 2.35 2.35 0 00-.61.08 3.72 3.72 0 00-.61.22 3.81 3.81 0 00-.58.34 5.34 5.34 0 00-.52.41l1.1 2.61h-2.13V53.6h-1a3.23 3.23 0 00-1.05.16 2.55 2.55 0 00-.82.45 2 2 0 00-.53.68 2 2 0 00-.19.85 2 2 0 00.21.95 1.83 1.83 0 00.56.65 2.47 2.47 0 00.82.37 4 4 0 001 .12h.37V58a.82.82 0 01-.28.7 1.29 1.29 0 01-.79.21 2.27 2.27 0 01-.52-.05 3.07 3.07 0 01-.53-.19l-.2.6a5.67 5.67 0 00.64.2 2.39 2.39 0 00.56.07 1.77 1.77 0 001.33-.43 1.62 1.62 0 00.41-1.17v-.11H32a1.65 1.65 0 00.81-.19 1.6 1.6 0 00.57-.52 1.59 1.59 0 00.62.59 1.94 1.94 0 00.93.21 2.14 2.14 0 001-.2 1.34 1.34 0 00.61-.6 1.76 1.76 0 00.19.26 1.11 1.11 0 00.29.23 1.72 1.72 0 00.43.16 2.41 2.41 0 00.45.06h1.8v-5.59h-.62v5zm56-.28a1.58 1.58 0 01-.87.86 1.74 1.74 0 01-.65.12 1.56 1.56 0 01-.57-.13 1.58 1.58 0 01-.51-.35 1.61 1.61 0 01-.34-.52 1.65 1.65 0 01-.15-.63 1.68 1.68 0 01.12-.64 1.63 1.63 0 01.33-.52 1.56 1.56 0 01.5-.35 1.54 1.54 0 01.64-.13 1.72 1.72 0 01.66.12 1.65 1.65 0 01.52.34 1.56 1.56 0 01.35.52 1.69 1.69 0 01.13.66 1.63 1.63 0 01-.13.65m-6.06 0a1.57 1.57 0 01-.87.86 1.74 1.74 0 01-.65.12 1.56 1.56 0 01-.64-.13 1.58 1.58 0 01-.51-.35 1.61 1.61 0 01-.34-.52 1.66 1.66 0 01-.12-.63 1.69 1.69 0 01.12-.64 1.64 1.64 0 01.33-.52 1.56 1.56 0 01.5-.35 1.54 1.54 0 01.64-.13 1.72 1.72 0 01.66.12 1.65 1.65 0 01.52.34 1.56 1.56 0 01.35.52 1.7 1.7 0 01.12.66 1.62 1.62 0 01-.13.65m-15.19.28h-.59a2.1 2.1 0 01-.66-.1 1.64 1.64 0 01-.54-.29 1.37 1.37 0 01-.36-.47 1.43 1.43 0 01-.13-.63 1.3 1.3 0 01.14-.61 1.55 1.55 0 01.38-.48 1.73 1.73 0 01.54-.3 1.91 1.91 0 01.62-.11h.62v3zm24 0h-2.17a2.19 2.19 0 00.2-.92 2.3 2.3 0 00-.18-.9 2.2 2.2 0 00-1.2-1.2 2.3 2.3 0 00-.9-.19 2.15 2.15 0 00-.87.18 2.27 2.27 0 00-1.35 2.1 2.24 2.24 0 00.05.48 2.68 2.68 0 00.14.44h-1.95a2.19 2.19 0 00.19-.92 2.29 2.29 0 00-.18-.9 2.2 2.2 0 00-1.2-1.2 2.31 2.31 0 00-.9-.18 2.15 2.15 0 00-.87.18 2.23 2.23 0 00-1.18 1.21 2.29 2.29 0 00-.17.89 2.22 2.22 0 00.05.48 2.7 2.7 0 00.14.44h-2v-5h-.61v5h-2v-1a2.44 2.44 0 00-.09-.68 1.39 1.39 0 00-.3-.55 1.57 1.57 0 00-.5-.35 2 2 0 00-.77-.13h-2.8l1.18-2.25h-.69l-1.2 2.24a1.35 1.35 0 00.1.35 1.09 1.09 0 00.18.28h3.19a1.31 1.31 0 01.51.09.89.89 0 01.35.25.83.83 0 01.18.36 2 2 0 010 .45v1H74.5V53.6h-1a3.34 3.34 0 00-1.06.16 2.44 2.44 0 00-.81.44 2 2 0 00-.7 1.52 2 2 0 00.21 1 1.9 1.9 0 00.56.65 2.42 2.42 0 00.82.38 3.79 3.79 0 001 .12h12.39a2.24 2.24 0 00.72.52 2.16 2.16 0 00.91.19 2.33 2.33 0 00.93-.19 2.2 2.2 0 00.75-.52H92a2.24 2.24 0 00.72.52 2.15 2.15 0 00.91.19 2.33 2.33 0 00.93-.19 2.21 2.21 0 00.75-.52h3.18v-5.63h-.66v5zm2.44.62h.62v-5.59h-.62v5.59zm-46 1.37h.64v-.64h-.68v.64zm6.11-2l-1-2.39a2.49 2.49 0 01.74-.44 2.26 2.26 0 01.79-.14 2.2 2.2 0 01.84.17 2.5 2.5 0 01.7.42l-1 2.39h-1.11zm4.43 0h-2.7l1.09-2.61a5.38 5.38 0 00-.53-.41 4.54 4.54 0 00-.58-.33 3.4 3.4 0 00-.6-.23 2.31 2.31 0 00-.6-.08 2.36 2.36 0 00-.61.08 3.7 3.7 0 00-.6.22 3.81 3.81 0 00-.58.34 5.45 5.45 0 00-.52.41l1.1 2.61h-2.32v-3.6h-.63V58a3.11 3.11 0 010 .45.83.83 0 01-.09.3.39.39 0 01-.18.16.71.71 0 01-.29.05h-.36l-.16.6a1.91 1.91 0 00.51.07 1.31 1.31 0 00.57-.11.92.92 0 00.37-.32 1.35 1.35 0 00.2-.5 3.39 3.39 0 00.06-.7v-.17h8v-5.59h-.6v5zm-47.46-3.06a1.68 1.68 0 00-.56-.41 1.86 1.86 0 00-.75-.14h-.46v.62h.55a1 1 0 01.43.1 1 1 0 01.34.25 1 1 0 01.18.36 1.89 1.89 0 01.05.47v1.81h-2.93v.62h3.55v-2.44a2.33 2.33 0 00-.1-.69 1.43 1.43 0 00-.3-.55M52 59.21h.64v-.64H52v.64zm-3.8-2h-.65a2.09 2.09 0 01-.66-.1 1.64 1.64 0 01-.54-.29 1.37 1.37 0 01-.35-.47 1.44 1.44 0 01-.13-.63 1.3 1.3 0 01.13-.61 1.55 1.55 0 01.38-.48 1.74 1.74 0 01.54-.3 1.91 1.91 0 01.62-.11h.62v3zm6.71-3.61h-.65v3.61H51.9V53.6h-.62v3.61H48.8V53.6h-1a3.34 3.34 0 00-1.06.16 2.45 2.45 0 00-.81.44 2 2 0 00-.52.67 2 2 0 00-.18.84 2 2 0 00.21 1 1.9 1.9 0 00.56.65 2.42 2.42 0 00.82.38 3.79 3.79 0 001 .12h7.07V53.6zm-4 5.61h.64v-.64h-.68v.64zm-41.74-7H8.5v.64h.64v-.61zm64.27 0h-.68v.64h.64v-.61zm-24.61 0h-.68v.64h.64v-.61zm-36 7h.64v-.64h-.65v.64zm34.88-7h-.65v.64h.64v-.61zm-37.47 0h-.65v.64h.64v-.61zm1.5 7h.64v-.64h-.65v.64zm-2.12-2H9a2.09 2.09 0 01-.66-.1 1.63 1.63 0 01-.54-.29 1.36 1.36 0 01-.36-.47 1.43 1.43 0 01-.13-.63 1.3 1.3 0 01.14-.61 1.57 1.57 0 01.38-.48 1.74 1.74 0 01.54-.3 1.9 1.9 0 01.63-.11h.61v3zm3.73-3.61h-.63v3.61h-2.49V53.6h-1a3.34 3.34 0 00-1.06.16 2.46 2.46 0 00-.81.44 2 2 0 00-.52.67 2 2 0 00-.18.84 2 2 0 00.21 1 1.9 1.9 0 00.56.65 2.41 2.41 0 00.82.38 3.79 3.79 0 001 .12h4.09V53.6zm53.89 4.23h.62v-5.59h-.63v5.59zm7.27-5.59h-.66v.64h.65v-.64zM7.29 61.93h.78v2.24l2.12-2.24h.96L9.3 63.84l1.94 2.54h-.95l-1.53-2-.69.71v1.29h-.78v-4.45zM11.95 61.93h.78v4.45h-.78zM13.94 61.93h.73L17.06 65v-3.07h.77v4.45h-.66l-2.46-3.17v3.17h-.77v-4.45zM18.8 64.17a2.27 2.27 0 012.3-2.3 2.41 2.41 0 011.71.6l-.5.59a1.75 1.75 0 00-1.25-.48 1.51 1.51 0 00-1.45 1.57 1.49 1.49 0 001.52 1.59 1.83 1.83 0 001.08-.34v-.83h-1.13v-.68H23v1.87a2.84 2.84 0 01-1.86.69 2.21 2.21 0 01-2.31-2.29M25.72 65.67a1.45 1.45 0 001.55-1.5 1.46 1.46 0 00-1.55-1.51h-.88v3h.88zm-1.66-3.74h1.66a2.22 2.22 0 012.37 2.21 2.23 2.23 0 01-2.37 2.23h-1.66v-4.44zM32.67 64.17a1.53 1.53 0 00-1.52-1.58 1.51 1.51 0 00-1.5 1.57 1.53 1.53 0 001.52 1.58 1.51 1.51 0 001.5-1.57m-3.84 0a2.33 2.33 0 014.66 0 2.33 2.33 0 01-4.66 0M34.47 61.93h.83l1.36 2.1 1.35-2.1h.84v4.45h-.79v-3.19l-1.4 2.09h-.03l-1.39-2.08v3.18h-.77v-4.45zM45.56 64.17a1.53 1.53 0 00-1.56-1.6 1.51 1.51 0 00-1.5 1.57 1.53 1.53 0 001.52 1.58 1.51 1.51 0 001.5-1.57m-3.84 0a2.33 2.33 0 014.66 0 2.33 2.33 0 01-4.66 0M47.35 61.93h3.32v.71h-2.53v1.21h2.25v.72h-2.25v1.81h-.79v-4.45zM53.15 65.73l.47-.56a2.06 2.06 0 001.41.58.66.66 0 00.79-.56c0-.32-.18-.49-1-.68s-1.49-.51-1.49-1.33a1.36 1.36 0 011.52-1.29 2.48 2.48 0 011.62.56L56 63a2 2 0 00-1.21-.46.62.62 0 00-.73.53c0 .34.2.5 1.06.7s1.43.57 1.43 1.3A1.39 1.39 0 0155 66.44a2.75 2.75 0 01-1.86-.71M60.12 64.61l-.77-1.78-.76 1.78h1.54zM59 61.89h.73l2 4.48h-.87l-.45-1.07H58.3l-.46 1.07H57zM62.15 64.49v-2.56h.78v2.53a1.1 1.1 0 001.13 1.27 1.07 1.07 0 001.12-1.24v-2.56H66v2.53a1.78 1.78 0 01-1.92 2 1.76 1.76 0 01-1.9-2M68.78 65.67a1.45 1.45 0 001.55-1.5 1.46 1.46 0 00-1.55-1.51h-.88v3h.88zm-1.66-3.74h1.66a2.22 2.22 0 012.37 2.21 2.23 2.23 0 01-2.37 2.23h-1.66v-4.44zM72.15 61.93h.78v4.45h-.78zM78.74 64.61L78 62.83l-.8 1.78h1.54zm-1.12-2.72h.73l2 4.48h-.87L79 65.3h-2.09l-.46 1.07h-.8zM83 64.13a.79.79 0 00.92-.74.77.77 0 00-.92-.75h-1.17v1.49H83zm-2-2.2h2a1.8 1.8 0 011.29.45 1.35 1.35 0 01.37 1 1.34 1.34 0 01-1.06 1.35l1.2 1.69h-.89l-1.1-1.55h-1v1.55H81v-4.49zM88.49 64.61l-.77-1.78-.72 1.78h1.54zm-1.12-2.72h.73l2 4.48h-.87l-.45-1.07h-2.11l-.46 1.07h-.8zM92.87 65.69a.69.69 0 00.86-.61c0-.37-.3-.6-.92-.6h-1.24v1.22h1.3zm-.23-1.89a.68.68 0 00.84-.6.64.64 0 00-.78-.57h-1.13v1.17h1.07zm-1.84-1.87h2a1.61 1.61 0 011.17.39 1 1 0 01.3.74 1.06 1.06 0 01-.64 1 1.09 1.09 0 01.89 1.08c0 .8-.66 1.22-1.65 1.22H90.8v-4.43zM95.49 61.93h.78v4.45h-.78zM100.1 64.61l-.77-1.78-.76 1.78h1.54zM99 61.89h.73l2 4.48h-.83l-.45-1.07h-2.17l-.46 1.07H97z"/></svg>