<svg id="eC6bGoR3neD1" xmlns="http://www.w3.org/2000/svg" xmlns:xlink="http://www.w3.org/1999/xlink" viewBox="0 0 1440 263" shape-rendering="geometricPrecision" text-rendering="geometricPrecision">
<style><![CDATA[
#eC6bGoR3neD4 {animation: eC6bGoR3neD4_c_o 6666.666666666667ms linear infinite normal forwards}@keyframes eC6bGoR3neD4_c_o { 0% {opacity: 0} 42.5% {opacity: 0;animation-timing-function: cubic-bezier(0.42,0,1,1)} 57.5% {opacity: 0.65;animation-timing-function: cubic-bezier(0,0,0.58,1)} 70% {opacity: 0} 100% {opacity: 0}} #eC6bGoR3neD18 {animation: eC6bGoR3neD18_c_o 6666.666666666667ms linear infinite normal forwards}@keyframes eC6bGoR3neD18_c_o { 0% {opacity: 0} 22.5% {opacity: 0;animation-timing-function: cubic-bezier(0.42,0,1,1)} 52.5% {opacity: 0.75;animation-timing-function: cubic-bezier(0,0,0.58,1)} 67.5% {opacity: 0} 100% {opacity: 0}} #eC6bGoR3neD25 {animation: eC6bGoR3neD25_c_o 6666.666666666667ms linear infinite normal forwards}@keyframes eC6bGoR3neD25_c_o { 0% {opacity: 0} 27.5% {opacity: 0;animation-timing-function: cubic-bezier(0.42,0,1,1)} 35% {opacity: 0.4;animation-timing-function: cubic-bezier(0.42,0,1,1)} 55% {opacity: 0.65;animation-timing-function: cubic-bezier(0,0,0.58,1)} 67.5% {opacity: 0} 100% {opacity: 0}} #eC6bGoR3neD37 {animation: eC6bGoR3neD37_c_o 6666.666666666667ms linear infinite normal forwards}@keyframes eC6bGoR3neD37_c_o { 0% {opacity: 0} 15% {opacity: 0;animation-timing-function: cubic-bezier(0.42,0,1,1)} 27.5% {opacity: 0.65;animation-timing-function: cubic-bezier(0,0,0.399906,0.451033)} 42.5% {opacity: 0.66;animation-timing-function: cubic-bezier(0.266562,0.439105,0.671374,1)} 55% {opacity: 0} 100% {opacity: 0}} #eC6bGoR3neD47 {animation: eC6bGoR3neD47_c_o 6666.666666666667ms linear infinite normal forwards}@keyframes eC6bGoR3neD47_c_o { 0% {opacity: 0;animation-timing-function: cubic-bezier(0.42,0,1,1)} 10% {opacity: 0.65} 30% {opacity: 0.65;animation-timing-function: cubic-bezier(0,0,0.58,1)} 45% {opacity: 0} 100% {opacity: 0}}
]]></style>
<defs><filter id="eC6bGoR3neD74-filter" x="-150%" width="400%" y="-150%" height="400%"><feColorMatrix id="eC6bGoR3neD74-filter-grayscale-0" type="matrix" values="0.2126 0.7152 0.0722 0 0 0.2126 0.7152 0.0722 0 0 0.2126 0.7152 0.0722 0 0 0 0 0 1 0" result="result"/></filter></defs><g clip-path="url(#eC6bGoR3neD145)"><g><g id="eC6bGoR3neD4" transform="translate(0 0.000001)" opacity="0"><path d="M1359.32,64.52c1.75,0,3.2,1.34,3.58,3.12h11.14v39.78l57.7,63.18c.56-.39,1.23-.62,1.94-.62c2.03,0,3.68,1.8,3.68,4.03s-1.65,4.03-3.68,4.03-3.68-1.8-3.68-4.03c0-.78.21-1.51.57-2.13l-58.19-63.71v-38.72h-9.49c-.38,1.79-1.83,3.12-3.58,3.12-2.03,0-3.68-1.8-3.68-4.03s1.65-4.03,3.68-4.03l.01.01Z" fill="#089247"/><path d="M1231.32,165.61c1.01,0,1.92.45,2.59,1.16l13.82-15.13h18.54l19.6,21.46h13.13l13.13-14.38c-.35-.62-.57-1.35-.57-2.13c0-2.23,1.65-4.03,3.68-4.03s3.68,1.8,3.68,4.03-1.65,4.03-3.68,4.03c-.72,0-1.38-.23-1.94-.62l-13.62,14.91h-14.5l-19.6-21.46h-17.17l-13.62,14.91c.12.4.21.83.21,1.28c0,2.23-1.65,4.03-3.68,4.03s-3.68-1.8-3.68-4.03s1.65-4.03,3.68-4.03Z" fill="#089247"/><path d="M1186.55,80.3801c.72,0,1.38.23,1.95.62l8.83-9.67h29.68l10.39,11.38h80.9v-2.52c-1.63-.41-2.85-2.01-2.85-3.92c0-2.23,1.65-4.03,3.68-4.03s3.68,1.8,3.68,4.03c0,1.91-1.22,3.51-2.85,3.92v4.33h-83.24l-10.39-11.38h-28.31l-8.35,9.14c.36.62.57,1.34.57,2.13c0,2.23-1.65,4.03-3.68,4.03s-3.68-1.8-3.68-4.03s1.65-4.03,3.68-4.03h-.01Z" fill="#089247"/><path d="M1220.53,193.72c2.03,0,3.68,1.8,3.68,4.03c0,.78-.21,1.51-.57,2.13l21.89,23.97h86.54c.38-1.79,1.83-3.12,3.58-3.12c2.03,0,3.68,1.8,3.68,4.03s-1.65,4.03-3.68,4.03c-1.75,0-3.2-1.34-3.58-3.12h-87.22l-22.38-24.5c-.57.39-1.23.62-1.95.62-2.03,0-3.68-1.8-3.68-4.03s1.65-4.03,3.68-4.03l.01-.01Z" fill="#089247"/><path d="M1245.12,183.13c1.63,0,3.01,1.17,3.49,2.79h10.21l25.05,27.43l47.59-52.11h40.83v-24.17l-11.08-12.13h-74.25c-.38,1.79-1.83,3.12-3.58,3.12-2.03,0-3.68-1.8-3.68-4.03s1.65-4.03,3.68-4.03c1.75,0,3.2,1.34,3.58,3.12h74.93l12.05,13.19v26.73h-41.8l-48.28,52.86-25.73-28.18h-9.38c-.25,1.95-1.78,3.46-3.63,3.46-2.03,0-3.68-1.8-3.68-4.03s1.65-4.03,3.68-4.03v.01Z" fill="#089247"/><path d="M1336.62,203.65c1.75,0,3.2,1.34,3.58,3.12h41.38l14.14-15.48h113.23l25.53,27.95c.56-.39,1.23-.62,1.94-.62c2.03,0,3.68,1.8,3.68,4.03s-1.65,4.03-3.68,4.03-3.68-1.8-3.68-4.03c0-.78.21-1.51.57-2.13l-25.04-27.42h-111.87l-14.14,15.48h-42.06c-.38,1.79-1.83,3.12-3.58,3.12-2.03,0-3.68-1.8-3.68-4.03s1.65-4.03,3.68-4.03v.01Z" fill="#089247"/><path d="M1425.38,256.27c.45,0,.87.1,1.26.26l13.32-14.59h43.59c.38-1.79,1.83-3.12,3.58-3.12c2.03,0,3.68,1.8,3.68,4.03s-1.65,4.03-3.68,4.03c-1.75,0-3.2-1.34-3.58-3.12h-42.91l-12.6,13.79c.62.72,1.01,1.69,1.01,2.76c0,2.23-1.65,4.03-3.68,4.03s-3.68-1.8-3.68-4.03s1.65-4.03,3.68-4.03l.01-.01Z" fill="#089247"/><path d="M1401.62,234.67c.72,0,1.38.23,1.95.62l17.25-18.89h71.76l33.58,36.77v43.35l24.58,26.91c.56-.39,1.23-.62,1.94-.62c2.03,0,3.68,1.81,3.68,4.03s-1.65,4.03-3.68,4.03-3.68-1.81-3.68-4.03c0-.78.21-1.51.57-2.13l-25.06-27.44v-43.35l-32.61-35.71h-70.39l-16.77,18.36c.35.62.57,1.34.57,2.13c0,2.23-1.65,4.03-3.68,4.03s-3.68-1.8-3.68-4.03s1.65-4.03,3.68-4.03h-.01Z" fill="#089247"/><path d="M1391.29,79.6999v-48.14l20.92-22.91l1.17,1.28-20.44,22.38v47.39c1.63.41,2.85,2,2.85,3.92c0,2.23-1.65,4.03-3.68,4.03s-3.68-1.8-3.68-4.03c0-1.91,1.22-3.51,2.85-3.92h.01Z" fill="#089247"/><path d="M1405.5,52.9299c0-2.23,1.65-4.03,3.68-4.03s3.68,1.8,3.68,4.03c0,1.91-1.22,3.51-2.85,3.92v49.3201l39.47,43.22l45.57-49.8901h47.17l16.79,18.3801c.57-.39,1.23-.62,1.94-.62c2.03,0,3.68,1.8,3.68,4.03s-1.65,4.03-3.68,4.03-3.68-1.8-3.68-4.03c0-.78.21-1.51.57-2.13l-16.3-17.85h-45.8l-46.26,50.64-41.12-45.03v-50.0701c-1.63-.41-2.85-2-2.85-3.92h-.01Z" fill="#089247"/><path d="M1454.27,0l1.17,1.28-28.34,31.03v54.39l21.91,23.99l31.48-34.46h52.77l22.7-24.85c-.35-.62-.57-1.35-.57-2.13c0-2.23,1.65-4.03,3.68-4.03s3.68,1.8,3.68,4.03-1.65,4.03-3.68,4.03c-.72,0-1.38-.23-1.94-.62l-23.19,25.39h-52.77l-32.16,35.21-23.57-25.8v-55.9L1454.26,0h.01Z" fill="#089247"/><path d="M1348.75,189.65c1.75,0,3.2,1.34,3.58,3.12h16.47l19.07-20.87v-11.84c-1.63-.41-2.85-2-2.85-3.92c0-2.23,1.65-4.03,3.68-4.03s3.68,1.8,3.68,4.03c0,1.91-1.22,3.51-2.85,3.92v12.59l-20.03,21.94h-17.15c-.38,1.79-1.83,3.12-3.58,3.12-2.03,0-3.68-1.8-3.68-4.03s1.65-4.03,3.68-4.03h-.02Z" fill="#089247"/><path d="M1436.19,154.01c2.03,0,3.68,1.8,3.68,4.03c0,.78-.21,1.51-.57,2.13l14.84,16.25h36.89l7.64-8.36h10.59l11.86,12.98c.56-.39,1.23-.62,1.94-.62c2.03,0,3.68,1.8,3.68,4.03s-1.65,4.03-3.68,4.03-3.68-1.8-3.68-4.03c0-.79.21-1.51.57-2.13l-11.37-12.45h-9.22l-7.64,8.36h-38.26l-15.33-16.78c-.57.39-1.23.62-1.95.62-2.03,0-3.68-1.8-3.68-4.03s1.65-4.03,3.68-4.03h.01Z" fill="#089247"/></g><g id="eC6bGoR3neD18" transform="translate(.000001 0)" opacity="0"><path d="M838.94,162.14c1.75,0,3.2,1.34,3.58,3.12h61.47l31.22,34.18h51.98l36.15,39.57c.56-.39,1.23-.62,1.94-.62c2.03,0,3.68,1.8,3.68,4.03s-1.65,4.03-3.68,4.03-3.68-1.8-3.68-4.03c0-.78.21-1.51.57-2.13l-35.66-39.04h-51.98l-31.22-34.18h-60.79c-.38,1.79-1.83,3.12-3.58,3.12-2.03,0-3.68-1.8-3.68-4.03s1.65-4.03,3.68-4.03v.01Z" fill="#089247"/><path d="M932.11,177.29c1.75,0,3.2,1.34,3.58,3.12h54.94l30.02,32.87h53.82c.51-1.56,1.85-2.69,3.45-2.69c2.03,0,3.68,1.8,3.68,4.03s-1.65,4.03-3.68,4.03c-1.89,0-3.42-1.56-3.64-3.56h-54.32l-30.02-32.87h-54.26c-.38,1.79-1.83,3.12-3.58,3.12-2.03,0-3.68-1.8-3.68-4.03s1.65-4.03,3.68-4.03l.01.01Z" fill="#089247"/><path d="M783.77,186.3c.72,0,1.38.23,1.95.62l10.35-11.33h19.35v-22.71c-1.63-.41-2.85-2.01-2.85-3.92c0-2.23,1.65-4.03,3.68-4.03s3.68,1.8,3.68,4.03c0,1.91-1.22,3.51-2.85,3.92v24.52h-20.31l-9.86,10.8c.35.62.57,1.34.57,2.13c0,2.23-1.65,4.03-3.68,4.03s-3.68-1.8-3.68-4.03s1.65-4.03,3.68-4.03h-.03Z" fill="#089247"/><path d="M858.09,176.54c1.75,0,3.2,1.34,3.58,3.12h29.32l49.51,54.21h37.39c.37-1.79,1.83-3.12,3.58-3.12c2.03,0,3.68,1.8,3.68,4.03s-1.65,4.03-3.68,4.03c-1.75,0-3.2-1.34-3.58-3.12h-38.07l-49.51-54.21h-28.64c-.38,1.79-1.83,3.12-3.58,3.12-2.03,0-3.68-1.8-3.68-4.03s1.65-4.03,3.68-4.03Z" fill="#089247"/><path d="M1047.58,249.52c1.75,0,3.2,1.34,3.58,3.12h32.92l33.47-36.65h47.79c.5-1.58,1.85-2.71,3.46-2.71c2.03,0,3.68,1.8,3.68,4.03s-1.65,4.03-3.68,4.03c-1.88,0-3.41-1.55-3.63-3.54h-46.93l-33.47,36.65h-33.61c-.38,1.79-1.83,3.12-3.58,3.12-2.03,0-3.68-1.8-3.68-4.03s1.65-4.03,3.68-4.03v.01Z" fill="#089247"/><path d="M768.86,58.79c1.75,0,3.2,1.34,3.58,3.12h14.11l23.96,26.23h29.68v3.7c1.63.41,2.85,2.01,2.85,3.92c0,2.23-1.65,4.03-3.68,4.03s-3.68-1.8-3.68-4.03c0-1.91,1.22-3.51,2.85-3.92v-1.89h-28.71L785.86,63.72h-13.43c-.38,1.79-1.83,3.12-3.58,3.12-2.03,0-3.68-1.8-3.68-4.03s1.65-4.03,3.68-4.03l.01.01Z" fill="#089247"/></g><g id="eC6bGoR3neD25" opacity="0"><path d="M876.43,22.24l30.53,33.43h90.53l23.87,26.14h65.76l49.11-53.77h229.04c.39-1.77,1.83-3.08,3.57-3.08c2.03,0,3.68,1.8,3.68,4.03s-1.65,4.03-3.68,4.03c-1.76,0-3.23-1.36-3.59-3.17h-228.33l-49.11,53.77h-67.13L996.81,57.48h-90.53L875.75,24.05h-117.35v-1.81h118.03Z" fill="#089247"/><path d="M862.45,102.93l24.87,27.22h107.79l65.61,71.84h86.49l94.18-103.11h98.45c.38-1.79,1.83-3.12,3.58-3.12c2.03,0,3.68,1.8,3.68,4.03s-1.65,4.03-3.68,4.03c-1.75,0-3.2-1.34-3.58-3.12h-97.77l-94.18,103.11h-87.86l-65.61-71.84h-107.79l-24.87-27.22h-103.37v-1.81h104.06v-.01Z" fill="#089247"/><path d="M1201.57,188.48c0-2.23,1.65-4.03,3.68-4.03s3.68,1.8,3.68,4.03c0,1.91-1.22,3.51-2.85,3.92v27.84l18,19.71h147.33l21.4,23.43c.56-.39,1.23-.62,1.95-.62c2.03,0,3.68,1.8,3.68,4.03s-1.65,4.03-3.68,4.03-3.68-1.8-3.68-4.03c0-.78.21-1.51.56-2.13l-20.92-22.9h-147.33l-18.97-20.77v-28.59c-1.63-.41-2.85-2.01-2.85-3.92Z" fill="#089247"/><path d="M1145.16,234.46c1.75,0,3.2,1.34,3.58,3.12h29.49l9.48-10.38v-44.23l41.46-45.4h112.32c.38-1.79,1.83-3.12,3.58-3.12c2.03,0,3.68,1.8,3.68,4.03s-1.65,4.03-3.68,4.03c-1.75,0-3.2-1.34-3.58-3.12h-111.63l-40.49,44.34v44.23l-10.45,11.44h-30.18c-.38,1.79-1.83,3.12-3.58,3.12-2.03,0-3.68-1.8-3.68-4.03s1.65-4.03,3.68-4.03Z" fill="#089247"/><path d="M1096.49,122.81c1.75,0,3.2,1.34,3.58,3.12h31.9l61.68-67.53h135.72c.38-1.79,1.83-3.12,3.58-3.12c2.03,0,3.68,1.8,3.68,4.03s-1.65,4.03-3.68,4.03c-1.75,0-3.2-1.34-3.58-3.12h-135.03l-61.68,67.53h-32.58c-.38,1.79-1.83,3.12-3.58,3.12-2.03,0-3.68-1.8-3.68-4.03s1.65-4.03,3.68-4.03h-.01Z" fill="#089247"/><path d="M795.12,33.6699c2.03,0,3.68,1.8,3.68,4.03c0,.78-.21,1.51-.57,2.13l32.96,36.09h160.81l31.02,33.9601h68.97l50.06-54.8101c-.35-.62-.57-1.35-.57-2.13c0-2.23,1.65-4.03,3.68-4.03s3.68,1.8,3.68,4.03-1.65,4.03-3.68,4.03c-.72,0-1.38-.23-1.94-.62L1092.67,111.69h-70.34L991.31,77.7299h-160.81l-33.44-36.62c-.57.39-1.23.62-1.95.62-2.03,0-3.68-1.8-3.68-4.03s1.65-4.03,3.68-4.03h.01Z" fill="#089247"/><path d="M1041.8,128.68c2.03,0,3.68,1.8,3.68,4.03c0,.78-.21,1.51-.57,2.13l27.79,30.43h70.34l47.82-52.36c-.35-.62-.57-1.34-.57-2.13c0-2.23,1.65-4.03,3.68-4.03s3.68,1.8,3.68,4.03-1.65,4.03-3.68,4.03c-.72,0-1.38-.23-1.94-.62l-48.31,52.89h-71.71l-28.27-30.96c-.57.39-1.23.62-1.95.62-2.03,0-3.68-1.8-3.68-4.03s1.65-4.03,3.68-4.03h.01Z" fill="#089247"/><path d="M1034.02,58.5301h47.56l40.94-44.83-1.17-1.28-40.46,44.3h-46.19l-29.72-32.53h-91.46L896.3,5.33008l-1.17,1.28l17.7,19.39002h91.47l29.72,32.53Z" fill="#089247"/><path d="M767.53,177.45l23.08-25.27v-36.48h45.42l28.46,31.16h121.92l28.36,31.05c.56-.39,1.23-.62,1.94-.62c2.03,0,3.68,1.8,3.68,4.03s-1.65,4.03-3.68,4.03-3.68-1.8-3.68-4.03c0-.78.21-1.51.57-2.13l-27.88-30.52h-121.92l-28.46-31.16h-43.08v35.42l-24.05,26.33h-18.08v-1.81h17.4Z" fill="#089247"/><path d="M888.24,88.28c2.03,0,3.68,1.8,3.68,4.03c0,.78-.21,1.51-.57,2.13l8.95,9.8h89.6l33.15,36.29c.56-.39,1.23-.62,1.94-.62c2.03,0,3.68,1.8,3.68,4.03s-1.65,4.03-3.68,4.03-3.68-1.8-3.68-4.03c0-.78.21-1.51.57-2.13l-32.66-35.76h-89.6l-9.43-10.33c-.57.39-1.23.62-1.95.62-2.03,0-3.68-1.8-3.68-4.03s1.65-4.03,3.68-4.03Z" fill="#089247"/><path d="M1121.94,91.7301c1.75,0,3.2,1.34,3.58,3.12h11.02v-20.05l26.37-28.87h81.04c.37-1.79,1.83-3.12,3.58-3.12c2.03,0,3.68,1.8,3.68,4.03s-1.65,4.03-3.68,4.03c-1.75,0-3.2-1.34-3.58-3.12h-80.36l-25.4,27.81v21.11h-12.67c-.38,1.79-1.83,3.12-3.58,3.12-2.03,0-3.68-1.8-3.68-4.03s1.65-4.03,3.68-4.03Z" fill="#089247"/></g><g id="eC6bGoR3neD37" transform="translate(.000001 0)" opacity="0"><path d="M640.8,22.24L610.27,55.67h-90.53L495.87,81.81h-65.76L381,28.04h-229.04c-.39-1.77-1.83-3.08-3.57-3.08-2.03,0-3.68,1.8-3.68,4.03s1.65,4.03,3.68,4.03c1.76,0,3.23-1.36,3.59-3.17h228.33l49.11,53.77h67.13l23.87-26.14h90.53l30.53-33.43h117.35v-1.81h-118.03Z" fill="#2988c9"/><path d="M722.12,33.6699c-2.03,0-3.68,1.8-3.68,4.03c0,.78.21,1.51.57,2.13l-32.96,36.09h-160.81L494.22,109.88h-68.97L375.19,55.0699c.35-.62.57-1.35.57-2.13c0-2.23-1.65-4.03-3.68-4.03s-3.68,1.8-3.68,4.03s1.65,4.03,3.68,4.03c.72,0,1.38-.23,1.94-.62L424.57,111.69h70.34l31.02-33.9601h160.8l33.44-36.62c.57.39,1.23.62,1.95.62c2.03,0,3.68-1.8,3.68-4.03s-1.65-4.03-3.68-4.03Z" fill="#2988c9"/><path d="M678.3,162.14c-1.75,0-3.2,1.34-3.58,3.12h-61.47l-31.22,34.18h-51.98L493.9,239.01c-.56-.39-1.23-.62-1.94-.62-2.03,0-3.68,1.8-3.68,4.03s1.65,4.03,3.68,4.03s3.68-1.8,3.68-4.03c0-.78-.21-1.51-.57-2.13l35.66-39.04h51.98l31.22-34.18h60.79c.38,1.79,1.83,3.12,3.58,3.12c2.03,0,3.68-1.8,3.68-4.03s-1.65-4.03-3.68-4.03v.01Z" fill="#2988c9"/><path d="M475.44,128.68c-2.03,0-3.68,1.8-3.68,4.03c0,.78.21,1.51.57,2.13l-27.79,30.43h-70.34l-47.82-52.36c.35-.62.57-1.34.57-2.13c0-2.23-1.65-4.03-3.68-4.03s-3.68,1.8-3.68,4.03s1.65,4.03,3.68,4.03c.72,0,1.38-.23,1.94-.62l48.31,52.89h71.71l28.27-30.96c.57.39,1.23.62,1.95.62c2.03,0,3.68-1.8,3.68-4.03s-1.65-4.03-3.68-4.03h-.01Z" fill="#2988c9"/><path d="M483.22,58.5301h-47.56l-40.94-44.83l1.16-1.28l40.47,44.3h46.19l29.71-32.53h91.47L620.94,5.33008l1.17,1.28L604.4,26.0001h-91.46l-29.72,32.53Z" fill="#2988c9"/><path d="M372.08,234.46c-1.75,0-3.2,1.34-3.58,3.12h-29.49l-9.48-10.38v-44.23l-41.46-45.4h-112.32c-.38-1.79-1.83-3.12-3.58-3.12-2.03,0-3.68,1.8-3.68,4.03s1.65,4.03,3.68,4.03c1.75,0,3.2-1.34,3.58-3.12h111.63l40.49,44.34v44.23l10.45,11.44h30.18c.38,1.79,1.83,3.12,3.58,3.12c2.03,0,3.68-1.8,3.68-4.03s-1.65-4.03-3.68-4.03Z" fill="#2988c9"/><path d="M315.66,188.48c0-2.23-1.65-4.03-3.68-4.03s-3.68,1.8-3.68,4.03c0,1.91,1.22,3.51,2.85,3.92v27.84l-18,19.71h-147.33l-21.4,23.43c-.56-.39-1.23-.62-1.95-.62-2.03,0-3.68,1.8-3.68,4.03s1.65,4.03,3.68,4.03s3.68-1.8,3.68-4.03c0-.78-.21-1.51-.56-2.13l20.92-22.9h147.33l18.97-20.77v-28.59c1.63-.41,2.85-2.01,2.85-3.92Z" fill="#2988c9"/><path d="M654.78,102.93l-24.87,27.22h-107.79l-65.61,71.84h-86.49L275.84,98.88h-98.45c-.38-1.79-1.83-3.12-3.58-3.12-2.03,0-3.68,1.8-3.68,4.03s1.65,4.03,3.68,4.03c1.75,0,3.2-1.34,3.58-3.12h97.77l94.18,103.11h87.86l65.61-71.84h107.79l24.87-27.22h103.37v-1.81h-104.06v-.01Z" fill="#2988c9"/><path d="M420.75,122.81c-1.75,0-3.2,1.34-3.58,3.12h-31.9L323.59,58.4h-135.72c-.38-1.79-1.83-3.12-3.58-3.12-2.03,0-3.68,1.8-3.68,4.03s1.65,4.03,3.68,4.03c1.75,0,3.2-1.34,3.58-3.12h135.03l61.68,67.53h32.58c.38,1.79,1.83,3.12,3.58,3.12c2.03,0,3.68-1.8,3.68-4.03s-1.65-4.03-3.68-4.03h.01Z" fill="#2988c9"/></g><g id="eC6bGoR3neD47" transform="translate(0 0.000001)" opacity="0" paint-order="stroke fill markers"><path d="M585.12,177.29c-1.75,0-3.2,1.34-3.58,3.12h-54.94l-30.02,32.87h-53.82c-.51-1.56-1.85-2.69-3.45-2.69-2.03,0-3.68,1.8-3.68,4.03s1.65,4.03,3.68,4.03c1.89,0,3.42-1.56,3.64-3.56h54.32l30.02-32.87h54.26c.38,1.79,1.83,3.12,3.58,3.12c2.03,0,3.68-1.8,3.68-4.03s-1.65-4.03-3.68-4.03l-.01.01Z" fill="#9b773a"/><path d="M733.47,186.3c-.72,0-1.38.23-1.95.62l-10.35-11.33h-19.35v-22.71c1.63-.41,2.85-2.01,2.85-3.92c0-2.23-1.65-4.03-3.68-4.03s-3.68,1.8-3.68,4.03c0,1.91,1.22,3.51,2.85,3.92v24.52h20.31l9.86,10.8c-.35.62-.57,1.34-.57,2.13c0,2.23,1.65,4.03,3.68,4.03s3.68-1.8,3.68-4.03-1.65-4.03-3.68-4.03h.03Z" fill="#9b773a"/><path d="M659.14,176.54c-1.75,0-3.2,1.34-3.58,3.12h-29.32l-49.51,54.21h-37.39c-.37-1.79-1.83-3.12-3.58-3.12-2.03,0-3.68,1.8-3.68,4.03s1.65,4.03,3.68,4.03c1.75,0,3.2-1.34,3.58-3.12h38.07l49.51-54.21h28.64c.38,1.79,1.83,3.12,3.58,3.12c2.03,0,3.68-1.8,3.68-4.03s-1.65-4.03-3.68-4.03Z" fill="#9b773a"/><path d="M469.66,249.52c-1.75,0-3.2,1.34-3.58,3.12h-32.92l-33.47-36.65h-47.79c-.5-1.58-1.85-2.71-3.46-2.71-2.03,0-3.68,1.8-3.68,4.03s1.65,4.03,3.68,4.03c1.88,0,3.41-1.55,3.63-3.54h46.93l33.47,36.65h33.61c.38,1.79,1.83,3.12,3.58,3.12c2.03,0,3.68-1.8,3.68-4.03s-1.65-4.03-3.68-4.03v.01Z" fill="#9b773a"/><path d="M749.7,177.45l-23.08-25.27v-36.48h-45.42l-28.46,31.16h-121.92l-28.36,31.05c-.56-.39-1.23-.62-1.94-.62-2.03,0-3.68,1.8-3.68,4.03s1.65,4.03,3.68,4.03s3.68-1.8,3.68-4.03c0-.78-.21-1.51-.57-2.13l27.88-30.52h121.92l28.46-31.16h43.08v35.42l24.05,26.33h18.08v-1.81h-17.4Z" fill="#9b773a"/><path d="M629,88.28c-2.03,0-3.68,1.8-3.68,4.03c0,.78.21,1.51.57,2.13l-8.95,9.8h-89.6l-33.15,36.29c-.56-.39-1.23-.62-1.94-.62-2.03,0-3.68,1.8-3.68,4.03s1.65,4.03,3.68,4.03s3.68-1.8,3.68-4.03c0-.78-.21-1.51-.57-2.13l32.66-35.76h89.6l9.43-10.33c.57.39,1.23.62,1.95.62c2.03,0,3.68-1.8,3.68-4.03s-1.65-4.03-3.68-4.03Z" fill="#9b773a"/><path d="M395.3,91.7301c-1.75,0-3.2,1.34-3.58,3.12h-11.02v-20.05l-26.37-28.87h-81.04c-.37-1.79-1.83-3.12-3.58-3.12-2.03,0-3.68,1.8-3.68,4.03s1.65,4.03,3.68,4.03c1.75,0,3.2-1.34,3.58-3.12h80.36l25.4,27.81v21.11h12.67c.38,1.79,1.83,3.12,3.58,3.12c2.03,0,3.68-1.8,3.68-4.03s-1.65-4.03-3.68-4.03Z" fill="#9b773a"/><path d="M748.37,58.79c-1.75,0-3.2,1.34-3.58,3.12h-14.11L706.72,88.14h-29.68v3.7c-1.63.41-2.85,2.01-2.85,3.92c0,2.23,1.65,4.03,3.68,4.03s3.68-1.8,3.68-4.03c0-1.91-1.22-3.51-2.85-3.92v-1.89h28.71l23.96-26.23h13.43c.38,1.79,1.83,3.12,3.58,3.12c2.03,0,3.68-1.8,3.68-4.03s-1.65-4.03-3.68-4.03l-.01.01Z" fill="#9b773a"/><path d="M157.92,64.52c-1.75,0-3.2,1.34-3.58,3.12h-11.14v39.78L85.4999,170.6c-.56-.39-1.23-.62-1.94-.62-2.03,0-3.68,1.8-3.68,4.03s1.65,4.03,3.68,4.03s3.68-1.8,3.68-4.03c0-.78-.21-1.51-.57-2.13L144.86,108.17v-38.72h9.49c.38,1.79,1.83,3.12,3.58,3.12c2.03,0,3.68-1.8,3.68-4.03s-1.65-4.03-3.68-4.03l-.01.01Z" fill="#9b773a"/><path d="M285.92,165.61c-1.01,0-1.92.45-2.59,1.16l-13.82-15.13h-18.54l-19.6,21.46h-13.13l-13.13-14.38c.35-.62.57-1.35.57-2.13c0-2.23-1.65-4.03-3.68-4.03s-3.68,1.8-3.68,4.03s1.65,4.03,3.68,4.03c.72,0,1.38-.23,1.94-.62l13.62,14.91h14.5l19.6-21.46h17.17l13.62,14.91c-.12.4-.21.83-.21,1.28c0,2.23,1.65,4.03,3.68,4.03s3.68-1.8,3.68-4.03-1.65-4.03-3.68-4.03Z" fill="#9b773a"/><path d="M330.69,80.3801c-.72,0-1.38.23-1.95.62l-8.83-9.67h-29.68l-10.39,11.38h-80.9v-2.52c1.63-.41,2.85-2.01,2.85-3.92c0-2.23-1.65-4.03-3.68-4.03s-3.68,1.8-3.68,4.03c0,1.91,1.22,3.51,2.85,3.92v4.33h83.24l10.39-11.38h28.31l8.35,9.14c-.36.62-.57,1.34-.57,2.13c0,2.23,1.65,4.03,3.68,4.03s3.68-1.8,3.68-4.03-1.65-4.03-3.68-4.03h.01Z" fill="#9b773a"/><path d="M296.71,193.72c-2.03,0-3.68,1.8-3.68,4.03c0,.78.21,1.51.57,2.13l-21.89,23.97h-86.54c-.38-1.79-1.83-3.12-3.58-3.12-2.03,0-3.68,1.8-3.68,4.03s1.65,4.03,3.68,4.03c1.75,0,3.2-1.34,3.58-3.12h87.22l22.38-24.5c.57.39,1.23.62,1.95.62c2.03,0,3.68-1.8,3.68-4.03s-1.65-4.03-3.68-4.03l-.01-.01Z" fill="#9b773a"/><path d="M272.12,183.13c-1.63,0-3.01,1.17-3.49,2.79h-10.21l-25.05,27.43-47.59-52.11h-40.83v-24.17l11.08-12.13h74.25c.38,1.79,1.83,3.12,3.58,3.12c2.03,0,3.68-1.8,3.68-4.03s-1.65-4.03-3.68-4.03c-1.75,0-3.2,1.34-3.58,3.12h-74.93L143.3,136.31v26.73h41.8l48.28,52.86l25.73-28.18h9.38c.25,1.95,1.78,3.46,3.63,3.46c2.03,0,3.68-1.8,3.68-4.03s-1.65-4.03-3.68-4.03v.01Z" fill="#9b773a"/><path d="M168.48,189.65c-1.75,0-3.2,1.34-3.58,3.12h-16.47L129.36,171.9v-11.84c1.63-.41,2.85-2,2.85-3.92c0-2.23-1.65-4.03-3.68-4.03s-3.68,1.8-3.68,4.03c0,1.91,1.22,3.51,2.85,3.92v12.59l20.03,21.94h17.15c.38,1.79,1.83,3.12,3.58,3.12c2.03,0,3.68-1.8,3.68-4.03s-1.65-4.03-3.68-4.03h.02Z" fill="#9b773a"/><path d="M180.62,203.65c-1.75,0-3.2,1.34-3.58,3.12h-41.38l-14.14-15.48h-113.23011L-17.2401,219.24c-.56-.39-1.23-.62-1.94-.62-2.03,0-3.68,1.8-3.68,4.03s1.65,4.03,3.68,4.03s3.68-1.8,3.68-4.03c0-.78-.21-1.51-.57-2.13L8.96989,193.1h111.87011l14.14,15.48h42.06c.38,1.79,1.83,3.12,3.58,3.12c2.03,0,3.68-1.8,3.68-4.03s-1.65-4.03-3.68-4.03v.01Z" fill="#9b773a"/><path d="M91.8599,256.27c-.45,0-.87.1-1.26.26l-13.32-14.59h-43.59c-.38-1.79-1.83-3.12-3.58-3.12-2.03,0-3.68,1.8-3.68,4.03s1.65,4.03,3.68,4.03c1.75,0,3.2-1.34,3.58-3.12h42.91l12.6,13.79c-.62.72-1.01,1.69-1.01,2.76c0,2.23,1.65,4.03,3.68,4.03s3.68-1.8,3.68-4.03-1.65-4.03-3.68-4.03l-.01-.01Z" fill="#9b773a"/><path d="M115.62,234.67c-.72,0-1.38.23-1.95.62L96.4199,216.4h-71.76L-8.92012,253.17v43.35L-33.5001,323.43c-.56-.39-1.23-.62-1.94-.62-2.03,0-3.68,1.81-3.68,4.03s1.65,4.03,3.68,4.03s3.68-1.81,3.68-4.03c0-.78-.21-1.51-.57-2.13l25.05999-27.44v-43.35L25.3399,218.21h70.39L112.5,236.57c-.35.62-.57,1.34-.57,2.13c0,2.23,1.65,4.03,3.68,4.03s3.68-1.8,3.68-4.03-1.65-4.03-3.68-4.03h.01Z" fill="#9b773a"/><path d="M125.95,79.6999v-48.14l-20.92-22.91-1.17,1.28l20.44,22.38v47.39c-1.63.41-2.85,2-2.85,3.92c0,2.23,1.65,4.03,3.68,4.03s3.68-1.8,3.68-4.03c0-1.91-1.22-3.51-2.85-3.92h-.01Z" fill="#9b773a"/><path d="M62.6101,22.24v41.37h-18.38l-23.8-26.06h-43.83c-.37-1.79-1.83-3.12-3.58-3.12-2.03,0-3.68,1.8-3.68,4.03s1.65,4.03,3.68,4.03c1.75,0,3.2-1.34,3.58-3.12h43.15l23.8,26.06h20.72v-43.19h-1.65-.01Z" fill="#9b773a"/><path d="M111.74,52.9299c0-2.23-1.65-4.03-3.68-4.03s-3.68,1.8-3.68,4.03c0,1.91,1.22,3.51,2.85,3.92v49.3201L67.7601,149.39l-45.57-49.8901h-47.17l-16.79,18.3801c-.57-.39-1.23-.62-1.94-.62-2.03,0-3.68,1.8-3.68,4.03s1.65,4.03,3.68,4.03s3.68-1.8,3.68-4.03c0-.78-.21-1.51-.57-2.13l16.3-17.85h45.8l46.26,50.64L108.88,106.92v-50.0701c1.63-.41,2.85-2,2.85-3.92h.01Z" fill="#9b773a"/><path d="M62.97,0L61.8,1.28L90.14,32.31v54.39L68.23,110.69L36.75,76.23h-52.77l-22.7-24.85c.35-.62.57-1.35.57-2.13c0-2.23-1.65-4.03-3.68-4.03s-3.68,1.8-3.68,4.03s1.65,4.03,3.68,4.03c.71,0,1.38-.23,1.94-.62L-16.7,78.05h52.77l32.16,35.21L91.8,87.46v-55.9L62.97,0Z" fill="#9b773a"/><path d="M50.19,148.08c-1.75,0-3.2,1.34-3.58,3.12h-41.56l-47.7,52.23v80.91c-1.63.41-2.85,2-2.85,3.92c0,2.23,1.65,4.03,3.68,4.03s3.68-1.8,3.68-4.03c0-1.91-1.22-3.51-2.85-3.92v-80.15L5.74,153.02h40.88c.38,1.79,1.83,3.12,3.58,3.12c2.03,0,3.68-1.8,3.68-4.03s-1.65-4.03-3.68-4.03h-.01Z" fill="#9b773a"/><path d="M15.5899,133.37c-1.75,0-3.2,1.34-3.58,3.12h-34.6l-34.58,37.86v-165.80996h-1.65v170.18996l36.92-40.42h33.92c.38,1.79,1.83,3.12,3.58,3.12c2.03,0,3.68-1.8,3.68-4.03s-1.65-4.03-3.68-4.03h-.01Z" fill="#9b773a"/><path d="M47.0499,4.46997v29.84003h-10.29l-11.85-12.97h-68.72c-.38-1.79-1.83-3.12-3.58-3.12-2.03,0-3.68,1.8-3.68,4.03s1.65,4.03,3.68,4.03c1.75,0,3.2-1.34,3.58-3.12h68.04l11.85,12.97h12.63v-31.66003h-1.65-.01Z" fill="#9b773a"/><path d="M73.49,120.2c-1.75,0-3.2,1.34-3.58,3.12h-6.05L30.44,86.7301h-68.69c-.37-1.79-1.83-3.12-3.58-3.12-2.03,0-3.68,1.8-3.68,4.03s1.65,4.03,3.68,4.03c1.75,0,3.2-1.34,3.58-3.12h68.01L63.18,125.14h6.74c.38,1.79,1.83,3.12,3.58,3.12c2.03,0,3.68-1.8,3.68-4.03s-1.65-4.03-3.68-4.03h-.01Z" fill="#9b773a"/><path d="M81.05,154.01c-2.03,0-3.68,1.8-3.68,4.03c0,.78.21,1.51.57,2.13L63.1,176.42h-36.89l-7.64-8.36h-10.59L-3.88,181.04c-.56-.39-1.23-.62-1.94-.62-2.03,0-3.68,1.8-3.68,4.03s1.65,4.03,3.68,4.03s3.68-1.8,3.68-4.03c0-.79-.21-1.51-.57-2.13L8.66,169.87h9.22l7.64,8.36h38.26l15.33-16.78c.57.39,1.23.62,1.95.62c2.03,0,3.68-1.8,3.68-4.03s-1.65-4.03-3.68-4.03h-.01Z" fill="#9b773a"/></g></g><g filter="url(#eC6bGoR3neD74-filter)"><g transform="translate(0 0.000001)" opacity="0.25"><path d="M1359.32,64.52c1.75,0,3.2,1.34,3.58,3.12h11.14v39.78l57.7,63.18c.56-.39,1.23-.62,1.94-.62c2.03,0,3.68,1.8,3.68,4.03s-1.65,4.03-3.68,4.03-3.68-1.8-3.68-4.03c0-.78.21-1.51.57-2.13l-58.19-63.71v-38.72h-9.49c-.38,1.79-1.83,3.12-3.58,3.12-2.03,0-3.68-1.8-3.68-4.03s1.65-4.03,3.68-4.03l.01.01Z" fill="#089247"/><path d="M1231.32,165.61c1.01,0,1.92.45,2.59,1.16l13.82-15.13h18.54l19.6,21.46h13.13l13.13-14.38c-.35-.62-.57-1.35-.57-2.13c0-2.23,1.65-4.03,3.68-4.03s3.68,1.8,3.68,4.03-1.65,4.03-3.68,4.03c-.72,0-1.38-.23-1.94-.62l-13.62,14.91h-14.5l-19.6-21.46h-17.17l-13.62,14.91c.12.4.21.83.21,1.28c0,2.23-1.65,4.03-3.68,4.03s-3.68-1.8-3.68-4.03s1.65-4.03,3.68-4.03Z" fill="#089247"/><path d="M1186.55,80.3801c.72,0,1.38.23,1.95.62l8.83-9.67h29.68l10.39,11.38h80.9v-2.52c-1.63-.41-2.85-2.01-2.85-3.92c0-2.23,1.65-4.03,3.68-4.03s3.68,1.8,3.68,4.03c0,1.91-1.22,3.51-2.85,3.92v4.33h-83.24l-10.39-11.38h-28.31l-8.35,9.14c.36.62.57,1.34.57,2.13c0,2.23-1.65,4.03-3.68,4.03s-3.68-1.8-3.68-4.03s1.65-4.03,3.68-4.03h-.01Z" fill="#089247"/><path d="M1220.53,193.72c2.03,0,3.68,1.8,3.68,4.03c0,.78-.21,1.51-.57,2.13l21.89,23.97h86.54c.38-1.79,1.83-3.12,3.58-3.12c2.03,0,3.68,1.8,3.68,4.03s-1.65,4.03-3.68,4.03c-1.75,0-3.2-1.34-3.58-3.12h-87.22l-22.38-24.5c-.57.39-1.23.62-1.95.62-2.03,0-3.68-1.8-3.68-4.03s1.65-4.03,3.68-4.03l.01-.01Z" fill="#089247"/><path d="M1245.12,183.13c1.63,0,3.01,1.17,3.49,2.79h10.21l25.05,27.43l47.59-52.11h40.83v-24.17l-11.08-12.13h-74.25c-.38,1.79-1.83,3.12-3.58,3.12-2.03,0-3.68-1.8-3.68-4.03s1.65-4.03,3.68-4.03c1.75,0,3.2,1.34,3.58,3.12h74.93l12.05,13.19v26.73h-41.8l-48.28,52.86-25.73-28.18h-9.38c-.25,1.95-1.78,3.46-3.63,3.46-2.03,0-3.68-1.8-3.68-4.03s1.65-4.03,3.68-4.03v.01Z" fill="#089247"/><path d="M1336.62,203.65c1.75,0,3.2,1.34,3.58,3.12h41.38l14.14-15.48h113.23l25.53,27.95c.56-.39,1.23-.62,1.94-.62c2.03,0,3.68,1.8,3.68,4.03s-1.65,4.03-3.68,4.03-3.68-1.8-3.68-4.03c0-.78.21-1.51.57-2.13l-25.04-27.42h-111.87l-14.14,15.48h-42.06c-.38,1.79-1.83,3.12-3.58,3.12-2.03,0-3.68-1.8-3.68-4.03s1.65-4.03,3.68-4.03v.01Z" fill="#089247"/><path d="M1425.38,256.27c.45,0,.87.1,1.26.26l13.32-14.59h43.59c.38-1.79,1.83-3.12,3.58-3.12c2.03,0,3.68,1.8,3.68,4.03s-1.65,4.03-3.68,4.03c-1.75,0-3.2-1.34-3.58-3.12h-42.91l-12.6,13.79c.62.72,1.01,1.69,1.01,2.76c0,2.23-1.65,4.03-3.68,4.03s-3.68-1.8-3.68-4.03s1.65-4.03,3.68-4.03l.01-.01Z" fill="#089247"/><path d="M1401.62,234.67c.72,0,1.38.23,1.95.62l17.25-18.89h71.76l33.58,36.77v43.35l24.58,26.91c.56-.39,1.23-.62,1.94-.62c2.03,0,3.68,1.81,3.68,4.03s-1.65,4.03-3.68,4.03-3.68-1.81-3.68-4.03c0-.78.21-1.51.57-2.13l-25.06-27.44v-43.35l-32.61-35.71h-70.39l-16.77,18.36c.35.62.57,1.34.57,2.13c0,2.23-1.65,4.03-3.68,4.03s-3.68-1.8-3.68-4.03s1.65-4.03,3.68-4.03h-.01Z" fill="#089247"/><path d="M1391.29,79.6999v-48.14l20.92-22.91l1.17,1.28-20.44,22.38v47.39c1.63.41,2.85,2,2.85,3.92c0,2.23-1.65,4.03-3.68,4.03s-3.68-1.8-3.68-4.03c0-1.91,1.22-3.51,2.85-3.92h.01Z" fill="#089247"/><path d="M1405.5,52.9299c0-2.23,1.65-4.03,3.68-4.03s3.68,1.8,3.68,4.03c0,1.91-1.22,3.51-2.85,3.92v49.3201l39.47,43.22l45.57-49.8901h47.17l16.79,18.3801c.57-.39,1.23-.62,1.94-.62c2.03,0,3.68,1.8,3.68,4.03s-1.65,4.03-3.68,4.03-3.68-1.8-3.68-4.03c0-.78.21-1.51.57-2.13l-16.3-17.85h-45.8l-46.26,50.64-41.12-45.03v-50.0701c-1.63-.41-2.85-2-2.85-3.92h-.01Z" fill="#089247"/><path d="M1454.27,0l1.17,1.28-28.34,31.03v54.39l21.91,23.99l31.48-34.46h52.77l22.7-24.85c-.35-.62-.57-1.35-.57-2.13c0-2.23,1.65-4.03,3.68-4.03s3.68,1.8,3.68,4.03-1.65,4.03-3.68,4.03c-.72,0-1.38-.23-1.94-.62l-23.19,25.39h-52.77l-32.16,35.21-23.57-25.8v-55.9L1454.26,0h.01Z" fill="#089247"/><path d="M1348.75,189.65c1.75,0,3.2,1.34,3.58,3.12h16.47l19.07-20.87v-11.84c-1.63-.41-2.85-2-2.85-3.92c0-2.23,1.65-4.03,3.68-4.03s3.68,1.8,3.68,4.03c0,1.91-1.22,3.51-2.85,3.92v12.59l-20.03,21.94h-17.15c-.38,1.79-1.83,3.12-3.58,3.12-2.03,0-3.68-1.8-3.68-4.03s1.65-4.03,3.68-4.03h-.02Z" fill="#089247"/><path d="M1436.19,154.01c2.03,0,3.68,1.8,3.68,4.03c0,.78-.21,1.51-.57,2.13l14.84,16.25h36.89l7.64-8.36h10.59l11.86,12.98c.56-.39,1.23-.62,1.94-.62c2.03,0,3.68,1.8,3.68,4.03s-1.65,4.03-3.68,4.03-3.68-1.8-3.68-4.03c0-.79.21-1.51.57-2.13l-11.37-12.45h-9.22l-7.64,8.36h-38.26l-15.33-16.78c-.57.39-1.23.62-1.95.62-2.03,0-3.68-1.8-3.68-4.03s1.65-4.03,3.68-4.03h.01Z" fill="#089247"/></g><g transform="translate(.000001 0)" opacity="0.25"><path d="M838.94,162.14c1.75,0,3.2,1.34,3.58,3.12h61.47l31.22,34.18h51.98l36.15,39.57c.56-.39,1.23-.62,1.94-.62c2.03,0,3.68,1.8,3.68,4.03s-1.65,4.03-3.68,4.03-3.68-1.8-3.68-4.03c0-.78.21-1.51.57-2.13l-35.66-39.04h-51.98l-31.22-34.18h-60.79c-.38,1.79-1.83,3.12-3.58,3.12-2.03,0-3.68-1.8-3.68-4.03s1.65-4.03,3.68-4.03v.01Z" fill="#089247"/><path d="M932.11,177.29c1.75,0,3.2,1.34,3.58,3.12h54.94l30.02,32.87h53.82c.51-1.56,1.85-2.69,3.45-2.69c2.03,0,3.68,1.8,3.68,4.03s-1.65,4.03-3.68,4.03c-1.89,0-3.42-1.56-3.64-3.56h-54.32l-30.02-32.87h-54.26c-.38,1.79-1.83,3.12-3.58,3.12-2.03,0-3.68-1.8-3.68-4.03s1.65-4.03,3.68-4.03l.01.01Z" fill="#089247"/><path d="M783.77,186.3c.72,0,1.38.23,1.95.62l10.35-11.33h19.35v-22.71c-1.63-.41-2.85-2.01-2.85-3.92c0-2.23,1.65-4.03,3.68-4.03s3.68,1.8,3.68,4.03c0,1.91-1.22,3.51-2.85,3.92v24.52h-20.31l-9.86,10.8c.35.62.57,1.34.57,2.13c0,2.23-1.65,4.03-3.68,4.03s-3.68-1.8-3.68-4.03s1.65-4.03,3.68-4.03h-.03Z" fill="#089247"/><path d="M858.09,176.54c1.75,0,3.2,1.34,3.58,3.12h29.32l49.51,54.21h37.39c.37-1.79,1.83-3.12,3.58-3.12c2.03,0,3.68,1.8,3.68,4.03s-1.65,4.03-3.68,4.03c-1.75,0-3.2-1.34-3.58-3.12h-38.07l-49.51-54.21h-28.64c-.38,1.79-1.83,3.12-3.58,3.12-2.03,0-3.68-1.8-3.68-4.03s1.65-4.03,3.68-4.03Z" fill="#089247"/><path d="M1047.58,249.52c1.75,0,3.2,1.34,3.58,3.12h32.92l33.47-36.65h47.79c.5-1.58,1.85-2.71,3.46-2.71c2.03,0,3.68,1.8,3.68,4.03s-1.65,4.03-3.68,4.03c-1.88,0-3.41-1.55-3.63-3.54h-46.93l-33.47,36.65h-33.61c-.38,1.79-1.83,3.12-3.58,3.12-2.03,0-3.68-1.8-3.68-4.03s1.65-4.03,3.68-4.03v.01Z" fill="#089247"/><path d="M768.86,58.79c1.75,0,3.2,1.34,3.58,3.12h14.11l23.96,26.23h29.68v3.7c1.63.41,2.85,2.01,2.85,3.92c0,2.23-1.65,4.03-3.68,4.03s-3.68-1.8-3.68-4.03c0-1.91,1.22-3.51,2.85-3.92v-1.89h-28.71L785.86,63.72h-13.43c-.38,1.79-1.83,3.12-3.58,3.12-2.03,0-3.68-1.8-3.68-4.03s1.65-4.03,3.68-4.03l.01.01Z" fill="#089247"/></g><g opacity="0.25"><path d="M876.43,22.24l30.53,33.43h90.53l23.87,26.14h65.76l49.11-53.77h229.04c.39-1.77,1.83-3.08,3.57-3.08c2.03,0,3.68,1.8,3.68,4.03s-1.65,4.03-3.68,4.03c-1.76,0-3.23-1.36-3.59-3.17h-228.33l-49.11,53.77h-67.13L996.81,57.48h-90.53L875.75,24.05h-117.35v-1.81h118.03Z" fill="#089247"/><path d="M862.45,102.93l24.87,27.22h107.79l65.61,71.84h86.49l94.18-103.11h98.45c.38-1.79,1.83-3.12,3.58-3.12c2.03,0,3.68,1.8,3.68,4.03s-1.65,4.03-3.68,4.03c-1.75,0-3.2-1.34-3.58-3.12h-97.77l-94.18,103.11h-87.86l-65.61-71.84h-107.79l-24.87-27.22h-103.37v-1.81h104.06v-.01Z" fill="#089247"/><path d="M1201.57,188.48c0-2.23,1.65-4.03,3.68-4.03s3.68,1.8,3.68,4.03c0,1.91-1.22,3.51-2.85,3.92v27.84l18,19.71h147.33l21.4,23.43c.56-.39,1.23-.62,1.95-.62c2.03,0,3.68,1.8,3.68,4.03s-1.65,4.03-3.68,4.03-3.68-1.8-3.68-4.03c0-.78.21-1.51.56-2.13l-20.92-22.9h-147.33l-18.97-20.77v-28.59c-1.63-.41-2.85-2.01-2.85-3.92Z" fill="#089247"/><path d="M1145.16,234.46c1.75,0,3.2,1.34,3.58,3.12h29.49l9.48-10.38v-44.23l41.46-45.4h112.32c.38-1.79,1.83-3.12,3.58-3.12c2.03,0,3.68,1.8,3.68,4.03s-1.65,4.03-3.68,4.03c-1.75,0-3.2-1.34-3.58-3.12h-111.63l-40.49,44.34v44.23l-10.45,11.44h-30.18c-.38,1.79-1.83,3.12-3.58,3.12-2.03,0-3.68-1.8-3.68-4.03s1.65-4.03,3.68-4.03Z" fill="#089247"/><path d="M1096.49,122.81c1.75,0,3.2,1.34,3.58,3.12h31.9l61.68-67.53h135.72c.38-1.79,1.83-3.12,3.58-3.12c2.03,0,3.68,1.8,3.68,4.03s-1.65,4.03-3.68,4.03c-1.75,0-3.2-1.34-3.58-3.12h-135.03l-61.68,67.53h-32.58c-.38,1.79-1.83,3.12-3.58,3.12-2.03,0-3.68-1.8-3.68-4.03s1.65-4.03,3.68-4.03h-.01Z" fill="#089247"/><path d="M795.12,33.6699c2.03,0,3.68,1.8,3.68,4.03c0,.78-.21,1.51-.57,2.13l32.96,36.09h160.81l31.02,33.9601h68.97l50.06-54.8101c-.35-.62-.57-1.35-.57-2.13c0-2.23,1.65-4.03,3.68-4.03s3.68,1.8,3.68,4.03-1.65,4.03-3.68,4.03c-.72,0-1.38-.23-1.94-.62L1092.67,111.69h-70.34L991.31,77.7299h-160.81l-33.44-36.62c-.57.39-1.23.62-1.95.62-2.03,0-3.68-1.8-3.68-4.03s1.65-4.03,3.68-4.03h.01Z" fill="#089247"/><path d="M1041.8,128.68c2.03,0,3.68,1.8,3.68,4.03c0,.78-.21,1.51-.57,2.13l27.79,30.43h70.34l47.82-52.36c-.35-.62-.57-1.34-.57-2.13c0-2.23,1.65-4.03,3.68-4.03s3.68,1.8,3.68,4.03-1.65,4.03-3.68,4.03c-.72,0-1.38-.23-1.94-.62l-48.31,52.89h-71.71l-28.27-30.96c-.57.39-1.23.62-1.95.62-2.03,0-3.68-1.8-3.68-4.03s1.65-4.03,3.68-4.03h.01Z" fill="#089247"/><path d="M1034.02,58.5301h47.56l40.94-44.83-1.17-1.28-40.46,44.3h-46.19l-29.72-32.53h-91.46L896.3,5.33008l-1.17,1.28l17.7,19.39002h91.47l29.72,32.53Z" fill="#089247"/><path d="M767.53,177.45l23.08-25.27v-36.48h45.42l28.46,31.16h121.92l28.36,31.05c.56-.39,1.23-.62,1.94-.62c2.03,0,3.68,1.8,3.68,4.03s-1.65,4.03-3.68,4.03-3.68-1.8-3.68-4.03c0-.78.21-1.51.57-2.13l-27.88-30.52h-121.92l-28.46-31.16h-43.08v35.42l-24.05,26.33h-18.08v-1.81h17.4Z" fill="#089247"/><path d="M888.24,88.28c2.03,0,3.68,1.8,3.68,4.03c0,.78-.21,1.51-.57,2.13l8.95,9.8h89.6l33.15,36.29c.56-.39,1.23-.62,1.94-.62c2.03,0,3.68,1.8,3.68,4.03s-1.65,4.03-3.68,4.03-3.68-1.8-3.68-4.03c0-.78.21-1.51.57-2.13l-32.66-35.76h-89.6l-9.43-10.33c-.57.39-1.23.62-1.95.62-2.03,0-3.68-1.8-3.68-4.03s1.65-4.03,3.68-4.03Z" fill="#089247"/><path d="M1121.94,91.7301c1.75,0,3.2,1.34,3.58,3.12h11.02v-20.05l26.37-28.87h81.04c.37-1.79,1.83-3.12,3.58-3.12c2.03,0,3.68,1.8,3.68,4.03s-1.65,4.03-3.68,4.03c-1.75,0-3.2-1.34-3.58-3.12h-80.36l-25.4,27.81v21.11h-12.67c-.38,1.79-1.83,3.12-3.58,3.12-2.03,0-3.68-1.8-3.68-4.03s1.65-4.03,3.68-4.03Z" fill="#089247"/></g><g transform="translate(.000001 0)" opacity="0.25"><path d="M640.8,22.24L610.27,55.67h-90.53L495.87,81.81h-65.76L381,28.04h-229.04c-.39-1.77-1.83-3.08-3.57-3.08-2.03,0-3.68,1.8-3.68,4.03s1.65,4.03,3.68,4.03c1.76,0,3.23-1.36,3.59-3.17h228.33l49.11,53.77h67.13l23.87-26.14h90.53l30.53-33.43h117.35v-1.81h-118.03Z" fill="#2988c9"/><path d="M722.12,33.6699c-2.03,0-3.68,1.8-3.68,4.03c0,.78.21,1.51.57,2.13l-32.96,36.09h-160.81L494.22,109.88h-68.97L375.19,55.0699c.35-.62.57-1.35.57-2.13c0-2.23-1.65-4.03-3.68-4.03s-3.68,1.8-3.68,4.03s1.65,4.03,3.68,4.03c.72,0,1.38-.23,1.94-.62L424.57,111.69h70.34l31.02-33.9601h160.8l33.44-36.62c.57.39,1.23.62,1.95.62c2.03,0,3.68-1.8,3.68-4.03s-1.65-4.03-3.68-4.03Z" fill="#2988c9"/><path d="M678.3,162.14c-1.75,0-3.2,1.34-3.58,3.12h-61.47l-31.22,34.18h-51.98L493.9,239.01c-.56-.39-1.23-.62-1.94-.62-2.03,0-3.68,1.8-3.68,4.03s1.65,4.03,3.68,4.03s3.68-1.8,3.68-4.03c0-.78-.21-1.51-.57-2.13l35.66-39.04h51.98l31.22-34.18h60.79c.38,1.79,1.83,3.12,3.58,3.12c2.03,0,3.68-1.8,3.68-4.03s-1.65-4.03-3.68-4.03v.01Z" fill="#2988c9"/><path d="M475.44,128.68c-2.03,0-3.68,1.8-3.68,4.03c0,.78.21,1.51.57,2.13l-27.79,30.43h-70.34l-47.82-52.36c.35-.62.57-1.34.57-2.13c0-2.23-1.65-4.03-3.68-4.03s-3.68,1.8-3.68,4.03s1.65,4.03,3.68,4.03c.72,0,1.38-.23,1.94-.62l48.31,52.89h71.71l28.27-30.96c.57.39,1.23.62,1.95.62c2.03,0,3.68-1.8,3.68-4.03s-1.65-4.03-3.68-4.03h-.01Z" fill="#2988c9"/><path d="M483.22,58.5301h-47.56l-40.94-44.83l1.16-1.28l40.47,44.3h46.19l29.71-32.53h91.47L620.94,5.33008l1.17,1.28L604.4,26.0001h-91.46l-29.72,32.53Z" fill="#2988c9"/><path d="M372.08,234.46c-1.75,0-3.2,1.34-3.58,3.12h-29.49l-9.48-10.38v-44.23l-41.46-45.4h-112.32c-.38-1.79-1.83-3.12-3.58-3.12-2.03,0-3.68,1.8-3.68,4.03s1.65,4.03,3.68,4.03c1.75,0,3.2-1.34,3.58-3.12h111.63l40.49,44.34v44.23l10.45,11.44h30.18c.38,1.79,1.83,3.12,3.58,3.12c2.03,0,3.68-1.8,3.68-4.03s-1.65-4.03-3.68-4.03Z" fill="#2988c9"/><path d="M315.66,188.48c0-2.23-1.65-4.03-3.68-4.03s-3.68,1.8-3.68,4.03c0,1.91,1.22,3.51,2.85,3.92v27.84l-18,19.71h-147.33l-21.4,23.43c-.56-.39-1.23-.62-1.95-.62-2.03,0-3.68,1.8-3.68,4.03s1.65,4.03,3.68,4.03s3.68-1.8,3.68-4.03c0-.78-.21-1.51-.56-2.13l20.92-22.9h147.33l18.97-20.77v-28.59c1.63-.41,2.85-2.01,2.85-3.92Z" fill="#2988c9"/><path d="M654.78,102.93l-24.87,27.22h-107.79l-65.61,71.84h-86.49L275.84,98.88h-98.45c-.38-1.79-1.83-3.12-3.58-3.12-2.03,0-3.68,1.8-3.68,4.03s1.65,4.03,3.68,4.03c1.75,0,3.2-1.34,3.58-3.12h97.77l94.18,103.11h87.86l65.61-71.84h107.79l24.87-27.22h103.37v-1.81h-104.06v-.01Z" fill="#2988c9"/><path d="M420.75,122.81c-1.75,0-3.2,1.34-3.58,3.12h-31.9L323.59,58.4h-135.72c-.38-1.79-1.83-3.12-3.58-3.12-2.03,0-3.68,1.8-3.68,4.03s1.65,4.03,3.68,4.03c1.75,0,3.2-1.34,3.58-3.12h135.03l61.68,67.53h32.58c.38,1.79,1.83,3.12,3.58,3.12c2.03,0,3.68-1.8,3.68-4.03s-1.65-4.03-3.68-4.03h.01Z" fill="#2988c9"/></g><g transform="translate(0 0.000001)" opacity="0.25" paint-order="stroke fill markers"><path d="M585.12,177.29c-1.75,0-3.2,1.34-3.58,3.12h-54.94l-30.02,32.87h-53.82c-.51-1.56-1.85-2.69-3.45-2.69-2.03,0-3.68,1.8-3.68,4.03s1.65,4.03,3.68,4.03c1.89,0,3.42-1.56,3.64-3.56h54.32l30.02-32.87h54.26c.38,1.79,1.83,3.12,3.58,3.12c2.03,0,3.68-1.8,3.68-4.03s-1.65-4.03-3.68-4.03l-.01.01Z" fill="#9b773a"/><path d="M733.47,186.3c-.72,0-1.38.23-1.95.62l-10.35-11.33h-19.35v-22.71c1.63-.41,2.85-2.01,2.85-3.92c0-2.23-1.65-4.03-3.68-4.03s-3.68,1.8-3.68,4.03c0,1.91,1.22,3.51,2.85,3.92v24.52h20.31l9.86,10.8c-.35.62-.57,1.34-.57,2.13c0,2.23,1.65,4.03,3.68,4.03s3.68-1.8,3.68-4.03-1.65-4.03-3.68-4.03h.03Z" fill="#9b773a"/><path d="M659.14,176.54c-1.75,0-3.2,1.34-3.58,3.12h-29.32l-49.51,54.21h-37.39c-.37-1.79-1.83-3.12-3.58-3.12-2.03,0-3.68,1.8-3.68,4.03s1.65,4.03,3.68,4.03c1.75,0,3.2-1.34,3.58-3.12h38.07l49.51-54.21h28.64c.38,1.79,1.83,3.12,3.58,3.12c2.03,0,3.68-1.8,3.68-4.03s-1.65-4.03-3.68-4.03Z" fill="#9b773a"/><path d="M469.66,249.52c-1.75,0-3.2,1.34-3.58,3.12h-32.92l-33.47-36.65h-47.79c-.5-1.58-1.85-2.71-3.46-2.71-2.03,0-3.68,1.8-3.68,4.03s1.65,4.03,3.68,4.03c1.88,0,3.41-1.55,3.63-3.54h46.93l33.47,36.65h33.61c.38,1.79,1.83,3.12,3.58,3.12c2.03,0,3.68-1.8,3.68-4.03s-1.65-4.03-3.68-4.03v.01Z" fill="#9b773a"/><path d="M749.7,177.45l-23.08-25.27v-36.48h-45.42l-28.46,31.16h-121.92l-28.36,31.05c-.56-.39-1.23-.62-1.94-.62-2.03,0-3.68,1.8-3.68,4.03s1.65,4.03,3.68,4.03s3.68-1.8,3.68-4.03c0-.78-.21-1.51-.57-2.13l27.88-30.52h121.92l28.46-31.16h43.08v35.42l24.05,26.33h18.08v-1.81h-17.4Z" fill="#9b773a"/><path d="M629,88.28c-2.03,0-3.68,1.8-3.68,4.03c0,.78.21,1.51.57,2.13l-8.95,9.8h-89.6l-33.15,36.29c-.56-.39-1.23-.62-1.94-.62-2.03,0-3.68,1.8-3.68,4.03s1.65,4.03,3.68,4.03s3.68-1.8,3.68-4.03c0-.78-.21-1.51-.57-2.13l32.66-35.76h89.6l9.43-10.33c.57.39,1.23.62,1.95.62c2.03,0,3.68-1.8,3.68-4.03s-1.65-4.03-3.68-4.03Z" fill="#9b773a"/><path d="M395.3,91.7301c-1.75,0-3.2,1.34-3.58,3.12h-11.02v-20.05l-26.37-28.87h-81.04c-.37-1.79-1.83-3.12-3.58-3.12-2.03,0-3.68,1.8-3.68,4.03s1.65,4.03,3.68,4.03c1.75,0,3.2-1.34,3.58-3.12h80.36l25.4,27.81v21.11h12.67c.38,1.79,1.83,3.12,3.58,3.12c2.03,0,3.68-1.8,3.68-4.03s-1.65-4.03-3.68-4.03Z" fill="#9b773a"/><path d="M748.37,58.79c-1.75,0-3.2,1.34-3.58,3.12h-14.11L706.72,88.14h-29.68v3.7c-1.63.41-2.85,2.01-2.85,3.92c0,2.23,1.65,4.03,3.68,4.03s3.68-1.8,3.68-4.03c0-1.91-1.22-3.51-2.85-3.92v-1.89h28.71l23.96-26.23h13.43c.38,1.79,1.83,3.12,3.58,3.12c2.03,0,3.68-1.8,3.68-4.03s-1.65-4.03-3.68-4.03l-.01.01Z" fill="#9b773a"/><path d="M157.92,64.52c-1.75,0-3.2,1.34-3.58,3.12h-11.14v39.78L85.4999,170.6c-.56-.39-1.23-.62-1.94-.62-2.03,0-3.68,1.8-3.68,4.03s1.65,4.03,3.68,4.03s3.68-1.8,3.68-4.03c0-.78-.21-1.51-.57-2.13L144.86,108.17v-38.72h9.49c.38,1.79,1.83,3.12,3.58,3.12c2.03,0,3.68-1.8,3.68-4.03s-1.65-4.03-3.68-4.03l-.01.01Z" fill="#9b773a"/><path d="M285.92,165.61c-1.01,0-1.92.45-2.59,1.16l-13.82-15.13h-18.54l-19.6,21.46h-13.13l-13.13-14.38c.35-.62.57-1.35.57-2.13c0-2.23-1.65-4.03-3.68-4.03s-3.68,1.8-3.68,4.03s1.65,4.03,3.68,4.03c.72,0,1.38-.23,1.94-.62l13.62,14.91h14.5l19.6-21.46h17.17l13.62,14.91c-.12.4-.21.83-.21,1.28c0,2.23,1.65,4.03,3.68,4.03s3.68-1.8,3.68-4.03-1.65-4.03-3.68-4.03Z" fill="#9b773a"/><path d="M330.69,80.3801c-.72,0-1.38.23-1.95.62l-8.83-9.67h-29.68l-10.39,11.38h-80.9v-2.52c1.63-.41,2.85-2.01,2.85-3.92c0-2.23-1.65-4.03-3.68-4.03s-3.68,1.8-3.68,4.03c0,1.91,1.22,3.51,2.85,3.92v4.33h83.24l10.39-11.38h28.31l8.35,9.14c-.36.62-.57,1.34-.57,2.13c0,2.23,1.65,4.03,3.68,4.03s3.68-1.8,3.68-4.03-1.65-4.03-3.68-4.03h.01Z" fill="#9b773a"/><path d="M296.71,193.72c-2.03,0-3.68,1.8-3.68,4.03c0,.78.21,1.51.57,2.13l-21.89,23.97h-86.54c-.38-1.79-1.83-3.12-3.58-3.12-2.03,0-3.68,1.8-3.68,4.03s1.65,4.03,3.68,4.03c1.75,0,3.2-1.34,3.58-3.12h87.22l22.38-24.5c.57.39,1.23.62,1.95.62c2.03,0,3.68-1.8,3.68-4.03s-1.65-4.03-3.68-4.03l-.01-.01Z" fill="#9b773a"/><path d="M272.12,183.13c-1.63,0-3.01,1.17-3.49,2.79h-10.21l-25.05,27.43-47.59-52.11h-40.83v-24.17l11.08-12.13h74.25c.38,1.79,1.83,3.12,3.58,3.12c2.03,0,3.68-1.8,3.68-4.03s-1.65-4.03-3.68-4.03c-1.75,0-3.2,1.34-3.58,3.12h-74.93L143.3,136.31v26.73h41.8l48.28,52.86l25.73-28.18h9.38c.25,1.95,1.78,3.46,3.63,3.46c2.03,0,3.68-1.8,3.68-4.03s-1.65-4.03-3.68-4.03v.01Z" fill="#9b773a"/><path d="M168.48,189.65c-1.75,0-3.2,1.34-3.58,3.12h-16.47L129.36,171.9v-11.84c1.63-.41,2.85-2,2.85-3.92c0-2.23-1.65-4.03-3.68-4.03s-3.68,1.8-3.68,4.03c0,1.91,1.22,3.51,2.85,3.92v12.59l20.03,21.94h17.15c.38,1.79,1.83,3.12,3.58,3.12c2.03,0,3.68-1.8,3.68-4.03s-1.65-4.03-3.68-4.03h.02Z" fill="#9b773a"/><path d="M180.62,203.65c-1.75,0-3.2,1.34-3.58,3.12h-41.38l-14.14-15.48h-113.23011L-17.2401,219.24c-.56-.39-1.23-.62-1.94-.62-2.03,0-3.68,1.8-3.68,4.03s1.65,4.03,3.68,4.03s3.68-1.8,3.68-4.03c0-.78-.21-1.51-.57-2.13L8.96989,193.1h111.87011l14.14,15.48h42.06c.38,1.79,1.83,3.12,3.58,3.12c2.03,0,3.68-1.8,3.68-4.03s-1.65-4.03-3.68-4.03v.01Z" fill="#9b773a"/><path d="M91.8599,256.27c-.45,0-.87.1-1.26.26l-13.32-14.59h-43.59c-.38-1.79-1.83-3.12-3.58-3.12-2.03,0-3.68,1.8-3.68,4.03s1.65,4.03,3.68,4.03c1.75,0,3.2-1.34,3.58-3.12h42.91l12.6,13.79c-.62.72-1.01,1.69-1.01,2.76c0,2.23,1.65,4.03,3.68,4.03s3.68-1.8,3.68-4.03-1.65-4.03-3.68-4.03l-.01-.01Z" fill="#9b773a"/><path d="M115.62,234.67c-.72,0-1.38.23-1.95.62L96.4199,216.4h-71.76L-8.92012,253.17v43.35L-33.5001,323.43c-.56-.39-1.23-.62-1.94-.62-2.03,0-3.68,1.81-3.68,4.03s1.65,4.03,3.68,4.03s3.68-1.81,3.68-4.03c0-.78-.21-1.51-.57-2.13l25.05999-27.44v-43.35L25.3399,218.21h70.39L112.5,236.57c-.35.62-.57,1.34-.57,2.13c0,2.23,1.65,4.03,3.68,4.03s3.68-1.8,3.68-4.03-1.65-4.03-3.68-4.03h.01Z" fill="#9b773a"/><path d="M125.95,79.6999v-48.14l-20.92-22.91-1.17,1.28l20.44,22.38v47.39c-1.63.41-2.85,2-2.85,3.92c0,2.23,1.65,4.03,3.68,4.03s3.68-1.8,3.68-4.03c0-1.91-1.22-3.51-2.85-3.92h-.01Z" fill="#9b773a"/><path d="M62.6101,22.24v41.37h-18.38l-23.8-26.06h-43.83c-.37-1.79-1.83-3.12-3.58-3.12-2.03,0-3.68,1.8-3.68,4.03s1.65,4.03,3.68,4.03c1.75,0,3.2-1.34,3.58-3.12h43.15l23.8,26.06h20.72v-43.19h-1.65-.01Z" fill="#9b773a"/><path d="M111.74,52.9299c0-2.23-1.65-4.03-3.68-4.03s-3.68,1.8-3.68,4.03c0,1.91,1.22,3.51,2.85,3.92v49.3201L67.7601,149.39l-45.57-49.8901h-47.17l-16.79,18.3801c-.57-.39-1.23-.62-1.94-.62-2.03,0-3.68,1.8-3.68,4.03s1.65,4.03,3.68,4.03s3.68-1.8,3.68-4.03c0-.78-.21-1.51-.57-2.13l16.3-17.85h45.8l46.26,50.64L108.88,106.92v-50.0701c1.63-.41,2.85-2,2.85-3.92h.01Z" fill="#9b773a"/><path d="M62.97,0L61.8,1.28L90.14,32.31v54.39L68.23,110.69L36.75,76.23h-52.77l-22.7-24.85c.35-.62.57-1.35.57-2.13c0-2.23-1.65-4.03-3.68-4.03s-3.68,1.8-3.68,4.03s1.65,4.03,3.68,4.03c.71,0,1.38-.23,1.94-.62L-16.7,78.05h52.77l32.16,35.21L91.8,87.46v-55.9L62.97,0Z" fill="#9b773a"/><path d="M50.19,148.08c-1.75,0-3.2,1.34-3.58,3.12h-41.56l-47.7,52.23v80.91c-1.63.41-2.85,2-2.85,3.92c0,2.23,1.65,4.03,3.68,4.03s3.68-1.8,3.68-4.03c0-1.91-1.22-3.51-2.85-3.92v-80.15L5.74,153.02h40.88c.38,1.79,1.83,3.12,3.58,3.12c2.03,0,3.68-1.8,3.68-4.03s-1.65-4.03-3.68-4.03h-.01Z" fill="#9b773a"/><path d="M15.5899,133.37c-1.75,0-3.2,1.34-3.58,3.12h-34.6l-34.58,37.86v-165.80996h-1.65v170.18996l36.92-40.42h33.92c.38,1.79,1.83,3.12,3.58,3.12c2.03,0,3.68-1.8,3.68-4.03s-1.65-4.03-3.68-4.03h-.01Z" fill="#9b773a"/><path d="M47.0499,4.46997v29.84003h-10.29l-11.85-12.97h-68.72c-.38-1.79-1.83-3.12-3.58-3.12-2.03,0-3.68,1.8-3.68,4.03s1.65,4.03,3.68,4.03c1.75,0,3.2-1.34,3.58-3.12h68.04l11.85,12.97h12.63v-31.66003h-1.65-.01Z" fill="#9b773a"/><path d="M73.49,120.2c-1.75,0-3.2,1.34-3.58,3.12h-6.05L30.44,86.7301h-68.69c-.37-1.79-1.83-3.12-3.58-3.12-2.03,0-3.68,1.8-3.68,4.03s1.65,4.03,3.68,4.03c1.75,0,3.2-1.34,3.58-3.12h68.01L63.18,125.14h6.74c.38,1.79,1.83,3.12,3.58,3.12c2.03,0,3.68-1.8,3.68-4.03s-1.65-4.03-3.68-4.03h-.01Z" fill="#9b773a"/><path d="M81.05,154.01c-2.03,0-3.68,1.8-3.68,4.03c0,.78.21,1.51.57,2.13L63.1,176.42h-36.89l-7.64-8.36h-10.59L-3.88,181.04c-.56-.39-1.23-.62-1.94-.62-2.03,0-3.68,1.8-3.68,4.03s1.65,4.03,3.68,4.03s3.68-1.8,3.68-4.03c0-.79-.21-1.51-.57-2.13L8.66,169.87h9.22l7.64,8.36h38.26l15.33-16.78c.57.39,1.23.62,1.95.62c2.03,0,3.68-1.8,3.68-4.03s-1.65-4.03-3.68-4.03h-.01Z" fill="#9b773a"/></g></g><clipPath id="eC6bGoR3neD145"><rect width="1689.24" height="392.73" rx="0" ry="0" transform="translate(-86 0)" fill="#fff"/></clipPath></g></svg>
