<svg width="90" height="135" viewBox="0 0 90 135" fill="none" xmlns="http://www.w3.org/2000/svg">
<g clip-path="url(#clip0_590_665)">
<path fill-rule="evenodd" clip-rule="evenodd" d="M79.3728 11.2683H89.5417V1.15223C84.3562 0.612707 78.6993 6.27769 79.3728 11.2683ZM89.6072 15.6518V16.9331V112.766C89.6072 115.261 88.7317 116.61 86.3073 116.88C84.7102 117.068 83.0805 117.026 81.418 116.984C80.6971 116.965 79.9693 116.947 79.2362 116.947V115.733V19.9679C79.2362 17.3377 80.179 15.989 82.6707 15.7193C84.2228 15.5307 85.8408 15.5727 87.4785 15.615C88.1855 15.6334 88.8964 15.6518 89.6072 15.6518ZM11.152 41.7519V43.2355V129.019C11.152 132.054 9.87252 133.403 6.84203 133.538C6.00024 133.572 5.15844 133.572 4.31663 133.572C3.47484 133.572 2.63304 133.572 1.79124 133.605C1.1178 133.605 0.781079 133.335 0.848423 132.661V131.65V47.0122C0.848423 43.3704 1.85858 41.9542 6.10125 41.8193C7.25548 41.7188 8.4845 41.7306 9.78832 41.7431C10.234 41.7475 10.6889 41.7519 11.152 41.7519ZM73.817 26.0203C73.7996 25.7683 73.7816 25.5075 73.7816 25.2288C73.0925 25.2288 72.4269 25.2208 71.7768 25.2133C70.5209 25.1985 69.3228 25.1843 68.1247 25.2288C64.6229 25.4311 63.5454 26.7124 63.5454 30.1518V114.385C63.5454 114.59 63.5531 114.794 63.5606 114.997C63.5755 115.394 63.59 115.781 63.5454 116.138C63.4781 116.88 63.7474 117.15 64.4882 117.15C65.2964 117.116 66.1214 117.116 66.9463 117.116C67.7713 117.116 68.5963 117.116 69.4043 117.082C72.5695 116.947 73.8491 115.599 73.8491 112.496V26.7124C73.8491 26.4843 73.8333 26.2561 73.817 26.0203ZM42.6007 41.8189V43.3027V112.361C42.6007 115.531 41.3212 116.88 38.156 117.015C36.9466 117.06 35.7672 117.045 34.5779 117.03C33.9793 117.022 33.3771 117.015 32.7685 117.015C32.6853 117.015 32.6021 116.989 32.4872 116.954C32.4161 116.932 32.3327 116.906 32.2298 116.88V115.396V46.6746C32.2298 43.3027 33.1726 42.1562 36.4725 41.7515C37.6284 41.6688 38.835 41.7129 40.1077 41.7594C40.911 41.7887 41.7409 41.8189 42.6007 41.8189ZM58.2245 43.1681V41.7519C56.4062 41.7519 54.7899 41.7519 53.2411 41.8868C48.5943 42.0216 47.8535 43.6401 47.8535 47.2145V115.194V116.206C47.7862 116.88 48.1229 117.15 48.7963 117.15C49.6718 117.116 50.5305 117.116 51.3891 117.116C52.2478 117.116 53.1063 117.116 53.9818 117.083C56.9449 116.948 58.2245 115.599 58.2245 112.699V43.1681ZM16.5394 117.082V115.328V46.6064C16.5394 43.3019 17.3476 42.2229 20.6473 41.8183C22.0866 41.6741 23.5258 41.701 24.9894 41.7286C25.5802 41.7396 26.1753 41.7508 26.7756 41.7508C26.7756 41.9958 26.7938 42.2409 26.8112 42.4766C26.8274 42.6948 26.843 42.9051 26.843 43.0996V112.496C26.843 115.53 25.5635 116.879 22.6003 116.947C20.6473 117.082 18.6944 117.082 16.5394 117.082ZM16.3363 30.6912C16.3363 33.5911 18.6932 35.9515 21.6565 35.9515C24.6869 35.9515 26.9766 33.6585 27.0439 30.7586C27.0439 27.7238 24.6869 25.296 21.7238 25.296C18.7607 25.2285 16.3363 27.7238 16.3363 30.6912ZM53.041 35.9515C50.0106 35.9515 47.7209 33.6585 47.7209 30.5563C47.7209 27.5889 50.1452 25.2285 53.041 25.2285C56.0041 25.2285 58.4285 27.7238 58.3612 30.6912C58.3612 33.5911 56.0041 35.9515 53.041 35.9515ZM31.9619 30.6905C32.0293 33.6579 34.3863 35.9509 37.3494 35.9509C40.3125 35.9509 42.6696 33.6579 42.6696 30.7579C42.7369 27.7906 40.3125 25.2953 37.3494 25.2953C34.3863 25.2279 31.9619 27.7232 31.9619 30.6905ZM73.7825 126.794C73.7825 129.694 71.3581 132.121 68.4623 132.121C65.4992 132.121 63.0748 129.694 63.0748 126.726C63.0748 123.759 65.4319 121.466 68.395 121.466C71.4929 121.466 73.7825 123.759 73.7825 126.794Z" fill="#008550"/>
</g>
<defs>
<clipPath id="clip0_590_665">
<rect width="88.7676" height="133.814" fill="white" transform="translate(0.839966 0.198242)"/>
</clipPath>
</defs>
</svg>
