<svg width="71" height="70" viewBox="0 0 71 70" fill="none" xmlns="http://www.w3.org/2000/svg">
<path fill-rule="evenodd" clip-rule="evenodd" d="M35.5 0C44.847 0 53.639 3.64021 60.248 10.2518C66.86 16.8633 70.5 25.6509 70.5 35C70.5 44.3491 66.86 53.1388 60.248 59.7483C53.639 66.3598 44.849 70 35.5 70C26.151 70 17.361 66.3598 10.7517 59.7483C4.1402 53.1367 0.5 44.3471 0.5 35C0.5 25.653 4.1402 16.8612 10.7517 10.2518C17.363 3.64021 26.153 0 35.5 0ZM11.7506 58.7514C18.094 65.095 26.528 68.5895 35.5 68.5895C44.472 68.5895 52.906 65.095 59.249 58.7514C65.593 52.4079 69.087 43.9742 69.087 35.0023C69.087 26.0302 65.593 17.5965 59.249 11.2529C52.906 4.90708 44.47 1.41487 35.5 1.41487C26.528 1.41487 18.094 4.90938 11.7506 11.2529C5.4071 17.5965 1.9126 26.0304 1.9126 35.0023C1.9126 43.9742 5.4071 52.4079 11.7506 58.7514ZM35.499 24.9727L35.509 24.9648C35.509 24.9648 42.388 18.5613 47.947 20.5785C47.947 20.5785 43.548 19.9611 36.632 25.8887L36.63 25.8902L38.718 27.5843L38.733 27.565C38.992 27.237 39.037 27.0804 39.02 27.014C38.838 26.9969 38.641 26.9497 38.536 26.8682C38.317 26.6945 38.298 26.3494 38.495 26.0986C38.692 25.8479 39.031 25.7836 39.249 25.9572C39.344 26.0322 39.417 26.1802 39.442 26.2466C39.766 26.9861 39.693 27.5414 39.312 28.0238C39.31 28.0254 39.308 28.0275 39.306 28.0303L39.301 28.0358L39.29 28.0496L39.875 28.5255C40.692 29.1793 40.975 28.1567 40.975 28.1567C41.327 27.2908 42.296 27.8331 42.296 27.8331C43.344 28.3777 42.834 29.0958 42.834 29.0958C41.574 31.544 39.187 29.6918 39.187 29.6918L38.452 29.113L38.443 29.1247L38.422 29.1513L38.407 29.1709C38.025 29.6534 37.502 29.8527 36.707 29.7091C36.634 29.6983 36.474 29.6619 36.379 29.5868C36.16 29.4133 36.143 29.0703 36.341 28.8194C36.538 28.5686 36.879 28.5065 37.097 28.6801C37.202 28.7615 37.297 28.946 37.355 29.1175C37.425 29.1195 37.567 29.0402 37.826 28.7122L37.871 28.6543L35.5 26.7825L33.129 28.6547L33.174 28.7126C33.431 29.0407 33.573 29.1199 33.644 29.1178C33.702 28.9463 33.796 28.7619 33.901 28.6804C34.119 28.5069 34.46 28.5689 34.658 28.8198C34.855 29.0706 34.838 29.4136 34.619 29.5872C34.525 29.6622 34.364 29.6987 34.291 29.7094C33.496 29.8529 32.972 29.6536 32.591 29.1713C32.587 29.166 32.58 29.1568 32.57 29.1437L32.546 29.1133L31.811 29.6921C31.811 29.6921 29.425 31.5444 28.164 29.0962C28.164 29.0962 27.654 28.3781 28.702 27.8335C28.702 27.8335 29.671 27.291 30.023 28.1571C30.023 28.1571 30.306 29.1797 31.123 28.5259L31.708 28.0499L31.698 28.038C31.693 28.0316 31.689 28.027 31.686 28.0242C31.305 27.5418 31.232 26.9865 31.556 26.2469C31.581 26.1806 31.654 26.0326 31.749 25.9575C31.967 25.7838 32.306 25.8481 32.503 26.0989C32.7 26.3498 32.681 26.6951 32.462 26.8686C32.357 26.95 32.16 26.9972 31.978 27.0144C31.961 27.0807 32.006 27.2374 32.265 27.5653L32.28 27.5847L34.369 25.8896L34.368 25.8889C27.452 19.9613 23.053 20.5786 23.053 20.5786C28.612 18.5613 35.489 24.9648 35.489 24.9648L35.499 24.9727ZM32.533 8.59258C32.533 8.59258 28.951 9.60008 30.664 12.7667C30.664 12.7667 30.571 10.1427 32.634 9.54878C32.634 9.54878 29.92 11.6991 32.366 13.5149C32.366 13.5149 31.862 11.4761 33.279 10.5456C33.279 10.5456 32.276 12.833 34.231 14.7603C34.231 14.7603 33.777 12.8029 35.091 11.7268V21.6483L34.341 22.6086H36.669L35.966 21.6483V11.7269C37.205 12.8031 36.821 14.7605 36.821 14.7605C38.776 12.8332 37.771 10.5458 37.771 10.5458C39.19 11.4763 38.682 13.5151 38.682 13.5151C41.126 11.6993 38.414 9.54898 38.414 9.54898C40.476 10.1428 40.384 12.7668 40.384 12.7668C42.097 9.60028 38.515 8.59278 38.515 8.59278C40.189 8.34618 41.316 10.4001 41.316 10.4001C41.098 7.11148 37.58 7.59818 37.58 7.59818C38.472 6.90148 40.279 7.78468 40.279 7.78468C38.965 5.95388 37.082 6.47708 37.082 6.47708C37.308 6.05468 38.658 6.14678 38.658 6.14678C37.432 4.95068 36 6.15118 36 6.15118C36.068 5.49088 35.5 4.45761 35.5 4.45761C35.5 4.45761 34.956 5.49088 35.024 6.15118C35.024 6.15118 33.603 4.94838 32.377 6.14678C32.377 6.14678 33.731 6.05468 33.959 6.47708C33.959 6.47708 32.079 5.95388 30.764 7.78468C30.764 7.78468 32.574 6.90148 33.466 7.59818C33.466 7.59818 29.948 7.11148 29.729 10.4001C29.729 10.4001 30.857 8.34608 32.533 8.59258ZM44.462 47.5222C44.284 47.6335 44.123 47.6807 43.979 47.6636C44.005 47.5649 44.057 47.4362 44.138 47.2821C44.22 47.1256 44.303 46.9883 44.387 46.8684L44.728 47.3249C44.623 47.4129 44.532 47.4772 44.462 47.5222ZM49.049 43.5864C49.182 43.5285 49.39 43.3056 49.677 42.9196L49.486 42.8788C49.248 42.8295 49.094 42.8101 49.025 42.8231C48.963 42.8295 48.916 42.8553 48.884 42.8981C48.834 42.9645 48.826 43.0653 48.856 43.2026C48.886 43.3399 48.944 43.4706 49.029 43.5928L49.049 43.5864ZM50.914 40.8849C50.685 41.3052 50.509 41.5538 50.387 41.6288L50.368 41.6375C50.267 41.528 50.192 41.4058 50.142 41.2751C50.093 41.1442 50.089 41.0414 50.127 40.9706C50.153 40.9234 50.196 40.8913 50.256 40.8762C50.323 40.8548 50.477 40.8527 50.719 40.8699L50.914 40.8849ZM19.947 38.5782C19.849 38.4689 19.733 38.3595 19.598 38.2459C19.463 38.1323 19.351 38.053 19.259 38.0078C19.212 38.1451 19.223 38.3123 19.293 38.5095C19.321 38.591 19.366 38.6918 19.426 38.8117C19.459 38.7975 19.528 38.7668 19.631 38.7204L19.632 38.7198C19.715 38.6826 19.82 38.6352 19.947 38.5782ZM35.5 52.9137C25.308 52.9137 16.898 45.2839 15.6718 35.4244H21.893C23.066 41.8731 28.713 46.7631 35.5 46.7631C42.287 46.7631 47.934 41.8752 49.107 35.4244H55.328C54.102 45.2816 45.692 52.9137 35.5 52.9137ZM20.907 37.5018C20.886 37.5339 20.86 37.5811 20.828 37.6475C20.798 37.7118 20.772 37.7782 20.753 37.8446L20.796 37.8747C20.826 37.8961 20.867 37.9219 20.922 37.9497C20.978 37.9775 21.031 38.0012 21.085 38.0183C21.021 38.1191 20.972 38.2306 20.933 38.3506L20.987 38.3848C21.021 38.4085 21.072 38.4364 21.139 38.4685C21.205 38.5007 21.267 38.5244 21.33 38.5372C21.392 38.4493 21.454 38.3164 21.518 38.1406C21.42 38.0849 21.308 38.0313 21.182 37.9798C21.222 37.9262 21.276 37.8126 21.338 37.6368C21.224 37.5683 21.091 37.5082 20.943 37.4525L20.907 37.5018ZM19.863 42.917C19.927 42.9343 19.99 42.9427 20.05 42.947C20.092 42.8549 20.125 42.7219 20.148 42.548C20.046 42.5158 19.934 42.4903 19.812 42.4709C19.84 42.4066 19.863 42.293 19.889 42.1215C19.771 42.085 19.638 42.0572 19.492 42.0378L19.471 42.085C19.456 42.1215 19.441 42.1708 19.426 42.2351C19.411 42.2994 19.4 42.3637 19.396 42.426L19.441 42.4431C19.469 42.456 19.509 42.4688 19.565 42.4839C19.619 42.4985 19.671 42.5068 19.723 42.5152L19.728 42.516C19.687 42.6232 19.664 42.7345 19.655 42.8504L19.713 42.8698C19.749 42.8848 19.799 42.8998 19.863 42.917ZM35.399 51.5716C35.432 51.5502 35.472 51.5158 35.519 51.4708C35.569 51.4259 35.609 51.3787 35.646 51.3315C35.594 51.2416 35.5 51.1408 35.365 51.0293C35.281 51.0979 35.2 51.1793 35.118 51.2715C35.086 51.2179 35.003 51.1342 34.868 51.0206C34.773 51.1 34.677 51.1965 34.583 51.308L34.615 51.3508C34.634 51.383 34.666 51.4215 34.711 51.4687C34.756 51.5159 34.806 51.5588 34.855 51.5974L34.893 51.5695C34.919 51.5522 34.953 51.5244 34.994 51.4859C35.037 51.4473 35.074 51.4067 35.11 51.3659C35.179 51.458 35.26 51.5395 35.352 51.6081L35.399 51.5716ZM36.533 51.5415C36.565 51.5137 36.606 51.4729 36.656 51.4172C36.705 51.3616 36.746 51.308 36.776 51.2544C36.707 51.1707 36.598 51.0722 36.448 50.9606C36.351 51.0507 36.255 51.1622 36.16 51.2909L36.197 51.3358C36.22 51.3659 36.261 51.4044 36.315 51.4537C36.368 51.503 36.424 51.5458 36.484 51.5823L36.533 51.5415ZM51.836 38.0954L49.641 37.3666L49.604 37.476L49.786 37.9111C49.911 37.9476 50.781 38.2092 52.398 38.6979L52.453 38.5285C52.447 38.5246 52.423 38.5076 52.382 38.4777L52.381 38.4774L52.282 38.4063C52.179 38.3312 52.08 38.2605 51.986 38.1962C51.892 38.1297 51.842 38.0975 51.836 38.0954ZM44.32 45.9313L44.223 45.9913L44.051 46.4142L44.171 46.575C44.049 46.7807 43.955 46.9823 43.884 47.1817C43.815 47.381 43.777 47.5267 43.768 47.6211C43.766 47.6663 43.794 47.752 43.852 47.8827C43.91 48.0113 43.957 48.0884 43.997 48.1142C44.072 48.1571 44.165 48.1785 44.278 48.1764C44.392 48.1742 44.512 48.1336 44.638 48.0542C44.733 47.9963 44.803 47.9363 44.855 47.874L44.848 47.4239C45.125 47.7217 45.395 47.7883 45.659 47.6232L45.785 47.5438L46.139 47.293C46.216 47.2328 46.293 47.1727 46.37 47.1126L46.477 47.0297L46.585 46.9457L46.711 46.8342C46.868 46.6948 46.966 46.5792 47.003 46.4848C47.031 46.4376 46.996 46.2232 46.902 45.8373C47.194 45.9016 47.41 45.9272 47.554 45.9144C47.697 45.9016 47.85 45.8243 48.013 45.6829C48.013 45.6829 48.356 45.2861 48.366 45.2305C48.379 45.1746 48.339 44.999 48.244 44.7073C48.559 44.8489 48.853 44.8081 49.078 44.5659L49.196 44.4266C49.273 44.3215 49.312 44.225 49.312 44.1372C49.312 44.0494 49.277 43.955 49.211 43.8564C49.372 43.8865 49.462 43.8972 49.483 43.8886C49.535 43.8779 49.618 43.8136 49.734 43.6957C49.85 43.5798 49.949 43.4685 50.03 43.3634L49.882 42.9581C50.009 42.9732 50.114 42.9668 50.201 42.9367C50.289 42.9066 50.369 42.8423 50.442 42.7458L50.517 42.643L50.645 42.4414C50.708 42.3276 50.733 42.2268 50.72 42.139C50.708 42.0512 50.662 41.9632 50.581 41.8754C50.744 41.8838 50.836 41.8818 50.855 41.871C50.905 41.8517 50.978 41.7789 51.078 41.6459C51.177 41.5152 51.261 41.3908 51.327 41.2772L51.125 40.8956C51.252 40.8936 51.357 40.8721 51.438 40.8313C51.522 40.7884 51.591 40.7155 51.651 40.6083L51.818 40.2117C51.882 40.0551 51.91 39.9479 51.901 39.8922C51.884 39.8085 51.809 39.6543 51.678 39.427C51.541 39.1912 51.436 39.0605 51.355 39.0283L50.223 38.5695L50.088 38.2822L49.612 38.3271L49.404 38.2434L49.301 38.3249L49.533 38.9187L49.901 38.9358L51.477 39.5233C51.46 39.6068 51.233 40.2307 51.233 40.2307L51.211 40.2715C51.158 40.368 51.095 40.4236 51.025 40.4344C50.98 40.4408 50.83 40.4321 50.579 40.4086C50.487 40.3999 50.414 40.3936 50.362 40.3892C50.311 40.3851 50.246 40.3851 50.171 40.3872C50.096 40.3894 50.038 40.3979 49.994 40.4129C49.948 40.4278 49.903 40.4492 49.861 40.4793C49.815 40.5094 49.781 40.5479 49.755 40.5951C49.661 40.7666 49.676 40.9788 49.798 41.2339C49.921 41.4889 50.081 41.6841 50.279 41.8255C50.277 41.9306 50.24 42.0486 50.169 42.1772L50.082 42.3145L50.054 42.3509C49.987 42.4389 49.919 42.4861 49.846 42.4882C49.798 42.4882 49.653 42.4604 49.408 42.4025C49.364 42.392 49.325 42.3831 49.291 42.3752L49.242 42.3642L49.214 42.3576L49.196 42.3532C49.145 42.3425 49.082 42.3317 49.007 42.3254C48.934 42.319 48.872 42.319 48.827 42.3254C48.78 42.3338 48.733 42.3489 48.686 42.3746C48.639 42.3983 48.598 42.4325 48.566 42.4754C48.45 42.6319 48.435 42.8442 48.521 43.1121C48.607 43.3801 48.74 43.5967 48.915 43.7639C48.907 43.8175 48.815 44.0041 48.682 44.1498C48.557 44.2869 48.394 44.3813 48.36 44.3813C48.287 44.3792 48.18 44.3085 48.034 44.1755L46.544 42.797L46.467 42.8807L46.45 43.3566L48.075 44.7673C48.015 44.8617 47.651 45.2754 47.651 45.2754C47.531 45.3826 47.4 45.4383 47.259 45.4469C47.117 45.4533 46.901 45.4232 46.609 45.3525L45.865 45.166L46.221 44.0576L45.966 43.6159L45.884 43.6139L45.475 45.0353C45.46 45.0695 45.486 45.1746 45.55 45.3461C45.614 45.5176 45.657 45.6075 45.683 45.6162C45.694 45.6205 45.73 45.6312 45.79 45.6483C45.822 45.6574 45.859 45.6676 45.902 45.6794L45.934 45.6882L45.935 45.6884L46.03 45.7147L46.112 45.7376C46.175 45.7549 46.228 45.7696 46.27 45.7833C46.478 45.8477 46.637 45.9313 46.742 46.0342C46.706 46.0964 46.601 46.2057 46.425 46.3601L46.225 46.5359L45.497 47.0805L45.411 47.1341C45.291 47.2091 45.211 47.239 45.173 47.2262C45.134 47.2112 45.07 47.1318 44.978 46.9861L44.32 45.9313ZM43.539 45.7918C43.477 45.764 43.355 45.736 43.168 45.7125C43.128 45.839 43.096 45.9804 43.074 46.1371L43.13 46.1628C43.166 46.1777 43.218 46.1927 43.288 46.2078C43.359 46.2251 43.428 46.2335 43.496 46.2379L43.516 46.1907C43.528 46.1585 43.544 46.1134 43.561 46.0534C43.576 45.9934 43.586 45.9355 43.591 45.8798C43.702 45.9204 43.822 45.9462 43.949 45.9569L43.975 45.8947C43.99 45.8561 44.007 45.8003 44.024 45.7296C44.041 45.6587 44.05 45.5923 44.05 45.528C43.951 45.4874 43.807 45.4529 43.623 45.4294C43.591 45.5366 43.563 45.6568 43.539 45.7918ZM42.131 46.1649L42.028 46.2142L41.841 46.647C41.893 46.7422 42.183 47.3051 42.716 48.3366L43.093 49.0674L43.254 48.9903C43.252 48.9796 43.241 48.9111 43.222 48.7846C43.205 48.6603 43.188 48.5401 43.168 48.4265C43.149 48.3129 43.138 48.253 43.136 48.2486L42.131 46.1649ZM37.391 51.0142C37.303 51.027 37.194 51.025 37.061 51.0099L37.02 51.1703C37.071 51.2089 37.195 51.2732 37.393 51.3633C37.59 51.4533 37.714 51.4962 37.768 51.4876C37.879 51.4727 37.978 51.4168 38.062 51.3247C38.145 51.2326 38.207 51.121 38.248 50.9968C38.289 50.8702 38.317 50.7502 38.334 50.6344C38.351 50.5187 38.355 50.42 38.349 50.3386C38.491 50.4501 38.626 50.4973 38.754 50.4779L38.806 50.4715L39.258 50.3922C39.625 50.2914 39.942 50.122 40.21 49.8841C40.48 49.9742 40.801 49.9698 41.168 49.867L41.608 49.6955C41.764 49.6312 41.861 49.5776 41.895 49.5326C41.942 49.4617 42.002 49.2989 42.075 49.048C42.148 48.7951 42.167 48.63 42.133 48.5486L41.676 47.4188L41.79 47.1207L41.426 46.8099L41.342 46.6019L41.211 46.5869L40.948 47.1657L41.192 47.4423L41.865 48.9816C41.79 49.0311 41.638 49.1018 41.406 49.1939L41.188 49.284L40.592 49.4642L40.583 49.4662C40.735 49.2496 40.838 49.0266 40.894 48.7994C40.898 48.7609 40.89 48.6858 40.868 48.5743C40.847 48.4628 40.821 48.39 40.791 48.3536C40.737 48.315 40.626 48.2979 40.461 48.3043C40.296 48.3086 40.122 48.3365 39.942 48.3857C39.781 48.4309 39.618 48.4886 39.451 48.5615C39.284 48.6345 39.172 48.6945 39.11 48.7417C39.016 48.8167 38.958 49.0676 38.932 49.4899L39.054 49.5307L39.151 49.2929L39.771 49.6767L39.777 49.6831C39.751 49.6938 39.71 49.7066 39.655 49.7216L38.729 49.9339C38.589 49.9531 38.488 49.936 38.426 49.8824C38.364 49.8288 38.289 49.6936 38.201 49.4771L38.072 49.1469L37.985 49.1597L37.734 49.565C37.925 49.8801 38.053 50.0902 38.122 50.191C37.995 50.6884 37.751 50.965 37.391 51.0142ZM32.919 47.8735C32.891 47.8112 32.818 47.7104 32.696 47.569C32.582 47.6356 32.464 47.7214 32.342 47.8223L32.368 47.878C32.385 47.9122 32.413 47.9574 32.456 48.0173C32.497 48.0753 32.544 48.1289 32.591 48.1781L32.638 48.1567C32.67 48.1416 32.711 48.1179 32.762 48.0837C32.814 48.0495 32.861 48.013 32.902 47.9745C32.957 48.0794 33.03 48.1781 33.118 48.2703L33.174 48.2402C33.213 48.2208 33.26 48.1909 33.322 48.1501C33.382 48.1093 33.433 48.0644 33.476 48.0172C33.429 47.9207 33.346 47.8005 33.223 47.6591C33.127 47.717 33.026 47.7898 32.919 47.8735ZM31.877 49.3807C31.845 49.4128 31.808 49.4965 31.765 49.6315C31.723 49.7666 31.708 49.8566 31.718 49.9014C31.744 49.983 31.802 50.0601 31.888 50.1351C31.973 50.2081 32.091 50.2574 32.239 50.2831C32.349 50.3025 32.443 50.3046 32.522 50.2918L32.818 49.9508C32.827 50.3561 32.983 50.5855 33.29 50.6391L33.435 50.6648L34.505 50.7419C34.655 50.744 34.758 50.7333 34.816 50.7055C34.848 50.6947 34.938 50.6026 35.088 50.4268C35.253 50.6477 35.481 50.7613 35.766 50.7677H35.804L35.939 50.7634C36.173 50.7506 36.336 50.7205 36.428 50.6756C36.484 50.6412 36.561 50.534 36.664 50.3561C36.765 50.178 36.816 50.056 36.816 49.9937C36.818 49.9144 36.801 49.7901 36.765 49.6186L36.872 49.4943L36.865 49.4192L36.645 48.8876L36.535 48.894L36.212 49.2564L36.259 49.3937C36.293 49.4879 36.332 49.6101 36.379 49.7602C36.426 49.9102 36.462 50.0452 36.488 50.1611C36.394 50.1825 36.199 50.2039 35.905 50.219L35.811 50.2233C35.613 50.2192 35.47 50.1934 35.384 50.1462C35.423 50.0046 35.461 49.741 35.498 49.3508L35.41 49.3229L35.088 49.5202L34.91 50.174C34.818 50.1912 34.694 50.1976 34.546 50.1955L33.528 50.1268L33.427 50.1097C33.287 50.086 33.208 50.0561 33.189 50.0197C33.17 49.9832 33.174 49.8803 33.204 49.7109L33.414 48.4846L33.3 48.4653L32.891 48.6669L32.874 48.8662C32.647 48.939 32.441 49.027 32.256 49.1298C32.072 49.2327 31.946 49.3164 31.877 49.3807ZM31.622 47.2176L31.512 47.1854L31.086 47.3849C31.062 47.4846 30.916 48.0536 30.649 49.0909L30.648 49.0943L30.647 49.0966V49.0977L30.408 50.0261L30.58 50.0753C30.586 50.0646 30.623 50.0067 30.693 49.8995L30.698 49.8926C30.767 49.7881 30.832 49.6894 30.891 49.5951C30.953 49.4986 30.983 49.4471 30.985 49.4407L31.622 47.2176ZM23.874 44.6812C23.953 44.4305 23.934 44.2417 23.814 44.1174C23.718 44.0168 23.589 43.9653 23.426 43.9585C23.263 43.9542 23.109 43.98 22.965 44.0356C22.822 44.0913 22.699 44.1599 22.601 44.2414C22.573 44.2649 22.52 44.3442 22.444 44.4772C22.369 44.6122 22.329 44.6979 22.322 44.7344C22.32 44.7515 22.322 44.7794 22.329 44.8158C22.335 44.8521 22.363 44.9123 22.41 45.0001C22.457 45.0859 22.524 45.1737 22.609 45.2638L22.922 45.5917C22.789 45.6047 22.65 45.5767 22.5 45.5103C22.352 45.4417 22.219 45.3495 22.103 45.2273C22.037 45.1587 21.947 45.0321 21.831 44.8478L21.675 44.9035C21.672 44.9635 21.696 45.1071 21.745 45.3365C21.795 45.566 21.837 45.701 21.874 45.7395C22.013 45.8853 22.193 45.9496 22.419 45.9325C22.644 45.9154 22.854 45.8467 23.049 45.7224L23.233 45.9154L23.563 46.2412L23.752 46.387C24.052 46.6207 24.376 46.7728 24.73 46.8458C24.82 47.116 25.017 47.369 25.317 47.6048L25.527 47.7699L25.774 47.9671C25.883 48.025 25.981 48.0508 26.065 48.0422C26.149 48.0335 26.249 47.9972 26.365 47.935C26.365 48.0723 26.393 48.1794 26.449 48.2545C26.505 48.3295 26.586 48.3959 26.695 48.4538C26.815 48.5181 26.918 48.5459 27.006 48.5439C27.092 48.5395 27.189 48.501 27.294 48.4303C27.296 48.561 27.324 48.6661 27.379 48.7432C27.435 48.8203 27.519 48.8889 27.63 48.9469C27.755 49.0132 27.862 49.0412 27.95 49.0326C28.038 49.0239 28.138 48.9768 28.25 48.8889C28.246 49.024 28.267 49.1332 28.312 49.2169C28.357 49.3006 28.436 49.3713 28.55 49.4313C28.977 49.592 29.193 49.5749 29.193 49.5749C29.277 49.5535 29.429 49.4721 29.65 49.3327C29.871 49.1934 29.997 49.0821 30.027 48.9984L30.439 47.8472L30.728 47.6992L30.664 47.2253L30.739 47.013L30.653 46.9144L30.07 47.1696L30.068 47.5384L29.545 49.1355L29.315 49.0798C29.268 49.0691 29.221 49.0542 29.176 49.0349L28.644 48.8184C28.636 48.7842 28.651 48.7283 28.692 48.6512L29.045 47.978L28.945 47.9244L28.494 48.0038L28.248 48.6277C28.136 48.5849 28.044 48.5441 27.971 48.5055C27.84 48.4369 27.742 48.3684 27.673 48.2955C27.862 48.0405 28.003 47.8366 28.095 47.6845L28.04 47.6074L27.716 47.6396L27.242 48.1091C27.178 48.0854 27.109 48.0533 27.034 48.0147C26.903 47.9461 26.807 47.8797 26.741 47.8174C26.861 47.6546 26.966 47.5066 27.054 47.378L26.994 47.2986L26.683 47.3329L26.346 47.6352C26.245 47.5944 26.138 47.5452 26.027 47.4872L25.861 47.3415L25.295 46.902L25.289 46.8977C25.555 46.8891 25.793 46.8377 26.007 46.7476C26.042 46.7285 26.095 46.6747 26.172 46.5912C26.249 46.5077 26.292 46.4411 26.303 46.3962C26.301 46.3298 26.247 46.2311 26.144 46.1004C26.041 45.9697 25.917 45.8475 25.769 45.7339C25.638 45.6308 25.493 45.5366 25.334 45.4466C25.175 45.3565 25.06 45.3029 24.987 45.2814C24.871 45.2514 24.635 45.3542 24.281 45.588L24.32 45.7102L24.568 45.6459L24.633 46.3727L24.631 46.3813C24.607 46.3663 24.573 46.3405 24.528 46.3063L23.898 45.8153L23.627 45.543L23.469 45.3779C23.66 45.1635 23.795 44.9321 23.874 44.6812ZM23.004 42.4732L22.493 42.5247C22.339 43.08 22.187 43.4916 22.036 43.7571C21.886 43.59 21.741 43.4141 21.601 43.2299C21.526 43.1311 21.479 43.0476 21.46 42.979C21.441 42.9104 21.436 42.8634 21.451 42.8333C21.466 42.8054 21.492 42.7754 21.531 42.7475C21.571 42.7176 21.638 42.6811 21.73 42.6383L21.67 42.4882C21.614 42.4948 21.529 42.5183 21.411 42.5612C21.293 42.604 21.194 42.6554 21.113 42.7176C20.866 42.9042 20.855 43.1443 21.078 43.4401C21.19 43.5858 21.295 43.7145 21.391 43.8196C21.49 43.9268 21.552 43.9847 21.578 43.9975C21.638 44.0232 21.762 44.0189 21.955 43.9911C22.148 43.9632 22.264 43.9332 22.305 43.901C22.438 43.8002 22.579 43.6093 22.729 43.3243C22.879 43.0412 22.993 42.7861 23.07 42.561L23.004 42.4732ZM21.604 41.9374L21.966 41.4893L21.908 41.3949L21.434 41.2834L21.336 41.3885C21.281 41.4504 21.21 41.5238 21.126 41.6113L21.07 41.6693C20.961 41.783 20.86 41.8772 20.77 41.9566C20.708 41.8859 20.603 41.7315 20.457 41.4957L19.471 39.5148C19.424 39.3819 19.411 39.2984 19.432 39.2619C19.454 39.2277 19.546 39.1805 19.709 39.1225L20.881 38.7066L20.843 38.5994L20.468 38.3401L20.286 38.4238C20.11 38.2607 19.934 38.1236 19.754 38.0121C19.576 37.9006 19.441 37.832 19.349 37.8042C19.306 37.7934 19.214 37.7998 19.076 37.8277C18.937 37.8555 18.851 37.8856 18.819 37.9198C18.761 37.982 18.72 38.0699 18.697 38.1814C18.675 38.2929 18.688 38.4194 18.74 38.5608C18.776 38.666 18.819 38.7495 18.87 38.8117L19.312 38.9018C18.963 39.1077 18.838 39.3563 18.943 39.65L18.993 39.7894L19.981 41.7531C20.103 41.9525 20.208 42.0832 20.29 42.1411C20.345 42.1732 20.476 42.1903 20.682 42.1947C20.888 42.199 21.019 42.1862 21.072 42.1561C21.141 42.1283 21.244 42.0533 21.377 41.9397L21.537 41.9739L21.604 41.9374ZM40.189 49.4385L40.244 49.3977C40.457 49.2069 40.605 48.9968 40.686 48.7653C40.504 48.7653 40.276 48.8018 40.004 48.8768C39.826 48.9261 39.646 48.9884 39.462 49.0654L39.807 49.2648C39.974 49.3528 40.101 49.4086 40.189 49.4385ZM25.144 46.5829L25.077 46.5658C25.047 46.4778 25.017 46.3427 24.987 46.1564L24.94 45.7598C25.111 45.8606 25.27 45.9678 25.416 46.0813C25.639 46.2549 25.806 46.4157 25.915 46.5594C25.679 46.6301 25.422 46.6385 25.144 46.5829ZM22.992 44.8723L23.281 45.1768L23.285 45.1681C23.356 45.0502 23.405 44.9088 23.435 44.7478C23.466 44.587 23.444 44.4691 23.375 44.3962C23.309 44.3255 23.21 44.2954 23.077 44.304C22.944 44.3127 22.816 44.3512 22.689 44.4156C22.717 44.538 22.818 44.6901 22.992 44.8723ZM32.8 49.653C32.793 49.7286 32.789 49.7807 32.786 49.8096C32.649 49.8033 32.54 49.7925 32.456 49.7797C32.25 49.7455 32.098 49.6726 32.001 49.5654C32.085 49.5075 32.209 49.4475 32.375 49.3852C32.54 49.323 32.692 49.2758 32.835 49.2416C32.82 49.4181 32.808 49.5552 32.8 49.653ZM28.367 39.0152L28.368 39.0149L28.571 38.837C28.47 38.7771 28.355 38.7212 28.226 38.6655C28.095 38.6099 27.992 38.5755 27.911 38.5627C27.907 38.6785 27.954 38.8028 28.055 38.9378C28.095 38.9935 28.153 39.0601 28.228 39.1372L28.288 39.0847L28.367 39.0152ZM39.799 41.783C39.709 41.8624 39.604 41.931 39.477 41.991C39.325 42.0617 39.192 42.0854 39.074 42.0576C39.059 41.871 39.098 41.6738 39.194 41.4594C39.479 41.5344 39.681 41.6416 39.799 41.783ZM42.661 39.414C42.753 39.3818 42.852 39.2961 42.953 39.1611C43.03 39.0582 43.09 38.9595 43.135 38.8609C42.835 38.7581 42.642 38.7624 42.556 38.876C42.507 38.9403 42.496 39.0217 42.522 39.1246C42.547 39.2274 42.592 39.3239 42.661 39.414ZM47.769 35.4244C46.614 41.1442 41.561 45.449 35.5 45.449C29.439 45.449 24.384 41.1442 23.231 35.4244H29.414C30.395 37.8213 32.752 39.5084 35.5 39.5084C38.248 39.5084 40.605 37.8213 41.586 35.4244H47.769ZM29.276 41.8925C29.307 41.8925 29.349 41.8904 29.403 41.8861C29.457 41.8795 29.506 41.871 29.551 41.856C29.557 41.7746 29.544 41.6651 29.512 41.5301C29.426 41.5365 29.336 41.5493 29.24 41.5687C29.244 41.5173 29.231 41.4252 29.201 41.2879C29.103 41.2943 28.996 41.3093 28.88 41.3351V41.378C28.878 41.4081 28.88 41.4487 28.886 41.5002C28.893 41.5517 28.904 41.6031 28.916 41.6503H28.955C28.979 41.6523 29.015 41.6503 29.06 41.6459C29.105 41.6416 29.15 41.6332 29.191 41.6245C29.191 41.7167 29.203 41.8067 29.229 41.8945L29.276 41.8925ZM40.662 42.4884C40.851 42.4799 40.962 42.4626 40.999 42.4391C41.125 42.3577 41.19 42.2033 41.196 41.9735C41.203 41.7443 41.172 41.5662 41.108 41.4419C40.992 41.2211 40.909 41.0859 40.86 41.0303C40.855 41.0218 40.84 41.0068 40.815 40.9811C40.789 40.9553 40.761 40.9274 40.727 40.8996L40.699 40.8761C40.673 40.8532 40.642 40.8271 40.611 40.7988C40.566 40.7602 40.525 40.726 40.489 40.6959C40.474 40.6835 40.458 40.671 40.442 40.6584L40.41 40.6321C40.398 40.6228 40.387 40.6134 40.375 40.6038C40.337 40.5716 40.311 40.5502 40.296 40.5395C40.287 40.5331 40.28 40.5275 40.275 40.5226C40.272 40.5201 40.269 40.5178 40.266 40.5157C40.265 40.515 40.264 40.5144 40.264 40.5137L40.189 40.5609L40.146 40.981L40.849 41.3712C40.872 41.5342 40.866 41.695 40.827 41.8558C40.789 42.0168 40.705 42.1388 40.574 42.2225C40.501 42.2697 40.407 42.3146 40.287 42.3554L40.313 42.4884C40.356 42.497 40.474 42.497 40.662 42.4884ZM42.77 38.4322C42.536 38.3914 42.373 38.4343 42.279 38.5608C42.212 38.6489 42.189 38.7581 42.206 38.889C42.223 39.0176 42.264 39.1355 42.326 39.2427C42.388 39.3499 42.459 39.4356 42.536 39.502C42.56 39.5235 42.628 39.5556 42.738 39.5985C42.847 39.6414 42.918 39.6628 42.948 39.6585L42.967 39.6564C42.98 39.6543 42.99 39.6521 42.999 39.65L43.04 39.6372C43.059 39.6308 43.076 39.6244 43.094 39.6137L43.095 39.6126C43.104 39.607 43.113 39.6013 43.123 39.5949C43.131 39.5896 43.139 39.5839 43.147 39.5772C43.166 39.5622 43.186 39.5472 43.207 39.5257C43.229 39.5063 43.248 39.4828 43.267 39.4571C43.346 39.352 43.394 39.2598 43.406 39.1805L43.297 38.9253L43.386 38.9664L43.446 38.9944C43.466 39.0037 43.482 39.0114 43.494 39.0174C43.542 39.1289 43.555 39.251 43.535 39.3883C43.516 39.5233 43.462 39.6476 43.377 39.7634C43.329 39.8257 43.244 39.9135 43.113 40.0293L43.177 40.1472C43.224 40.1408 43.336 40.1023 43.509 40.0336C43.683 39.965 43.784 39.9135 43.81 39.8792C43.906 39.757 43.936 39.609 43.908 39.4355C43.88 39.2617 43.807 39.1052 43.689 38.9702C43.61 38.876 43.531 38.801 43.454 38.7431C43.231 38.5759 43.003 38.473 42.77 38.4322ZM41.599 39.4379C41.584 39.4292 41.571 39.4229 41.563 39.4185L41.5 39.481L41.541 39.9013L42.307 40.1435C42.362 40.2978 42.388 40.4564 42.382 40.6215C42.375 40.7866 42.317 40.9218 42.208 41.031C42.146 41.091 42.062 41.1533 41.955 41.2176L42.007 41.3419C42.052 41.3419 42.165 41.3204 42.348 41.2732C42.53 41.226 42.637 41.1897 42.667 41.1597C42.774 41.0545 42.806 40.8894 42.768 40.6643C42.727 40.4372 42.663 40.2698 42.575 40.1606C42.414 39.9697 42.303 39.8518 42.245 39.8089C42.238 39.8023 42.221 39.7895 42.191 39.7681L42.177 39.7593C42.151 39.7423 42.123 39.7241 42.09 39.7059C42.064 39.6912 42.035 39.6746 42.003 39.6566L41.957 39.6308C41.906 39.6009 41.861 39.5752 41.818 39.5537C41.778 39.5339 41.739 39.5122 41.699 39.4905L41.689 39.4851C41.671 39.4751 41.656 39.4667 41.642 39.4597C41.627 39.452 41.615 39.446 41.606 39.4413L41.599 39.4379ZM41.207 38.951C41.121 38.9339 41.003 38.9319 40.853 38.9447C40.842 39.0498 40.842 39.1677 40.855 39.294L40.9 39.3004C40.93 39.3048 40.975 39.3091 41.033 39.3112C41.091 39.3132 41.149 39.3091 41.202 39.3004L41.211 39.2512C41.215 39.2169 41.22 39.1718 41.22 39.1118C41.22 39.0518 41.216 38.9982 41.207 38.951ZM40.251 39.1397L40.18 39.1976L40.116 39.5705C40.184 39.6478 40.658 40.1987 41.537 41.2234L41.649 41.1333C41.644 41.1247 41.623 41.0733 41.586 40.9789C41.548 40.8825 41.511 40.7926 41.475 40.7089C41.44 40.6232 41.421 40.5803 41.417 40.576L40.251 39.1397ZM39.974 41.8859C39.974 41.7595 39.963 41.6779 39.946 41.6437C39.873 41.4872 39.745 41.3436 39.56 41.2104C39.378 41.0775 39.168 40.9703 38.932 40.8909L38.853 40.9295L38.829 41.3797C38.843 41.3837 38.876 41.3895 38.929 41.399L38.941 41.4011C38.887 41.6563 38.87 41.8643 38.894 42.025C38.898 42.0444 38.919 42.1001 38.958 42.1965C38.997 42.293 39.025 42.3489 39.037 42.366C39.042 42.3722 39.049 42.3794 39.057 42.387L39.061 42.3906L39.067 42.3961C39.08 42.4068 39.104 42.4218 39.138 42.4389C39.173 42.4561 39.211 42.469 39.25 42.4754C39.288 42.4818 39.342 42.4818 39.406 42.4711C39.47 42.4604 39.537 42.4389 39.605 42.4068C39.781 42.3233 39.901 42.2225 39.966 42.1046C39.974 42.0875 39.979 42.0145 39.974 41.8859ZM38.731 40.4496C38.686 40.4218 38.589 40.3896 38.444 40.3531C38.398 40.4496 38.36 40.559 38.328 40.6813L38.368 40.7027C38.396 40.7198 38.437 40.7369 38.493 40.7563C38.546 40.7757 38.602 40.7905 38.656 40.7992L38.677 40.7627C38.69 40.739 38.707 40.7025 38.724 40.6576C38.744 40.6104 38.756 40.5654 38.765 40.5226C38.851 40.5654 38.943 40.5955 39.042 40.617L39.067 40.572C39.083 40.5419 39.102 40.499 39.121 40.4455C39.142 40.3896 39.155 40.3383 39.162 40.2867C39.087 40.2439 38.977 40.2053 38.832 40.1688C38.795 40.2503 38.763 40.3445 38.731 40.4496ZM34.88 42.4628C34.857 42.5014 34.829 42.5678 34.799 42.6621C34.769 42.7564 34.752 42.8444 34.75 42.925C34.745 43.1718 34.891 43.2981 35.189 43.3024C35.27 43.3047 35.36 43.3004 35.459 43.2897C35.558 43.2789 35.615 43.2705 35.631 43.2618L35.819 42.9939C35.868 43.1118 35.931 43.1954 36.001 43.2447C36.072 43.294 36.164 43.3177 36.276 43.3197L36.799 43.234C36.932 43.2082 37.015 43.1827 37.05 43.1526C37.099 43.1054 37.172 42.9875 37.268 42.8009C37.365 42.6144 37.408 42.488 37.395 42.4194L37.215 41.459L37.35 41.249L37.114 40.9468L37.082 40.771L36.983 40.7367L36.683 41.1484L36.831 41.4036L37.114 42.7178C37.048 42.7436 36.917 42.7757 36.72 42.8122H36.718L36.327 42.8893C36.235 42.8872 36.173 42.8722 36.141 42.84C36.109 42.81 36.072 42.7221 36.027 42.5785L35.751 41.6202L35.663 41.6181L35.404 41.9096L35.764 42.8658C35.605 42.8722 35.455 42.8743 35.316 42.8722C35.217 42.8701 35.14 42.8594 35.086 42.838C35.033 42.8165 35 42.7951 34.99 42.7716C34.979 42.7481 34.975 42.718 34.975 42.6795C34.975 42.6386 34.985 42.5787 35.005 42.4993L34.88 42.4628ZM34.537 40.8247L34.22 41.0284C34.209 41.1315 34.128 41.8539 33.972 43.1956L34.113 43.215L34.126 43.1875C34.138 43.1624 34.157 43.1212 34.184 43.0649L34.191 43.0494C34.231 42.9646 34.272 42.8802 34.308 42.8013C34.347 42.7176 34.366 42.6727 34.366 42.6684L34.627 40.8375L34.537 40.8247ZM33.41 41.2322C33.384 41.1486 33.33 41.0436 33.249 40.9171C33.15 40.9577 33.048 41.0135 32.94 41.082L32.955 41.1249C32.966 41.1593 32.985 41.1999 33.011 41.2514C33.037 41.3029 33.067 41.3522 33.101 41.3951L33.148 41.378C33.18 41.3673 33.223 41.3479 33.275 41.3201C33.326 41.2922 33.373 41.2644 33.41 41.2322ZM29.054 37.7891C29.045 37.8192 29.036 37.8621 29.028 37.9177C29.019 37.9757 29.015 38.0315 29.017 38.0872L29.056 38.0999C29.084 38.1107 29.12 38.1191 29.169 38.1278C29.219 38.1362 29.266 38.1406 29.311 38.1406C29.285 38.2327 29.272 38.3292 29.272 38.43L29.322 38.445C29.354 38.4557 29.399 38.4642 29.457 38.4728C29.514 38.4815 29.568 38.4858 29.619 38.4815C29.645 38.4001 29.662 38.2842 29.671 38.1342C29.583 38.1148 29.484 38.1 29.377 38.0913C29.396 38.0398 29.409 37.9412 29.416 37.7912C29.313 37.7654 29.197 37.7506 29.071 37.7419L29.054 37.7891ZM27.727 38.473C27.628 38.5266 27.568 38.5695 27.551 38.6037C27.521 38.666 27.51 38.741 27.519 38.8303C27.528 38.9202 27.569 39.0146 27.639 39.1111C27.693 39.1818 27.744 39.2354 27.798 39.2719L28.158 39.2376C27.937 39.4778 27.903 39.6965 28.051 39.8958L29.093 40.9334C29.187 41.0064 29.26 41.0493 29.309 41.06C29.335 41.0685 29.438 41.0513 29.618 41.0128C29.618 41.2336 29.708 41.4137 29.888 41.5551L29.912 41.5745L30.373 41.8767C30.497 41.9453 30.583 41.9775 30.63 41.9731C30.677 41.9731 30.803 41.9066 31.011 41.7759C30.964 42.0482 31.054 42.2475 31.288 42.3761L31.695 42.5691C31.946 42.6806 32.085 42.6954 32.193 42.6934C32.3 42.6911 32.437 42.6719 32.606 42.6354C32.651 42.627 32.726 42.6055 32.831 42.5755C32.936 42.5456 33.024 42.5241 33.095 42.5091C33.168 42.494 33.23 42.4918 33.286 42.5004L33.543 42.5862L33.764 42.3353V42.256L33.487 42.1681C33.425 42.1488 33.335 42.1018 33.221 42.0288C33.108 41.9558 33.003 41.866 32.906 41.7608C32.876 41.7287 32.84 41.6881 32.799 41.6409C32.779 41.6178 32.761 41.5978 32.746 41.5806C32.73 41.5627 32.717 41.5477 32.707 41.5358C32.686 41.5122 32.664 41.4865 32.638 41.4607C32.613 41.435 32.591 41.4156 32.574 41.4028C32.557 41.39 32.54 41.3814 32.522 41.375C32.471 41.3579 32.39 41.3793 32.278 41.4393C32.167 41.4972 32.085 41.5465 32.034 41.5873C31.982 41.6258 31.939 41.6602 31.907 41.6881L31.954 41.7953L32.297 41.6924C32.327 41.7182 32.381 41.7761 32.458 41.8618C32.532 41.9463 32.585 42.0029 32.613 42.0339L32.617 42.0376C32.713 42.1492 32.825 42.2479 32.953 42.3357C32.908 42.3314 32.833 42.3314 32.728 42.34C32.501 42.3464 32.284 42.3186 32.083 42.2543L31.635 42.07L31.497 41.9906C31.369 41.9197 31.298 41.8554 31.285 41.7998C31.274 41.7441 31.307 41.6454 31.382 41.506L32.158 40.0805L32.076 40.0376L31.703 40.1169L30.927 41.654C30.841 41.6262 30.726 41.5705 30.58 41.4912L30.179 41.2275C30.055 41.1311 29.975 41.0453 29.941 40.9746C30.033 40.9039 30.185 40.7516 30.395 40.5201L30.353 40.4601L30.052 40.4323L29.624 40.7666C29.551 40.7302 29.358 40.5908 29.358 40.5908L28.47 39.7333L28.421 39.6669C28.355 39.5771 28.325 39.5148 28.333 39.4827C28.342 39.4505 28.402 39.3948 28.513 39.3112L29.313 38.7194L29.257 38.6464L28.91 38.5372L28.79 38.6423C28.618 38.5588 28.451 38.4945 28.288 38.4537C28.125 38.4108 28.005 38.3894 27.93 38.3894C27.894 38.3916 27.827 38.4174 27.727 38.473ZM61.897 42.3791C62.507 42.0211 63.146 41.5387 63.757 40.9428C64.649 40.0789 65.337 39.127 65.753 38.2588C65.741 38.2696 65.719 38.2867 65.689 38.3081C65.701 38.2982 65.711 38.2898 65.721 38.2824C65.726 38.2783 65.731 38.2745 65.735 38.2709C65.738 38.2682 65.741 38.2656 65.744 38.2631C65.747 38.2609 65.749 38.2587 65.751 38.2566C64.626 38.6917 63.209 39.8388 62.242 41.0071C62.36 40.4669 62.471 39.9246 62.548 39.3779C62.557 39.3253 62.565 39.2728 62.573 39.2203C62.581 39.1678 62.589 39.1153 62.598 39.0627C64 38.068 65.535 36.145 66.079 34.6378C66.073 34.6442 66.06 34.6572 66.045 34.67C66.058 34.6529 66.068 34.6421 66.077 34.6357C64.975 35.1803 63.622 36.4816 62.754 37.7421C62.759 37.6991 62.763 37.6556 62.768 37.6123C62.772 37.5672 62.776 37.5222 62.782 37.4784C62.801 37.2806 62.811 37.0811 62.821 36.8819C62.828 36.7618 62.834 36.6417 62.842 36.5222C62.859 36.2629 62.87 36.0034 62.872 35.7441C64.207 34.55 65.597 32.2304 65.942 30.5581C65.916 30.5924 65.845 30.6824 65.74 30.8154C65.843 30.6824 65.912 30.5924 65.938 30.5581C64.817 31.3536 63.549 33.0857 62.878 34.6207C62.866 33.9304 62.823 33.2444 62.756 32.5584C63.94 31.2163 65.061 28.7745 65.237 27.083L65.217 27.1147C65.2 27.1407 65.178 27.1769 65.149 27.222C65.136 27.2431 65.122 27.2661 65.106 27.291C65.168 27.1859 65.213 27.1152 65.232 27.083C64.214 28.0028 63.132 29.8614 62.626 31.435C62.506 30.5796 62.349 29.7328 62.148 28.8945C63.084 27.5417 63.863 25.1535 63.843 23.5842C63.842 23.5852 63.842 23.5863 63.841 23.5873C63.841 23.5881 63.841 23.5889 63.84 23.5897C63.84 23.59 63.839 23.5903 63.839 23.5906C63.841 23.5886 63.841 23.5842 63.841 23.5842C62.992 24.5747 62.18 26.4869 61.914 27.9941C61.706 27.2502 61.468 26.515 61.2 25.7945C62.098 24.3797 62.754 21.7448 62.6 20.0962C62.598 20.1005 62.598 20.1069 62.595 20.1112C62.595 20.1069 62.598 20.1005 62.598 20.0962C61.734 21.301 61.033 23.6271 60.996 25.2564C60.981 25.2194 60.965 25.1819 60.948 25.1444C60.932 25.1079 60.917 25.0715 60.902 25.0356C60.632 24.3067 60.334 23.5886 60.003 22.8919C60.764 21.3632 61.125 18.5613 60.762 16.9063C60.761 16.9143 60.758 16.9233 60.754 16.9362L60.75 16.9513L60.753 16.9349C60.755 16.9233 60.757 16.9138 60.76 16.9063C60.012 18.289 59.6 20.851 59.819 22.5081C59.487 21.8328 59.127 21.1703 58.741 20.5251C59.215 19.0373 59.17 16.4712 58.625 15.0454C58.151 16.3638 58.098 18.6341 58.471 20.0856C58.048 19.4081 57.598 18.7522 57.122 18.1175C57.437 16.5118 57.092 13.862 56.363 12.46C56.029 13.8855 56.233 16.2395 56.79 17.6888C56.215 16.9599 55.602 16.2717 54.957 15.6242C55.171 13.9907 54.633 11.3452 53.795 9.99448C53.553 11.5017 53.977 13.9563 54.693 15.3627C54.069 14.7538 53.416 14.1836 52.73 13.6454C52.734 11.9968 51.855 9.44778 50.841 8.24078C50.802 9.77788 51.546 12.1489 52.449 13.4288C51.743 12.8885 51.01 12.3891 50.251 11.9238C50.037 10.376 48.817 8.09278 47.67 7.13668C47.672 7.13878 47.672 7.14108 47.672 7.14538C47.671 7.14208 47.669 7.14018 47.667 7.13838C47.667 7.13788 47.666 7.13728 47.666 7.13668C47.865 8.64168 49.019 10.854 50.125 11.8467C49.162 11.2636 48.157 10.7384 47.117 10.2688C46.011 9.45418 44.077 8.81958 42.819 8.91398L42.821 8.91598C43.794 9.83778 45.753 10.629 47.119 10.6782C48.362 11.3257 49.546 12.0803 50.665 12.9227C49.376 12.406 47.295 12.3139 46.062 12.7599C46.287 12.8071 48.834 13.3109 50.997 13.1759C50.997 13.1779 50.997 13.1779 50.999 13.1779C48.84 13.3129 46.294 12.8112 46.064 12.7642C47.325 13.4525 49.664 13.6603 51.044 13.2123C51.496 13.564 51.938 13.9348 52.367 14.3143C51.031 13.8919 49.053 13.8662 47.856 14.2949L47.883 14.3002C47.978 14.3186 48.223 14.3662 48.57 14.4256C48.251 14.3745 48.021 14.3292 47.911 14.3075L47.856 14.297C49.149 15.0024 51.492 15.2489 52.967 14.8587C53.578 15.4332 54.168 16.0334 54.727 16.6574C53.306 16.04 51.111 15.7891 49.751 16.1385C49.777 16.1472 49.826 16.1616 49.897 16.1827L49.951 16.1985C49.9 16.1846 49.859 16.1729 49.826 16.1635L49.825 16.1633C49.792 16.154 49.767 16.1471 49.751 16.1429C51.102 17.0476 53.634 17.5577 55.272 17.2854C55.872 17.9908 56.44 18.7176 56.974 19.4786C55.572 18.7304 53.321 18.306 51.895 18.5739C51.898 18.575 51.9 18.576 51.903 18.577C51.911 18.5798 51.918 18.5826 51.929 18.589L51.916 18.5848C51.91 18.5828 51.904 18.5809 51.897 18.5783C53.201 19.5666 55.717 20.2419 57.372 20.0661C57.868 20.8121 58.324 21.5861 58.74 22.3836C57.381 21.3653 55.006 20.5699 53.456 20.6663C54.706 21.8755 57.28 22.9088 59.015 22.9174C59.437 23.7642 59.81 24.6347 60.138 25.5286C58.873 24.2917 56.421 23.1532 54.779 23.0996C54.817 23.1254 54.927 23.194 55.094 23.299C54.927 23.1961 54.817 23.1275 54.779 23.1017C55.949 24.4523 58.52 25.7601 60.271 25.9015C60.599 26.8363 60.876 27.7946 61.099 28.7743C59.995 27.2952 57.499 25.73 55.78 25.4728V25.4749C56.837 26.9926 59.375 28.6327 61.133 28.9242C61.36 29.9489 61.525 30.9929 61.63 32.0563C60.586 30.3883 58.363 28.4804 56.689 27.8973C56.695 27.9037 56.704 27.9144 56.712 27.9274C56.708 27.9238 56.704 27.9204 56.701 27.9172C56.698 27.9139 56.695 27.9109 56.692 27.9079C56.69 27.905 56.687 27.9023 56.684 27.8995C57.555 29.6982 59.868 31.8999 61.682 32.6675C61.759 33.6579 61.776 34.6718 61.737 35.6709C60.897 33.7993 58.76 31.4604 57.055 30.648L57.059 30.6531C57.064 30.6602 57.072 30.6707 57.077 30.6823C57.064 30.6672 57.057 30.6587 57.053 30.6501C57.763 32.5817 59.939 35.1092 61.712 36.0547C61.641 36.9594 61.523 37.8577 61.36 38.7474C60.715 36.7923 58.948 34.2775 57.413 33.2463C57.415 33.2511 57.418 33.2563 57.421 33.2624C57.425 33.2698 57.43 33.2785 57.435 33.2891C57.423 33.2757 57.417 33.2622 57.413 33.2534L57.411 33.2506C57.868 35.2379 59.656 38.0078 61.272 39.2384C61.109 40.0466 60.908 40.8441 60.674 41.6309C60.168 39.6607 58.695 37.1054 57.319 35.9541C57.324 35.9642 57.329 35.9786 57.336 35.9966C57.341 36.0097 57.347 36.0248 57.354 36.0415C57.358 36.0505 57.362 36.06 57.366 36.07C57.354 36.0435 57.344 36.0199 57.336 36.0003C57.331 35.9891 57.327 35.9791 57.323 35.9708C57.321 35.9653 57.319 35.9605 57.317 35.9564C57.583 37.9309 59.047 40.782 60.498 42.1948C60.333 42.7093 60.153 43.2174 59.956 43.7169C59.465 41.809 58.119 39.3907 56.839 38.2587L56.852 38.2941L56.884 38.3809C56.86 38.3252 56.845 38.2844 56.837 38.2609C57.049 40.1604 58.346 42.9066 59.694 44.3666C59.456 44.926 59.199 45.477 58.925 46.0195C58.886 46.0944 58.845 46.1693 58.805 46.2438C58.772 46.3059 58.738 46.3677 58.706 46.4291C58.361 44.4354 57.214 41.8628 56.018 40.5872C56.018 40.5892 56.019 40.5911 56.019 40.5931C56.02 40.5977 56.02 40.6027 56.022 40.6087C56.019 40.6047 56.018 40.5999 56.017 40.5958C56.017 40.5933 56.016 40.591 56.016 40.5893C56.065 42.5252 57.133 45.4236 58.359 47.0594C58.048 47.6018 57.716 48.1335 57.37 48.6565C57.1 46.6777 56.153 44.1759 55.096 42.8553C55.01 44.7525 55.805 47.6317 56.852 49.4111C56.393 50.0392 55.915 50.6545 55.413 51.2483C55.559 48.9502 55.014 45.8266 54.073 44.0665C54.074 44.0708 54.075 44.0751 54.075 44.0799C54.075 44.0847 54.074 44.0901 54.073 44.0966C54.073 44.0859 54.073 44.0751 54.071 44.0687C53.595 46.1954 53.968 49.6962 54.849 51.8894C54.843 51.8964 54.837 51.9036 54.83 51.9109C54.817 51.9259 54.804 51.9414 54.789 51.9558C54.243 52.5368 53.672 53.1006 53.085 53.6386C53.514 51.349 53.342 48.1418 52.609 46.2531L52.608 46.2704C52.581 46.6026 52.406 48.7561 52.455 51.2354C52.446 50.9159 52.444 50.605 52.444 50.2985C52.444 48.2505 52.578 46.5914 52.603 46.277L52.605 46.2531C51.878 48.3111 51.848 51.8635 52.478 54.1723C52.425 54.2169 52.371 54.2633 52.317 54.3096C52.265 54.3544 52.213 54.3992 52.161 54.4423C52.014 54.5701 51.858 54.6889 51.702 54.8075C51.617 54.8719 51.532 54.9363 51.449 55.002C51.213 55.1862 50.973 55.3707 50.722 55.5401L50.637 55.6024C51.303 53.3342 51.428 50.0328 50.849 48.0369C50.848 48.0458 50.846 48.0562 50.844 48.0682C50.842 48.0761 50.841 48.0846 50.839 48.094C50.835 48.1152 50.831 48.1404 50.825 48.1698C50.836 48.1076 50.843 48.067 50.847 48.0391C49.927 50.0351 49.599 53.6302 50.051 56.0099L49.983 56.0571L49.22 56.5374C48.677 56.8632 48.131 57.1761 47.571 57.4721C48.598 55.309 49.209 51.9389 48.894 49.825C48.892 49.8357 48.887 49.8465 48.881 49.8615C48.883 49.8465 48.887 49.838 48.892 49.8273C47.689 51.6882 46.872 55.294 47.037 57.7444C46.705 57.9095 46.366 58.0703 46.025 58.216L45.614 58.4003L45.196 58.5654C45.113 58.5977 45.03 58.6302 44.947 58.6627C44.75 58.74 44.553 58.8173 44.355 58.8913C44.197 58.9429 44.039 58.9964 43.881 59.0498C43.468 59.1894 43.056 59.3289 42.636 59.4359C40.325 60.1027 37.915 60.4028 35.514 60.4136C33.111 60.3985 30.704 60.1027 28.393 59.4359C27.972 59.3273 27.561 59.1884 27.148 59.0492C26.991 58.9961 26.833 58.9428 26.675 58.8913C26.473 58.8178 26.273 58.7387 26.073 58.6597C25.993 58.6281 25.913 58.5966 25.833 58.5654L25.415 58.4003L25.003 58.216C24.658 58.0681 24.319 57.9052 23.981 57.7401C24.049 56.6124 23.953 55.2919 23.663 53.9154C23.32 52.2926 22.769 50.867 22.133 49.8271L22.131 49.825C21.979 51.0684 22.054 52.6185 22.397 54.2392C22.656 55.4568 23.029 56.561 23.466 57.4742C22.907 57.1784 22.356 56.8632 21.811 56.5353L21.046 56.0573L20.977 56.008C21.428 53.6262 21.097 50.0353 20.18 48.0437C19.599 50.0375 19.721 53.3325 20.39 55.6007L20.306 55.5407C20.055 55.3735 19.818 55.1891 19.579 55.0025C19.494 54.9343 19.407 54.8678 19.319 54.8012C19.167 54.6856 19.014 54.5694 18.87 54.4429C18.78 54.371 18.694 54.2946 18.607 54.2187L18.55 54.1685C19.181 51.8597 19.148 48.3116 18.422 46.2557C18.454 46.6331 18.775 50.5584 18.409 54.0486C18.407 54.0486 18.407 54.0486 18.405 54.0465C18.773 50.5499 18.452 46.6181 18.42 46.2559C17.686 48.1446 17.513 51.3475 17.942 53.6371C17.352 53.0989 16.788 52.5374 16.2414 51.9584C16.22 51.9349 16.1985 51.9112 16.1792 51.8877C17.058 49.6945 17.433 46.198 16.955 44.0734V44.0838C16.95 44.2289 16.932 44.7555 16.878 45.5205C16.927 44.766 16.945 44.2457 16.95 44.0911L16.951 44.0712C16.0122 45.8313 15.4653 48.9463 15.6133 51.2487C15.1075 50.6549 14.6336 50.0418 14.177 49.4115C15.2211 47.6322 16.0165 44.7574 15.9308 42.86C15.9294 42.8727 15.9252 42.8899 15.92 42.9112C15.9173 42.9223 15.9144 42.9345 15.9114 42.9478C15.9147 42.9258 15.9185 42.9077 15.9218 42.8925C15.924 42.8825 15.9259 42.8736 15.9272 42.8657C15.9277 42.8622 15.9282 42.8588 15.9285 42.8556C14.8738 44.1763 13.9305 46.6737 13.6562 48.6546C13.3111 48.1315 12.9809 47.6019 12.67 47.0575C13.892 45.424 14.9618 42.5298 15.009 40.5917C15.0069 40.6004 15.0026 40.6132 14.9982 40.626C14.9998 40.6144 15.0027 40.6043 15.005 40.5962C15.0057 40.5938 15.0064 40.5915 15.0069 40.5895C13.8149 41.865 12.6659 44.4313 12.3206 46.4229C12.2926 46.3701 12.2639 46.3174 12.235 46.2644C12.1911 46.1838 12.1469 46.1026 12.1042 46.0199C11.8298 45.4776 11.5726 44.9266 11.3345 44.3649C12.6766 42.9072 13.9779 40.1609 14.19 38.2635C14.19 38.2656 14.1879 38.2679 14.1857 38.2699C14.1878 38.2656 14.1878 38.2635 14.1878 38.2592C12.91 39.389 11.5638 41.803 11.0707 43.7088C10.8757 43.2114 10.6955 42.7033 10.5304 42.1932C11.9818 40.776 13.4418 37.9269 13.7097 35.9547C13.7076 35.9599 13.705 35.9652 13.7022 35.9709C13.6992 35.9769 13.6959 35.9835 13.6926 35.9912C13.6952 35.981 13.6992 35.9723 13.7026 35.9651C13.7048 35.9602 13.7068 35.9561 13.7077 35.9526C12.3314 37.1039 10.8586 39.6508 10.3548 41.6252C10.119 40.8385 9.9197 40.041 9.7566 39.2348C11.371 38.0022 13.161 35.2366 13.6133 33.2493V33.2472C12.0783 34.2762 10.314 36.7846 9.6666 38.7417C9.5058 37.8521 9.3879 36.9559 9.3172 36.0534C11.0901 35.1059 13.2639 32.5827 13.9713 30.651V30.649C12.2691 31.4636 10.1275 33.7982 9.2891 35.6719C9.2506 34.675 9.2698 33.6588 9.3427 32.6684C11.1564 31.9031 13.4717 29.6971 14.3401 27.9005V27.8984C12.6614 28.4815 10.4426 30.3895 9.3943 32.0574C9.4994 30.9963 9.6686 29.95 9.8937 28.9274C11.6538 28.6316 14.1878 26.9937 15.2448 25.4758C15.2361 25.4826 15.2245 25.4919 15.2101 25.5035C15.1747 25.5321 15.1217 25.5747 15.0518 25.6279L15.135 25.5606C15.1876 25.5179 15.2242 25.4882 15.2448 25.4735C13.5255 25.7308 11.0321 27.2957 9.9281 28.7751C10.1489 27.7954 10.4276 26.8371 10.7535 25.9023C12.5072 25.7609 15.0776 24.4553 16.248 23.1004C14.608 23.154 12.1554 24.2902 10.8885 25.5294C11.2144 24.6375 11.5916 23.765 12.0096 22.9182C13.746 22.9075 16.3187 21.8762 17.568 20.6671C16.0163 20.5706 13.6452 21.366 12.284 22.3821C12.702 21.5866 13.1586 20.8128 13.6518 20.0666C15.3068 20.2381 17.824 19.5693 19.127 18.5788C18.876 18.6732 16.1923 19.6614 13.7291 19.9551V19.9531C16.1987 19.655 18.885 18.6668 19.129 18.5724C17.708 18.3045 15.455 18.7246 14.055 19.4771C14.5866 18.7161 15.157 17.9893 15.7551 17.2839C17.393 17.554 19.929 17.046 21.28 16.1414C21.267 16.1449 21.247 16.1506 21.221 16.158C21.184 16.1686 21.135 16.1829 21.076 16.1993C21.121 16.1862 21.159 16.1747 21.191 16.1652C21.232 16.153 21.262 16.1441 21.28 16.1393C19.916 15.792 17.725 16.0408 16.3038 16.6581C16.863 16.0342 17.449 15.4339 18.064 14.8615C19.535 15.2453 21.876 15.0029 23.168 14.2977C21.97 13.869 19.994 13.8948 18.662 14.3149C19.091 13.9354 19.533 13.5666 19.983 13.2129C21.363 13.6588 23.702 13.4551 24.963 12.7648C24.868 12.7842 24.397 12.8784 23.722 12.9728C24.399 12.8742 24.875 12.7798 24.965 12.7605C23.737 12.3189 21.651 12.4067 20.364 12.9233C21.496 12.0701 22.693 11.3089 23.953 10.6574C25.267 10.5394 27.055 9.78268 27.97 8.91428C26.585 8.80918 24.403 9.58758 23.306 10.5479C22.48 10.9424 21.676 11.3755 20.898 11.8471C22.004 10.8524 23.158 8.64208 23.357 7.13708C23.356 7.13828 23.355 7.13958 23.355 7.14138C23.354 7.14258 23.354 7.14398 23.353 7.14578C23.353 7.14138 23.353 7.13938 23.355 7.13708C22.21 8.09328 20.988 10.3764 20.776 11.9242C20.017 12.3894 19.283 12.8912 18.576 13.4292C19.481 12.1514 20.227 9.77618 20.188 8.24108L20.186 8.24748C20.185 8.25438 20.182 8.26388 20.177 8.27328C20.179 8.25828 20.182 8.24548 20.184 8.23908C19.17 9.44598 18.289 11.9993 18.295 13.6479C17.613 14.186 16.955 14.7562 16.3313 15.3651C17.052 13.961 17.472 11.5019 17.234 9.99688L17.232 10.0175C17.23 10.039 17.228 10.0686 17.223 10.1062C17.225 10.0823 17.227 10.0619 17.228 10.0446C17.229 10.0231 17.231 10.0066 17.232 9.99468C16.3915 11.3452 15.8555 13.9929 16.0699 15.6265C15.4245 16.2739 14.8136 16.962 14.2391 17.691C14.7944 16.2418 14.9981 13.888 14.6658 12.4622C13.9369 13.8643 13.5939 16.5161 13.9091 18.1198C13.4311 18.7522 12.9829 19.4124 12.5585 20.0879C12.9316 18.6365 12.878 16.364 12.4064 15.0477C12.4064 15.0571 12.4075 15.0689 12.409 15.0847L12.4107 15.1033C12.4081 15.0891 12.4071 15.0764 12.4062 15.0658C12.4056 15.0588 12.4051 15.0527 12.4043 15.0477C11.862 16.4733 11.8148 19.0373 12.2907 20.5294C11.9049 21.1725 11.5425 21.835 11.2082 22.5103C11.4269 20.8531 11.0152 18.287 10.2692 16.9086C10.2713 16.9197 10.2752 16.9366 10.2804 16.9589C10.2862 16.9836 10.2935 17.015 10.3014 17.0523L10.2916 17.0134C10.2794 16.9648 10.2705 16.9292 10.2672 16.9086C9.9048 18.5593 10.2651 21.3677 11.0261 22.8941C10.6959 23.5888 10.4001 24.3005 10.1301 25.0251C10.1174 25.0564 10.1043 25.0871 10.0914 25.1177C10.0716 25.1645 10.0518 25.2108 10.0336 25.2588C9.9951 23.6273 9.294 21.3034 8.43 20.0986C8.4362 20.111 8.443 20.1313 8.4523 20.1586C8.4578 20.1747 8.4641 20.1932 8.4716 20.2141L8.46 20.1819C8.4459 20.1426 8.4357 20.1143 8.4279 20.0986C8.2735 21.7451 8.9273 24.3842 9.83 25.7968C9.562 26.5193 9.3219 27.2525 9.1139 27.9943C8.848 26.4871 8.0398 24.5771 7.1866 23.5867V23.6329C7.1809 23.6234 7.1769 23.6155 7.173 23.6078L7.1719 23.6057C7.1738 23.6096 7.1758 23.6139 7.1779 23.6186C7.1805 23.6244 7.1834 23.6308 7.1869 23.6378V23.6349C7.1891 23.6411 7.1932 23.6494 7.1973 23.6574C7.193 23.651 7.189 23.6444 7.1869 23.6378C7.1826 25.2093 7.954 27.559 8.8801 28.8926C8.6786 29.7309 8.5221 30.5777 8.4042 31.4331C7.8961 29.8616 6.8156 28.0009 5.7952 27.0855C5.796 27.087 5.7967 27.0883 5.7975 27.0895C5.7983 27.0908 5.7991 27.0922 5.7999 27.0938C5.8005 27.0951 5.8011 27.0965 5.8016 27.0983C5.8011 27.0971 5.8004 27.0962 5.7996 27.0952C5.7988 27.0943 5.798 27.0935 5.797 27.0926C5.7952 27.0907 5.793 27.0886 5.7909 27.0855C5.9667 28.7749 7.0901 31.2167 8.2692 32.5608C8.2028 33.2425 8.1577 33.9308 8.1469 34.6188C7.4717 33.086 6.2089 31.356 5.0878 30.5606C5.0933 30.5671 5.1004 30.5764 5.1092 30.5879L5.1302 30.6153C5.1108 30.5908 5.095 30.5717 5.0857 30.5606C5.4331 32.2327 6.8201 34.5524 8.1556 35.7443C8.1577 36.0059 8.1684 36.2674 8.1857 36.5247C8.1929 36.6422 8.1989 36.7603 8.2048 36.8786C8.2149 37.0796 8.2253 37.2811 8.2413 37.4809C8.247 37.5263 8.2521 37.5717 8.2572 37.6173C8.2617 37.6579 8.2664 37.6989 8.2714 37.7402C7.401 36.4818 6.0483 35.1805 4.9485 34.6382C4.9586 34.6483 4.9747 34.6636 4.9959 34.6838L5.047 34.7326L5.0004 34.6904C4.9763 34.6687 4.9586 34.6527 4.9462 34.6404C5.4908 36.1475 7.0256 38.0683 8.4277 39.0654C8.4363 39.1179 8.4443 39.1703 8.4523 39.2228C8.4604 39.2753 8.4684 39.328 8.477 39.3805C8.5563 39.9272 8.6613 40.4695 8.7857 41.0098C7.8167 39.8414 6.4019 38.6945 5.2742 38.2592L5.2762 38.2635C5.9344 39.7299 7.6387 41.5222 9.1331 42.3883C9.2017 42.6328 9.2703 42.8728 9.3454 43.1151L9.5148 43.6426C8.3615 42.5407 6.6721 41.5245 5.403 41.2651C5.4143 41.2724 5.4328 41.2827 5.457 41.2962C5.4828 41.3106 5.5155 41.3288 5.553 41.3509C5.4801 41.3123 5.4244 41.2823 5.4009 41.2672C6.2755 42.6392 8.2801 44.1678 9.9093 44.7487L9.978 44.9289C10.0761 45.2111 10.1966 45.486 10.3169 45.7604L10.3424 45.8185C10.3424 45.8206 10.3424 45.8228 10.3445 45.8228C9.0968 44.9181 7.3624 44.1722 6.1147 44.0798C6.1211 44.0819 6.1341 44.0862 6.1469 44.0949C6.1372 44.0921 6.1285 44.0884 6.1217 44.0856C6.118 44.0841 6.1149 44.0828 6.1127 44.0821C7.1074 45.3063 9.1932 46.5303 10.8441 46.9205C11.1378 47.5337 11.4551 48.136 11.796 48.7212C10.3232 47.7287 8.2972 46.9419 6.8502 46.899C6.8542 46.9002 6.8585 46.9016 6.8631 46.9033C6.8677 46.9049 6.8726 46.9068 6.8778 46.9088C6.8873 46.9123 6.898 46.9164 6.9102 46.9205C6.8921 46.9163 6.8775 46.9112 6.8655 46.9069C6.859 46.9046 6.8532 46.9026 6.8479 46.9011C8.0678 48.2988 10.6147 49.643 12.5612 49.9689C12.8355 50.3869 13.1229 50.7985 13.4209 51.2015C11.8259 50.3591 9.7207 49.7801 8.25 49.8767C8.2602 49.878 8.2735 49.8815 8.2902 49.886C8.3015 49.889 8.3146 49.8926 8.3294 49.8961C8.3106 49.8928 8.2941 49.8889 8.2802 49.8856C8.2671 49.8826 8.2562 49.88 8.2479 49.879C9.637 51.2104 12.3898 52.3486 14.4371 52.4945C14.7479 52.8676 15.0674 53.2277 15.3975 53.5835C13.7124 52.9297 11.5171 52.6124 10.0507 52.9039C10.0528 52.9039 10.0571 52.9039 10.0658 52.906H10.0487C11.5773 54.0551 14.4585 54.8333 16.504 54.7067C17.11 55.2878 17.739 55.8429 18.392 56.3681C16.4394 55.7378 13.9397 55.5277 12.2911 55.9587C12.6341 55.9758 16.0191 56.1453 19.141 56.9471C19.143 56.9481 19.144 56.9492 19.146 56.9503C19.148 56.9514 19.149 56.9525 19.151 56.9535C16.0193 56.1475 12.6193 55.9781 12.2891 55.9631C14.1349 57.1916 17.593 57.8668 19.912 57.5001C20.215 57.7125 20.521 57.9161 20.832 58.1154C21.214 58.3576 21.606 58.5871 21.998 58.8101C19.771 58.3127 16.787 58.4821 15.0138 59.3054C15.3783 59.2582 19.229 58.7759 22.618 59.151C22.619 59.152 22.62 59.1525 22.621 59.153C22.622 59.1536 22.623 59.1542 22.624 59.1553C19.274 58.783 15.4678 59.2516 15.0298 59.3055L15.0137 59.3075C16.1371 59.7727 17.603 60.0514 19.203 60.0386C20.654 60.0322 21.992 59.7813 23.064 59.3784C24.944 60.3323 26.931 61.0655 28.979 61.5693C26.854 62.2639 24.987 63.3057 23.598 64.6414C24.466 64.9908 25.349 65.3039 26.252 65.5783C28.245 63.6252 31.541 62.4633 35.146 62.4633C38.823 62.4633 42.266 63.7173 44.213 65.7498C45.133 65.4904 46.031 65.1924 46.914 64.8558C45.57 63.4838 43.741 62.401 41.638 61.6722C43.84 61.1704 45.981 60.401 47.994 59.3784C49.066 59.7813 50.404 60.0279 51.855 60.0386C53.455 60.0514 54.921 59.7727 56.047 59.3075C55.695 59.2625 51.828 58.7779 48.432 59.1553C48.432 59.1548 48.433 59.1544 48.434 59.154C48.435 59.1535 48.436 59.1531 48.438 59.1526L48.443 59.151C51.813 58.7777 55.647 59.2556 56.041 59.3047L56.047 59.3054C54.928 58.8251 53.465 58.5293 51.868 58.5186C50.85 58.5143 49.887 58.6215 49.032 58.8251C49.435 58.5957 49.836 58.362 50.226 58.1134C50.537 57.9161 50.841 57.7104 51.143 57.5001C53.465 57.8667 56.923 57.1936 58.769 55.9608L58.759 55.9613C58.374 55.9812 55.009 56.155 51.907 56.9533L51.913 56.9469C55.024 56.1482 58.397 55.9772 58.761 55.9588L58.765 55.9585C57.118 55.5275 54.616 55.7378 52.661 56.3679C53.317 55.8427 53.948 55.2897 54.554 54.7065C56.6 54.8331 59.481 54.057 61.012 52.9058H60.994C61.001 52.9037 61.007 52.9037 61.009 52.9037C59.541 52.6121 57.344 52.9316 55.658 53.5833C55.989 53.2296 56.312 52.8672 56.621 52.4943C58.666 52.3486 61.423 51.2081 62.81 49.8788C62.8 49.8813 62.787 49.8846 62.772 49.8881C62.761 49.8906 62.75 49.8933 62.737 49.8959C62.763 49.8875 62.781 49.883 62.796 49.8794L62.808 49.8765C61.337 49.7801 59.226 50.361 57.635 51.2079C57.933 50.8006 58.222 50.3933 58.497 49.9709C60.441 49.6451 62.99 48.3009 64.212 46.9032C64.208 46.9052 64.202 46.9075 64.195 46.9075C64.2 46.9032 64.206 46.9032 64.21 46.9011C62.761 46.946 60.733 47.7328 59.26 48.7276C59.601 48.1401 59.918 47.5378 60.212 46.9246C61.863 46.5387 63.947 45.3125 64.946 44.0883C64.946 44.0883 64.943 44.0883 64.943 44.0862C64.943 44.0841 64.943 44.0841 64.946 44.0841C63.693 44.172 61.957 44.9245 60.714 45.8292C60.714 45.8282 60.714 45.8271 60.715 45.826C60.715 45.8249 60.716 45.8239 60.716 45.8228L60.741 45.7646C60.861 45.4903 60.982 45.2154 61.08 44.9332L61.149 44.753C62.778 44.172 64.785 42.6456 65.657 41.2715C65.651 41.2739 65.643 41.2782 65.634 41.2833C65.626 41.2876 65.618 41.2924 65.608 41.2973C65.624 41.2878 65.637 41.2794 65.648 41.273L65.657 41.2672C64.386 41.5265 62.696 42.5427 61.543 43.6469L61.712 43.1174C61.763 42.8751 61.829 42.6316 61.894 42.388L61.897 42.3791ZM50.858 8.30708C50.852 8.27928 50.845 8.25578 50.841 8.24078C50.843 8.25558 50.847 8.27708 50.858 8.30708ZM64.218 36.5029C63.974 36.7665 63.719 37.0518 63.462 37.3496C63.715 37.0518 63.972 36.7688 64.218 36.5029ZM62.872 35.1286C62.908 35.06 62.945 34.9913 62.985 34.925C62.967 34.9593 62.948 34.9946 62.929 35.03C62.909 35.0653 62.89 35.1007 62.872 35.135V35.1286ZM62.811 31.6276C62.768 31.7248 62.726 31.8221 62.685 31.9215C62.685 31.9215 62.685 31.921 62.684 31.9201C62.684 31.9193 62.683 31.9183 62.683 31.9172C62.71 31.8531 62.738 31.7899 62.767 31.7264C62.784 31.6883 62.801 31.6501 62.818 31.6116L62.811 31.6276ZM63.95 39.7743C63.372 40.2995 62.722 40.9235 62.107 41.5901V41.5837C62.72 40.9171 63.372 40.2952 63.95 39.7743ZM62.593 26.5855C62.39 27.1622 62.186 27.7775 62.014 28.3969C62.014 28.3969 62.014 28.3962 62.014 28.3952C62.014 28.3945 62.013 28.3935 62.012 28.3926C62.184 27.7732 62.388 27.1601 62.593 26.5855ZM53.887 10.8905C53.902 11.0192 53.919 11.1457 53.936 11.2721C53.917 11.1372 53.9 11.0084 53.887 10.8905ZM49.396 14.5501C49.468 14.5592 49.543 14.5687 49.619 14.5785C49.705 14.5896 49.794 14.601 49.885 14.6123C49.715 14.593 49.55 14.5715 49.396 14.5501ZM54.824 15.4997C54.822 15.4997 54.822 15.4997 54.822 15.4977C54.819 15.4863 54.816 15.4749 54.813 15.4635L54.824 15.4997ZM53.819 17.0348C54.264 17.097 54.719 17.144 55.165 17.1698C55.165 17.1698 55.165 17.1719 55.167 17.1719C54.721 17.1463 54.267 17.0991 53.819 17.0348ZM56.676 16.3552C56.734 16.7474 56.801 17.144 56.878 17.5321C56.799 17.142 56.732 16.7454 56.676 16.3552ZM57.263 19.9518C57.251 19.9503 57.24 19.9485 57.229 19.9467C57.24 19.9482 57.251 19.9494 57.263 19.9505C57.269 19.9511 57.275 19.9516 57.282 19.9522L57.287 19.9527C57.287 19.9527 57.288 19.9527 57.289 19.953C57.289 19.9533 57.289 19.9538 57.289 19.9548C57.281 19.954 57.272 19.953 57.263 19.9518ZM58.496 17.2341C58.488 17.6672 58.486 18.1367 58.499 18.6211C58.484 18.1367 58.488 17.6672 58.496 17.2341ZM58.509 16.8084L58.503 16.9768C58.509 16.7583 58.518 16.5504 58.529 16.3595C58.521 16.501 58.515 16.6506 58.509 16.8084ZM58.518 19.2086C58.531 19.4638 58.548 19.721 58.569 19.976C58.546 19.721 58.531 19.4658 58.518 19.2086ZM58.602 20.3128C58.593 20.2357 58.584 20.1563 58.58 20.077C58.586 20.1446 58.593 20.2106 58.6 20.2778L58.604 20.3128H58.602ZM57.768 22.4844C58.162 22.6066 58.561 22.7222 58.955 22.8187V22.8203C58.559 22.7241 58.161 22.6107 57.768 22.4844ZM59.908 22.7025C59.907 22.7022 59.907 22.7018 59.907 22.701C59.911 22.5509 59.92 22.3988 59.929 22.2465C59.92 22.3986 59.914 22.5509 59.909 22.7031C59.909 22.7031 59.908 22.7031 59.908 22.7025ZM61.116 28.9009C60.306 28.5365 59.478 28.0648 58.722 27.5846C59.478 28.0605 60.308 28.5321 61.116 28.8988V28.9009ZM61.088 25.5093C61.087 25.5093 61.087 25.5093 61.086 25.509C61.086 25.5088 61.086 25.5083 61.086 25.5073C61.187 24.9135 61.307 24.3496 61.44 23.8114C61.311 24.3517 61.189 24.9154 61.088 25.5093ZM61.663 32.5539C60.906 32.0093 60.158 31.3769 59.478 30.7531C60.158 31.3705 60.908 32.0052 61.663 32.5497V32.5539ZM57.448 36.2928C57.471 36.3401 57.492 36.3908 57.514 36.4447L57.523 36.4664C57.495 36.4043 57.47 36.3441 57.448 36.2928ZM56.985 38.6381C57.001 38.6745 57.017 38.7137 57.033 38.7549C57.046 38.7864 57.059 38.8191 57.073 38.8525C57.045 38.7883 57.02 38.7273 56.998 38.6716L56.985 38.6381ZM22.193 50.0625L22.208 50.1099C22.219 50.1475 22.232 50.1887 22.244 50.232C22.232 50.1922 22.221 50.1542 22.21 50.1191L22.193 50.0625ZM14.754 25.8502C14.6833 25.9059 14.606 25.966 14.5202 26.0281C14.6037 25.9617 14.6831 25.9017 14.754 25.8502ZM15.5471 23.5263C15.4507 23.5863 15.3478 23.6463 15.2342 23.7106C15.3476 23.6442 15.4527 23.582 15.5471 23.5263ZM22.72 51.9105C22.768 52.082 22.815 52.2621 22.862 52.4487C22.813 52.2621 22.765 52.082 22.72 51.9105ZM21.059 11.5231C20.975 11.6517 20.889 11.774 20.802 11.8962C20.801 11.8962 20.8 11.8962 20.8 11.8964C20.799 11.8966 20.799 11.8971 20.797 11.8983C20.887 11.7738 20.973 11.6495 21.059 11.5231ZM18.662 12.9679C18.581 13.1629 18.495 13.3581 18.405 13.5446C18.405 13.5446 18.403 13.5446 18.401 13.5467C18.491 13.3581 18.578 13.1631 18.662 12.9679ZM20.999 16.2222C20.947 16.2373 20.892 16.2523 20.827 16.2694C20.857 16.2616 20.884 16.2538 20.91 16.2464C20.942 16.2376 20.971 16.2293 20.999 16.2222ZM19.959 16.4968C19.788 16.5396 19.603 16.5825 19.41 16.6254L19.562 16.5898L19.563 16.5897C19.701 16.5575 19.833 16.5265 19.959 16.4968ZM17.217 10.1681C17.211 10.2303 17.202 10.3074 17.191 10.3975C17.196 10.3579 17.2 10.3208 17.204 10.2864C17.208 10.2425 17.212 10.2029 17.217 10.1681ZM17.159 10.4983C17.136 10.7126 17.104 10.9827 17.058 11.2937C17.082 11.1146 17.103 10.9489 17.121 10.7997V10.7987C17.135 10.6894 17.148 10.5888 17.159 10.4983ZM16.542 14.1449C16.4368 14.6014 16.3148 15.0582 16.1775 15.4977L16.1754 15.4997C16.3125 15.0603 16.4325 14.6016 16.542 14.1449ZM15.8537 17.1677C16.653 17.1184 17.479 17.0005 18.235 16.8653C17.479 17.0047 16.653 17.1226 15.8516 17.1698C15.8516 17.1698 15.8537 17.1698 15.8537 17.1677ZM14.4988 15.1011C14.411 15.9864 14.2737 16.9855 14.0657 17.9137C14.0657 17.9158 14.0636 17.9158 14.0614 17.9158C14.2714 16.9876 14.4087 15.9887 14.4988 15.1011ZM12.4652 19.44C12.4483 19.733 12.4271 20.026 12.3957 20.3128C12.3957 20.3141 12.3957 20.3146 12.3952 20.3153L12.3936 20.3171C12.4228 20.0302 12.4481 19.7351 12.4652 19.44ZM10.9614 20.9559C11.0278 21.5327 11.0773 22.1242 11.0921 22.701C11.0709 22.1263 11.0237 21.5304 10.9614 20.9559ZM10.7599 25.8331C10.7738 25.8292 10.788 25.8251 10.8023 25.8207L10.7599 25.8353V25.8331ZM9.8809 28.8986C10.5304 28.6072 11.1929 28.2448 11.821 27.8696C11.195 28.2512 10.5325 28.6092 9.8809 28.9009V28.8986ZM9.3343 32.5475C9.7373 32.2602 10.1361 31.9472 10.524 31.6234C10.1361 31.9493 9.7352 32.2622 9.3343 32.5516V32.5475ZM8.1251 35.1309C8.0029 34.9015 7.8743 34.6743 7.7413 34.4492C7.8743 34.67 8.0029 34.8973 8.1251 35.1267V35.1309ZM8.3117 31.9194C8.1359 31.4971 7.945 31.077 7.7521 30.6697C7.9471 31.0706 8.1359 31.4886 8.3137 31.913C8.3139 31.9151 8.3139 31.9172 8.3117 31.9194ZM12.9316 32.0116C12.8308 32.1402 12.7236 32.2752 12.608 32.4145C12.6667 32.3411 12.7248 32.2688 12.7818 32.1981C12.8329 32.1346 12.883 32.0724 12.9316 32.0116ZM11.9047 33.27C11.611 33.615 11.298 33.9731 10.9658 34.329C11.2937 33.9753 11.6068 33.6152 11.9047 33.27ZM9.2937 35.9754C9.6709 35.6452 10.0419 35.2871 10.4041 34.9206C10.0417 35.2937 9.6709 35.6495 9.2937 35.9775V35.9754ZM5.752 41.4765C5.8003 41.5034 5.852 41.5336 5.9076 41.5662C5.9407 41.5856 5.9753 41.6058 6.0113 41.6266C5.94 41.587 5.8745 41.5485 5.8141 41.5129L5.752 41.4765ZM8.0394 42.9151C8.3888 43.1529 8.7511 43.4145 9.1113 43.6911C8.7511 43.4188 8.3888 43.1573 8.0394 42.9151ZM9.4672 43.9719C9.5064 44.0012 9.5447 44.0315 9.5827 44.0616C9.6029 44.0776 9.623 44.0935 9.643 44.1092L9.6451 44.1135C9.6086 44.086 9.5729 44.0571 9.5371 44.028C9.5139 44.0092 9.4907 43.9904 9.4672 43.9719ZM12.4643 35.2358C12.2328 35.6217 11.9733 36.0397 11.6862 36.4707C11.9669 36.0397 12.2285 35.6217 12.4643 35.2358ZM9.7181 39.1333C9.9539 38.8566 10.1854 38.5695 10.4127 38.2758C10.1856 38.5738 9.9539 38.8632 9.7181 39.1376V39.1333ZM10.7378 41.6769L10.7813 41.6117L10.7392 41.6763C10.6523 41.8096 10.5651 41.9435 10.4748 42.0726V42.0683C10.5631 41.9394 10.6499 41.809 10.7378 41.6769ZM10.7813 41.6117C11.0857 41.1465 11.3751 40.6598 11.6431 40.1795C11.3688 40.6598 11.0835 41.1444 10.7813 41.6117ZM6.5495 44.2679C6.6181 44.2957 6.6932 44.3279 6.7725 44.3623C6.6909 44.3299 6.6181 44.3 6.5495 44.2679ZM9.9564 45.9443C10.1427 46.0511 10.3289 46.1617 10.5113 46.2743C10.5121 46.2743 10.5126 46.2746 10.5129 46.2752C10.5133 46.276 10.5133 46.2773 10.5133 46.2787C10.329 46.164 10.1428 46.0513 9.9564 45.9443ZM12.3827 42.2311C12.2349 42.5162 12.0805 42.8015 11.9218 43.0866C12.0828 42.8015 12.237 42.5162 12.3827 42.2311ZM11.9218 43.0866C11.7074 43.466 11.4846 43.8412 11.2572 44.2077C11.4887 43.8433 11.7095 43.4681 11.9218 43.0866ZM7.1541 47.0162L7.2006 47.0332C7.2465 47.05 7.2967 47.0684 7.3491 47.0891L7.3184 47.078C7.2592 47.0565 7.2035 47.0362 7.1541 47.0162ZM11.1973 48.787C11.4974 48.9391 11.7954 49.1022 12.0912 49.2716C12.0912 49.2737 12.0933 49.2759 12.0933 49.2759C11.7975 49.1063 11.4953 48.9414 11.1973 48.787ZM14.9982 40.6277C14.9918 40.6512 14.9832 40.6813 14.9725 40.7155C14.9763 40.7023 14.9797 40.69 14.9828 40.6786C14.9882 40.6584 14.9928 40.6412 14.9982 40.6277ZM12.5651 46.9069C12.9918 46.0686 13.3797 45.1746 13.7143 44.3301C13.382 45.1748 12.9961 46.0709 12.5674 46.9092C12.5673 46.908 12.5672 46.9075 12.5669 46.9072C12.5666 46.9069 12.5661 46.9069 12.5651 46.9069ZM15.7444 43.6118L15.7369 43.6441C15.7175 43.7277 15.6962 43.8194 15.6714 43.9142L15.6944 43.8177C15.7115 43.7453 15.7279 43.6759 15.7444 43.6118ZM15.1633 45.8413C15.0518 46.2335 14.9275 46.6495 14.7903 47.0718C14.9255 46.6474 15.0498 46.2337 15.1633 45.8413ZM13.8153 51.7731C13.82 51.7752 13.8248 51.7774 13.8297 51.7796C13.831 51.7796 13.8315 51.7804 13.8322 51.7815C13.8326 51.7822 13.8332 51.783 13.834 51.7839C13.8212 51.7788 13.809 51.7728 13.7971 51.767C13.7893 51.7632 13.7817 51.7595 13.7741 51.7561C13.7885 51.7608 13.8016 51.7668 13.8153 51.7731ZM14.0208 49.2178C14.2351 48.6883 14.4324 48.1416 14.6146 47.6057C14.4345 48.1439 14.2374 48.6883 14.023 49.2201C14.0228 49.2195 14.0224 49.2178 14.0208 49.2178ZM15.1976 53.9C15.4163 53.96 15.637 54.0222 15.8557 54.0929L15.8601 54.0973C15.6712 54.0362 15.4807 53.9814 15.2886 53.9262L15.1976 53.9ZM16.0231 51.7346V51.7334C16.0229 51.7326 16.0225 51.7326 16.021 51.7326C16.1282 51.2566 16.2226 50.7679 16.3084 50.2833C16.2245 50.7679 16.1303 51.2566 16.0231 51.7346ZM20.742 52.9223C20.722 52.663 20.703 52.4078 20.682 52.157C20.703 52.4058 20.724 52.663 20.742 52.9223ZM20.823 55.9087L20.821 55.9066C20.84 54.9141 20.806 53.8915 20.742 52.9267C20.808 53.8936 20.844 54.9183 20.823 55.9087ZM23.85 57.6732C23.773 56.9464 23.659 56.2088 23.531 55.4886C23.664 56.2111 23.777 56.9486 23.854 57.6754C23.854 57.6743 23.854 57.6737 23.854 57.6735C23.853 57.6732 23.852 57.6732 23.85 57.6732ZM47.145 57.6752H47.143C47.213 57.0084 47.314 56.3267 47.434 55.6601C47.319 56.329 47.218 57.0086 47.145 57.6752ZM50.178 55.9087L50.176 55.9108C50.144 54.513 50.23 53.051 50.352 51.7689C50.236 53.051 50.148 54.513 50.178 55.9087ZM50.546 50.0006L50.56 49.8954C50.541 50.0561 50.519 50.2254 50.496 50.4035C50.511 50.2636 50.529 50.1304 50.546 50.0006ZM55.795 53.9L55.725 53.9204C55.527 53.978 55.328 54.0359 55.133 54.0973C55.134 54.0973 55.135 54.0967 55.136 54.0959C55.137 54.0951 55.138 54.094 55.139 54.0929C55.358 54.0243 55.576 53.9579 55.795 53.9ZM55.544 44.7686C55.559 44.8259 55.574 44.8841 55.59 44.9431L55.554 44.8084C55.524 44.696 55.495 44.5869 55.469 44.4822C55.494 44.5745 55.518 44.6702 55.544 44.7686ZM56.976 49.2265C56.666 48.4547 56.387 47.6529 56.149 46.8875C56.393 47.6508 56.668 48.4547 56.979 49.2222L56.976 49.2265ZM58.434 46.9111C58.284 46.6153 58.136 46.3129 58.001 46.0064C58.143 46.3087 58.286 46.613 58.436 46.9047C58.434 46.909 58.434 46.909 58.434 46.9111ZM63.995 46.9646C63.835 47.0226 63.586 47.1147 63.273 47.2347C63.586 47.1106 63.835 47.0182 63.995 46.9646ZM60.246 48.5597C59.8 48.7827 59.348 49.0226 58.902 49.2801C58.902 49.2801 58.904 49.278 58.904 49.2757C59.348 49.0206 59.8 48.7804 60.246 48.5597ZM60.053 41.3543C60.209 41.5987 60.366 41.8387 60.527 42.0747V42.079C60.364 41.8432 60.207 41.6008 60.053 41.3543ZM61.129 45.8949C60.91 46.0214 60.694 46.1521 60.477 46.285C60.477 46.284 60.478 46.2835 60.478 46.283C60.479 46.2825 60.479 46.282 60.479 46.2812C60.479 46.2814 60.479 46.2811 60.479 46.2812C60.694 46.1485 60.912 46.0171 61.129 45.8949ZM64.604 41.8539C64.499 41.9182 64.388 41.9869 64.27 42.0619C64.364 42.0003 64.453 41.9457 64.539 41.8935L64.604 41.8539ZM62.981 42.9C62.45 43.2667 61.888 43.6782 61.352 44.1176V44.1133C61.888 43.6761 62.45 43.2645 62.981 42.9Z" fill="#04AC63"/>
</svg>
